<?xml version="1.0" encoding="UTF-8"?>
<!DOCTYPE svg PUBLIC "-//W3C//DTD SVG 1.1//EN" "http://www.w3.org/Graphics/SVG/1.1/DTD/svg11.dtd">
<!-- Creator: CorelDRAW 2019 (64-Bit) -->
<svg xmlns="http://www.w3.org/2000/svg" xml:space="preserve" width="5.75207cm" height="5.73819cm" version="1.1" style="shape-rendering:geometricPrecision; text-rendering:geometricPrecision; image-rendering:optimizeQuality; fill-rule:evenodd; clip-rule:evenodd"
viewBox="0 0 2689.13 2682.65"
 xmlns:xlink="http://www.w3.org/1999/xlink">
 <defs>
  <style type="text/css">
   <![CDATA[
    .str0 {stroke:#FEFEFE;stroke-width:3.76;stroke-miterlimit:22.9256}
    .fil3 {fill:#FEFEFE}
    .fil0 {fill:#0037C1}
    .fil2 {fill:#2554CA}
    .fil1 {fill:#0037C1;fill-rule:nonzero}
   ]]>
  </style>
   <mask id="id0">
  <linearGradient id="id1" gradientUnits="userSpaceOnUse" x1="1417.87" y1="989.03" x2="1120.88" y2="25.6">
   <stop offset="0" style="stop-opacity:0; stop-color:white"/>
   <stop offset="1" style="stop-opacity:1; stop-color:white"/>
  </linearGradient>
    <rect style="fill:url(#id1)" x="115.57" y="117.77" width="2307.61" height="779.09"/>
   </mask>
 </defs>
 <g id="Capa_x0020_1">
  <metadata id="CorelCorpID_0Corel-Layer"/>
  <g>
   <path class="fil0" d="M413.17 1.87l1862.79 0c226.21,0 411.29,185.08 411.29,411.29l0 1856.31c0,226.21 -185.08,411.29 -411.29,411.29l-1862.79 0c-226.21,0 -411.29,-185.08 -411.29,-411.29l0 -1856.31c0,-226.21 185.08,-411.29 411.29,-411.29z"/>
   <path id="1" class="fil1" d="M2275.96 3.75l-1862.79 0 0 -3.75 1862.79 0 0 0 0 3.75zm413.17 409.42l-3.76 0 0 0 -0.54 -20.99 -1.58 -20.72 -2.61 -20.43 -3.62 -20.11 -4.59 -19.77 -5.54 -19.39 -6.46 -19 -7.36 -18.57 -8.23 -18.13 -9.07 -17.64 -9.89 -17.14 -10.68 -16.62 -11.44 -16.06 -12.18 -15.48 -12.9 -14.87 -13.58 -14.24 -14.24 -13.58 -14.87 -12.9 -15.48 -12.18 -16.06 -11.44 -16.61 -10.68 -17.15 -9.89 -17.64 -9.07 -18.12 -8.23 -18.57 -7.35 -18.99 -6.47 -19.39 -5.54 -19.76 -4.59 -20.11 -3.62 -20.43 -2.62 -20.72 -1.58 -20.99 -0.54 0 -3.75 21.18 0.54 20.91 1.6 20.61 2.64 20.3 3.66 19.95 4.63 19.57 5.59 19.17 6.52 18.74 7.43 18.29 8.3 17.81 9.15 17.3 9.97 16.77 10.78 16.2 11.55 15.62 12.29 15.01 13.01 14.37 13.7 13.7 14.37 13.01 15.01 12.29 15.62 11.55 16.2 10.78 16.76 9.97 17.3 9.15 17.81 8.3 18.28 7.42 18.75 6.53 19.17 5.59 19.57 4.63 19.94 3.65 20.3 2.64 20.61 1.6 20.91 0.54 21.18 0 0zm-3.76 1856.31l0 -1856.31 3.76 0 0 1856.31 0 0 -3.76 0zm-409.41 413.17l0 -3.75 0 0 20.99 -0.54 20.72 -1.58 20.43 -2.62 20.11 -3.62 19.76 -4.59 19.39 -5.54 18.99 -6.47 18.57 -7.35 18.12 -8.23 17.64 -9.07 17.15 -9.89 16.61 -10.68 16.06 -11.44 15.48 -12.18 14.87 -12.9 14.24 -13.58 13.58 -14.24 12.9 -14.87 12.18 -15.48 11.44 -16.06 10.68 -16.62 9.89 -17.14 9.07 -17.64 8.23 -18.13 7.36 -18.57 6.46 -19 5.54 -19.39 4.59 -19.77 3.62 -20.11 2.61 -20.43 1.58 -20.72 0.54 -20.99 3.76 0 -0.54 21.18 -1.6 20.91 -2.64 20.61 -3.65 20.3 -4.63 19.94 -5.59 19.57 -6.53 19.17 -7.42 18.75 -8.3 18.28 -9.15 17.81 -9.97 17.3 -10.78 16.76 -11.55 16.2 -12.29 15.62 -13.01 15.01 -13.7 14.37 -14.37 13.7 -15.01 13.01 -15.62 12.29 -16.2 11.55 -16.77 10.78 -17.3 9.97 -17.81 9.15 -18.29 8.3 -18.74 7.43 -19.17 6.52 -19.57 5.59 -19.95 4.63 -20.3 3.66 -20.61 2.64 -20.91 1.6 -21.18 0.54 0 0zm-1862.79 -3.75l1862.79 0 0 3.75 -1862.79 0 0 0 0 -3.75zm-413.17 -409.42l3.76 0 0 0 0.54 20.99 1.58 20.72 2.61 20.43 3.62 20.11 4.59 19.77 5.54 19.39 6.46 19 7.36 18.57 8.23 18.13 9.07 17.64 9.89 17.14 10.68 16.62 11.44 16.06 12.18 15.48 12.9 14.87 13.58 14.24 14.24 13.58 14.87 12.9 15.48 12.18 16.06 11.44 16.61 10.68 17.15 9.89 17.64 9.07 18.12 8.23 18.57 7.35 18.99 6.47 19.39 5.54 19.76 4.59 20.11 3.62 20.43 2.62 20.72 1.58 20.99 0.54 0 3.75 -21.18 -0.54 -20.91 -1.6 -20.61 -2.64 -20.3 -3.66 -19.95 -4.63 -19.57 -5.59 -19.17 -6.52 -18.74 -7.43 -18.29 -8.3 -17.81 -9.15 -17.3 -9.97 -16.77 -10.78 -16.2 -11.55 -15.62 -12.29 -15.01 -13.01 -14.37 -13.7 -13.7 -14.37 -13.01 -15.01 -12.29 -15.62 -11.55 -16.2 -10.78 -16.76 -9.97 -17.3 -9.15 -17.81 -8.3 -18.28 -7.42 -18.75 -6.53 -19.17 -5.59 -19.57 -4.63 -19.94 -3.65 -20.3 -2.64 -20.61 -1.6 -20.91 -0.54 -21.18 0 0zm3.76 -1856.31l0 1856.31 -3.76 0 0 -1856.31 0 0 3.76 0zm409.41 -413.17l0 3.75 0 0 -20.99 0.54 -20.72 1.58 -20.43 2.62 -20.11 3.62 -19.76 4.59 -19.39 5.54 -18.99 6.47 -18.57 7.35 -18.12 8.23 -17.64 9.07 -17.15 9.89 -16.61 10.68 -16.06 11.44 -15.48 12.18 -14.87 12.9 -14.24 13.58 -13.58 14.24 -12.9 14.87 -12.18 15.48 -11.44 16.06 -10.68 16.62 -9.89 17.14 -9.07 17.64 -8.23 18.13 -7.36 18.57 -6.46 19 -5.54 19.39 -4.59 19.77 -3.62 20.11 -2.61 20.43 -1.58 20.72 -0.54 20.99 -3.76 0 0.54 -21.18 1.6 -20.91 2.64 -20.61 3.65 -20.3 4.63 -19.94 5.59 -19.57 6.53 -19.17 7.42 -18.75 8.3 -18.28 9.15 -17.81 9.97 -17.3 10.78 -16.76 11.55 -16.2 12.29 -15.62 13.01 -15.01 13.7 -14.37 14.37 -13.7 15.01 -13.01 15.62 -12.29 16.2 -11.55 16.77 -10.78 17.3 -9.97 17.81 -9.15 18.29 -8.3 18.74 -7.43 19.17 -6.52 19.57 -5.59 19.95 -4.63 20.3 -3.66 20.61 -2.64 20.91 -1.6 21.18 -0.54 0 0z"/>
  </g>
  <path class="fil2" style="mask:url(#id0)" d="M660.27 117.77l1247.45 0c250.93,0 515.47,184.15 515.47,395.18l0 383.91 -2307.61 0 0 -273.06c0,-214.13 275.89,-506.03 544.7,-506.03z"/>
  <path class="fil3 str0" d="M1180.45 968.63l215.82 0 0 -268.54c0,-23.08 6.02,-183.67 100.5,-292.6 68.42,-78.88 179.63,-120.85 328.68,-130.59l328.21 0 0 361.68c-69.63,0.35 -177.98,0.62 -203.65,1.01 -12,2.38 -126.56,-5.98 -119.59,120.67l-0.26 208.37 324.24 0 -37.05 362.78 -287.44 0 -1.52 1056.22 -430.65 0 -0.5 -1055.37 -216.79 0 0 -363.64z"/>
 </g>
</svg>
