<?xml version="1.0" encoding="UTF-8"?>
<!DOCTYPE svg PUBLIC "-//W3C//DTD SVG 1.1//EN" "http://www.w3.org/Graphics/SVG/1.1/DTD/svg11.dtd">
<!-- Creator: CorelDRAW 2019 (64-Bit) -->
<svg xmlns="http://www.w3.org/2000/svg" xml:space="preserve" width="21cm" height="29.7cm" version="1.1" style="shape-rendering:geometricPrecision; text-rendering:geometricPrecision; image-rendering:optimizeQuality; fill-rule:evenodd; clip-rule:evenodd"
viewBox="0 0 21000 29700"
 xmlns:xlink="http://www.w3.org/1999/xlink">
 <defs>
  <style type="text/css">
   <![CDATA[
    .str1 {stroke:#FFED00;stroke-width:20;stroke-miterlimit:22.9256}
    .str2 {stroke:#E31E24;stroke-width:20;stroke-miterlimit:22.9256}
    .str4 {stroke:#089653;stroke-width:20;stroke-miterlimit:22.9256}
    .str5 {stroke:#0BADEE;stroke-width:20;stroke-miterlimit:22.9256}
    .str3 {stroke:#45318E;stroke-width:20;stroke-miterlimit:22.9256}
    .str6 {stroke:#A4CA0A;stroke-width:20;stroke-miterlimit:22.9256}
    .str0 {stroke:#AF0C8E;stroke-width:20;stroke-miterlimit:22.9256}
    .str7 {stroke:#F85706;stroke-width:20;stroke-miterlimit:22.9256}
    .str8 {stroke:#2B2A29;stroke-width:7.62;stroke-miterlimit:22.9256}
    .fil14 {fill:none;fill-rule:nonzero}
    .fil4 {fill:#089653}
    .fil5 {fill:#0BADEE}
    .fil3 {fill:#45318E}
    .fil6 {fill:#A4CA0A}
    .fil0 {fill:#AF0C8E}
    .fil2 {fill:#EA020B}
    .fil7 {fill:#F85706}
    .fil1 {fill:#FBE40A}
    .fil8 {fill:#FEFEFE;fill-rule:nonzero}
    .fil9 {fill:#2B2A29;fill-rule:nonzero}
    .fil13 {fill:#089653;fill-rule:nonzero}
    .fil12 {fill:#AF0C8E;fill-rule:nonzero}
    .fil10 {fill:#EA020B;fill-rule:nonzero}
    .fil11 {fill:#FBE40A;fill-rule:nonzero}
   ]]>
  </style>
    <clipPath id="id0">
     <path d="M4924.5 13167.4l11093.77 0 0 3535 -11093.77 0 0 -3535z"/>
    </clipPath>
 </defs>
 <g id="Capa_x0020_1">
  <metadata id="CorelCorpID_0Corel-Layer"/>
  <g id="_2583485165328">
   <g style="clip-path:url(#id0)">
    <image x="4924.5" y="13167.4" width="11093.77" height="3535" xlink:href="IMAGEN1_Images\IMAGEN1_ImgID1.png"/>
   </g>
  </g>
  <g id="_2583598985664">
   <path class="fil0 str0" d="M6047.7 15299.7c48.5,-35.27 110.24,-95.24 134.93,-147.76 24.69,-52.52 12.35,-97.58 -2.64,-131.1 -15,-33.51 -32.63,-55.48 -87.31,-81.45 -54.68,-25.98 -146.41,-55.96 -224.02,-64.78 -77.61,-8.82 -141.11,3.52 -200.2,29.5 -59.09,25.97 -113.77,65.58 -167.57,67.35 -53.8,1.76 -106.71,-34.32 -126.99,-85.87 -20.29,-51.55 -7.95,-118.58 20.28,-158.27 28.22,-39.69 72.31,-52.03 112,-53.79 39.69,-1.77 74.96,7.05 115.33,20.93 40.36,13.87 85.8,32.8 147.36,44.41 61.55,11.61 139.2,15.91 203.42,16.13 64.22,0.21 114.99,-3.66 156.63,-11.74 41.64,-8.08 74.13,-20.39 90.38,-36.24 16.25,-15.85 16.25,-35.26 -19.03,-59.95 -35.28,-24.7 -105.83,-54.68 -155.22,-86.43 -49.39,-31.75 -77.61,-65.27 -73.2,-95.25 4.41,-29.99 41.45,-56.45 83.79,-45.86 42.33,10.58 89.95,58.2 120.82,84.66 30.87,26.46 44.98,31.75 59.98,36.16 14.99,4.41 30.86,7.94 51.15,-1.76 20.28,-9.7 44.98,-32.63 72.32,-61.73 27.34,-29.11 57.32,-64.39 66.14,-99.67 8.82,-35.28 -3.52,-70.55 -37.03,-100.54 -33.52,-29.99 -88.21,-54.68 -140.24,-84.67 -52.04,-29.99 -101.42,-65.26 -133.17,-93.48 -31.75,-28.23 -45.87,-49.39 -48.51,-82.02 -2.65,-32.64 6.17,-76.73 37.92,-112.01 31.75,-35.28 86.43,-61.74 130.53,-55.56 44.1,6.17 77.61,44.97 108.48,97.01 30.87,52.03 59.09,117.3 95.18,175.95 36.08,58.64 80.04,110.68 116.64,129.64 36.6,18.96 65.85,4.85 69.01,-35.72 3.16,-40.57 -19.77,-107.6 -21.09,-150.37 -1.33,-42.78 18.96,-61.29 38.8,-52.03 19.84,9.26 39.25,46.3 64.83,77.17 25.57,30.87 57.32,55.56 85.54,78.5 28.22,22.93 52.92,44.09 76.73,35.27 23.81,-8.82 46.74,-47.62 68.79,-95.24 22.05,-47.63 43.21,-104.08 79.37,-163.17 36.16,-59.09 87.32,-120.82 121.72,-178.15 34.39,-57.33 52.03,-110.24 70.55,-146.4 18.52,-36.16 37.93,-55.57 68.8,-67.03 30.86,-11.47 73.2,-15 105.83,-0.89 32.63,14.11 55.56,45.86 63.5,81.14 7.93,35.28 0.88,74.08 -22.05,112.01 -22.93,37.92 -61.74,74.97 -113.77,119.07 -52.04,44.09 -117.3,95.25 -164.92,137.58 -47.63,42.33 -77.62,75.85 -93.49,107.6 -15.88,31.75 -17.64,61.73 -13.23,88.19 4.4,26.46 14.99,49.39 44.1,65.27 29.1,15.87 76.72,24.69 110.68,14.77 33.96,-9.92 54.24,-38.59 70.12,-64.6 15.87,-26.02 27.34,-49.4 56.88,-58.88 29.54,-9.48 77.17,-5.07 108.92,11.25 31.75,16.31 47.62,44.54 44.98,68.35 -2.65,23.81 -23.81,43.22 -50.27,59.1 -26.46,15.87 -58.21,28.21 -93.49,47.62 -35.28,19.4 -74.08,45.85 -89.07,75.84 -15,29.99 -6.18,63.5 15.87,89.08 22.05,25.58 57.32,43.21 82.9,54.68 25.58,11.46 41.45,16.76 52.92,10.59 11.47,-6.18 18.52,-23.82 37.29,-36.82 18.77,-13.01 49.26,-21.39 65.83,-10.14 16.56,11.25 19.2,42.12 4.43,63.51 -14.77,21.39 -46.97,33.29 -75,49.39 -28.03,16.09 -51.9,36.36 -70.89,55.32 -18.99,18.96 -33.1,36.6 -43.68,55.12 -10.59,18.52 -17.64,37.93 -10.58,50.28 7.05,12.34 28.21,17.63 49.38,19.4 21.17,1.76 42.33,-0.01 62.62,-9.71 20.28,-9.7 39.69,-27.34 59.98,-42.33 20.28,-15 41.44,-27.34 60.85,-30.87 19.4,-3.53 37.04,1.77 47.63,15.88 10.58,14.11 14.1,37.04 -3.53,63.5 -17.64,26.46 -56.45,56.44 -91.72,71.44 -35.28,14.99 -67.03,14.99 -91.72,14.99 -24.7,0 -42.34,0 -57.33,1.77 -15,1.76 -27.34,5.28 -35.28,23.32 -7.94,18.04 -11.47,50.58 0.88,85.86 12.34,35.28 40.57,73.29 63.5,99.35 22.93,26.06 40.57,40.17 60.86,48.1 20.28,7.94 43.21,9.71 74.08,14.12 30.87,4.41 69.67,11.46 105.83,29.1 36.16,17.64 69.68,45.87 86.44,79.38 16.75,33.51 16.75,72.32 2.64,104.95 -14.11,32.63 -42.34,59.09 -71.44,64.38 -29.11,5.29 -59.09,-10.58 -90.84,-40.57 -31.75,-29.99 -65.27,-74.08 -104.07,-112.01 -38.81,-37.92 -82.9,-69.67 -126.11,-86.43 -43.22,-16.75 -85.56,-18.52 -119.95,0.88 -34.4,19.41 -60.86,59.98 -70.56,124.36 -9.7,64.38 -2.65,152.58 -2.65,216.96 0,64.38 -7.05,104.95 -28.22,134.93 -21.17,29.99 -56.44,49.4 -87.31,49.4 -30.87,0 -57.32,-19.41 -63.49,-64.39 -6.18,-44.98 7.93,-115.53 17.63,-173.74 9.7,-58.21 14.99,-104.07 -0.88,-123.47 -15.88,-19.4 -52.92,-12.35 -87.31,14.99 -34.4,27.34 -66.15,74.97 -82.02,151.69 -15.88,76.73 -15.88,182.57 -32.63,264.59 -16.76,82.02 -50.28,140.23 -91.73,158.75 -41.45,18.52 -90.84,-2.64 -100.54,-58.21 -9.7,-55.56 20.28,-145.52 49.39,-243.42 29.1,-97.89 57.32,-203.73 73.2,-288.4 15.87,-84.66 19.4,-148.16 -2.65,-162.27 -22.05,-14.11 -69.67,21.17 -105.83,64.38 -36.16,43.22 -60.86,94.37 -101.42,149.05 -40.57,54.68 -97.02,112.89 -138.47,132.29 -41.45,19.41 -67.91,0 -74.96,-29.11 -7.06,-29.1 5.28,-67.9 39.68,-123.47 34.4,-55.56 90.84,-127.87 142.88,-180.79 52.03,-52.92 99.66,-86.43 97.9,-119.55 -1.77,-33.12 -52.93,-65.83 -89.97,-60.54 -37.04,5.29 -59.97,48.59 -107.59,108.16 -47.63,59.58 -119.95,135.43 -212.55,213.04 -92.61,77.61 -205.5,156.99 -272.53,167.57 -67.03,10.58 -88.19,-47.62 -67.9,-89.08 20.28,-41.45 82.01,-66.14 130.52,-83.78 48.51,-17.64 83.79,-28.23 132.3,-63.51z"/>
   <path class="fil1 str1" d="M7631.61 14320.33c34.39,41.45 82.02,64.38 107.6,56.96 25.57,-7.43 29.1,-45.21 29.1,-99.01 0,-53.8 -3.53,-123.61 4.41,-181.67 7.93,-58.07 27.34,-104.38 51.15,-104.38 23.81,0 52.04,46.31 65.27,95.93 13.23,49.61 11.46,102.52 10.58,149.27 -0.88,46.74 -0.88,87.31 11.47,109.36 12.34,22.05 37.04,25.57 65.26,-7.94 28.22,-33.51 59.97,-104.07 83.79,-179.91 23.81,-75.85 39.68,-156.99 57.32,-221.37 17.64,-64.39 37.04,-112.01 66.15,-133.18 29.1,-21.17 67.9,-15.87 82.9,14.12 14.99,29.98 6.17,84.66 -27.34,151.69 -33.52,67.03 -91.72,146.4 -127.88,209.9 -36.16,63.5 -50.28,111.13 -58.21,145.53 -7.94,34.39 -9.71,55.55 1.76,67.9 11.47,12.35 36.16,15.88 57.33,6.18 21.17,-9.7 38.8,-32.64 51.15,-61.74 12.35,-29.11 19.4,-64.38 29.11,-90.84 9.7,-26.46 22.04,-44.1 35.27,-47.63 13.23,-3.53 27.34,7.06 34.4,22.05 7.05,14.99 7.05,34.4 4.41,50.28 -2.65,15.87 -7.94,28.21 -14.11,53.79 -6.18,25.58 -13.23,64.38 0.88,70.56 14.11,6.17 49.39,-20.28 104.96,-52.03 55.56,-31.75 131.4,-68.8 206.37,-122.6 74.96,-53.8 149.05,-124.35 209.02,-160.51 59.97,-36.16 105.83,-37.93 142.87,-14.99 37.04,22.93 65.27,70.55 68.8,114.65 3.52,44.1 -17.64,84.67 -74.08,109.37 -56.45,24.69 -148.18,33.5 -211.68,40.56 -63.5,7.05 -98.77,12.35 -138.46,24.7 -39.69,12.34 -83.78,31.75 -120.82,59.97 -37.05,28.22 -67.03,65.26 -69.68,90.84 -2.65,25.57 22.05,39.69 63.5,34.4 41.45,-5.3 99.66,-29.99 146.41,-32.64 46.74,-2.65 82.01,16.76 98.77,45.87 16.76,29.1 14.99,67.9 -6.17,88.19 -21.17,20.28 -61.74,22.05 -93.49,25.58 -31.75,3.52 -54.68,8.82 -82.02,17.64 -27.34,8.82 -59.09,21.16 -78.49,37.4 -19.41,16.24 -26.46,36.36 -14.11,63.7 12.34,27.34 44.09,61.9 84.66,89.76 40.57,27.86 89.96,49.02 141.12,73.45 51.15,24.43 104.06,52.11 155.22,92.68 51.15,40.57 100.54,94.03 117.3,146.33 16.75,52.3 0.88,103.46 -29.11,139.62 -29.99,36.16 -74.08,57.32 -134.93,44.09 -60.86,-13.23 -138.47,-60.85 -193.15,-106.72 -54.68,-45.86 -86.43,-89.95 -116.41,-129.03 -29.99,-39.07 -58.22,-73.12 -82.91,-70.48 -24.7,2.65 -45.86,42 -52.03,88.13 -6.18,46.13 2.64,99.04 24.69,137.84 22.05,38.81 57.32,63.51 75.84,88.2 18.52,24.69 20.29,49.39 2.65,52.03 -17.64,2.65 -54.68,-16.76 -85.55,-37.05 -30.87,-20.28 -55.56,-41.44 -84.66,-48.5 -29.11,-7.05 -62.63,0 -88.2,16.76 -25.58,16.76 -43.22,43.22 -42.34,77.61 0.88,34.4 20.29,76.74 28.23,155.23 7.93,78.49 4.41,193.15 8.82,286.63 4.41,93.49 16.75,165.81 14.11,222.25 -2.65,56.45 -20.29,97.02 -52.04,110.25 -31.75,13.23 -77.61,-0.89 -100.54,-42.36 -22.93,-41.46 -22.93,-110.28 -14.99,-182.6 7.93,-72.32 23.81,-148.14 34.39,-223.09 10.58,-74.95 15.88,-149.04 16.76,-214.3 0.88,-65.26 -2.64,-121.71 -20.28,-153.46 -17.64,-31.75 -49.39,-38.8 -80.26,-21.17 -30.87,17.64 -60.85,59.98 -84.66,122.59 -23.82,62.62 -41.46,145.53 -63.55,191.39 -22.09,45.86 -48.62,54.68 -61.89,44.09 -13.27,-10.58 -13.27,-40.56 -19.69,-91.91 -6.43,-51.35 -19.28,-124.07 -3.32,-184.89 15.95,-60.81 60.71,-109.72 67.14,-152.74 6.42,-43.02 -25.49,-80.14 -49.01,-74.56 -23.52,5.59 -38.64,53.89 -80.97,107.65 -42.33,53.77 -111.86,113 -175.69,177.93 -63.84,64.93 -121.98,135.56 -200.44,194.68 -78.46,59.13 -177.24,106.75 -243.38,119.98 -66.15,13.23 -99.67,-7.93 -100.55,-36.68 -0.88,-28.74 30.87,-65.06 97.02,-103.87 66.14,-38.8 166.69,-80.1 250.93,-133.39 84.24,-53.28 152.17,-118.55 223.57,-208.78 71.4,-90.23 146.26,-205.4 183.69,-262.99 37.43,-57.59 37.43,-57.59 -14.65,-35.96 -52.09,21.64 -156.26,64.91 -235.59,119.86 -79.34,54.95 -133.85,121.57 -208.12,161.27 -74.28,39.71 -168.33,52.49 -191.26,28.68 -22.93,-23.81 25.26,-84.22 96.1,-145.1 70.84,-60.88 164.32,-122.25 254.28,-168.99 89.96,-46.74 176.39,-78.87 106.72,-112.79 -69.68,-33.93 -295.46,-69.66 -418.93,-108.46 -123.48,-38.81 -144.64,-80.7 -114.65,-124.57 29.98,-43.87 111.12,-89.73 174.62,-102.96 63.5,-13.23 109.37,6.18 136.23,5.06 26.86,-1.13 34.73,-22.79 9.15,-53.73 -25.58,-30.95 -84.59,-71.19 -130.86,-101.81 -46.27,-30.63 -79.78,-51.64 -90.84,-81.71 -11.06,-30.08 0.34,-69.23 31.21,-98.33 30.87,-29.11 81.2,-48.17 116.38,-42.71 35.18,5.46 55.19,35.44 94.82,70.79 39.62,35.34 98.85,76.05 138.61,106.55 39.75,30.49 60.04,50.77 75.1,42.4 15.05,-8.38 24.89,-45.41 -3.7,-105.67 -28.59,-60.27 -95.59,-143.77 -140.26,-216.67 -44.68,-72.9 -67.02,-135.21 -67.02,-187.46 0,-52.25 22.34,-94.45 54.67,-83.79 32.32,10.65 74.64,74.15 111.67,137.65 37.03,63.5 68.78,127 95.24,188.74 26.46,61.73 47.62,121.71 82.02,163.16z"/>
   <path class="fil2 str2" d="M8562.6 14035.87c-23.82,-37.49 -67.91,-100.11 -89.96,-154.79 -22.05,-54.68 -22.05,-101.43 -4.41,-138.03 17.64,-36.6 52.91,-63.06 85.99,-63.06 33.07,0 63.94,26.46 83.79,76.73 19.84,50.27 28.65,124.36 32.62,179.48 3.97,55.12 3.09,91.28 24.7,153.9 21.61,62.62 65.7,151.69 103.19,198 37.48,46.3 68.35,49.83 87.31,46.75 18.96,-3.09 26.02,-12.8 35.31,-31.72 9.29,-18.93 20.83,-47.09 24.46,-88.22 3.63,-41.13 -0.64,-95.23 -2.88,-151.27 -2.24,-56.04 -2.44,-114.01 5.08,-150.05 7.51,-36.04 22.74,-50.15 44.79,-35.15 22.05,14.99 50.91,59.08 59.61,115.53 8.7,56.44 -2.77,125.24 -9.82,172.43 -7.06,47.18 -9.7,72.75 3.09,106.27 12.78,33.51 41.01,74.96 75.85,99.66 34.83,24.69 76.28,32.62 110.68,26.45 34.39,-6.17 61.73,-26.46 82.46,-56.44 20.72,-29.99 34.84,-69.67 48.51,-127.88 13.67,-58.21 26.89,-134.94 41.45,-186.53 14.55,-51.6 30.42,-78.06 53.8,-96.58 23.37,-18.52 54.23,-29.11 89.51,-23.37 35.28,5.73 74.97,27.78 96.58,55.56 21.61,27.78 25.13,61.3 21.16,93.93 -3.97,32.63 -15.43,64.38 -41.45,102.75 -26.02,38.36 -66.58,83.34 -99.65,127.44 -33.08,44.1 -58.65,87.31 -71.44,125.68 -12.79,38.36 -12.79,71.88 0,103.63 12.79,31.75 38.36,61.73 67.47,80.25 29.1,18.52 61.73,25.58 103.62,18.08 41.89,-7.5 93.05,-29.54 133.62,-48.5 40.57,-18.97 70.55,-34.84 104.07,-42.34 33.51,-7.5 70.56,-6.61 104.07,7.5 33.51,14.11 63.5,41.45 74.08,65.71 10.58,24.25 1.77,45.41 -23.36,63.94 -25.14,18.52 -66.6,34.39 -116.87,41.89 -50.27,7.5 -109.36,6.61 -157.86,3.97 -48.51,-2.65 -86.44,-7.06 -120.39,-3.97 -33.96,3.08 -63.94,13.67 -81.58,24.18 -17.64,10.51 -22.94,20.95 -21.61,42.56 1.32,21.61 9.26,54.38 30.43,77.39 21.16,23 55.56,36.22 103.19,42.84 47.62,6.61 108.47,6.61 157.86,4.41 49.39,-2.21 87.32,-6.61 117.75,1.77 30.42,8.38 53.35,29.54 65.7,48.21 12.34,18.67 14.11,34.84 -2.65,53.36 -16.76,18.52 -52.03,39.39 -89.51,48.94 -37.49,9.56 -77.17,7.79 -117.74,-0.41 -40.57,-8.19 -82.03,-22.83 -119.51,-30.15 -37.48,-7.31 -71,-7.31 -90.4,5.3 -19.4,12.61 -24.7,37.82 -16.76,62.77 7.94,24.96 29.1,49.66 77.17,67.74 48.07,18.08 123.03,29.54 171.98,50.27 48.95,20.73 71.88,50.71 78.94,69.23 7.05,18.53 -1.76,25.58 -34.39,26.46 -32.64,0.89 -89.08,-4.41 -135.38,-21.17 -46.31,-16.75 -82.47,-44.98 -117.75,-50.71 -35.28,-5.73 -69.67,11.02 -95.69,29.54 -26.02,18.53 -43.65,38.81 -45.85,59.98 -2.21,21.17 11.01,43.22 48.94,74.53 37.92,31.31 100.54,71.87 158.75,115.08 58.21,43.22 112.01,89.09 153.46,134.07 41.45,44.98 70.56,89.07 82.91,126.99 12.34,37.93 7.93,69.68 -11.91,94.81 -19.85,25.14 -55.12,43.67 -97.45,31.76 -42.34,-11.91 -91.73,-54.24 -140.24,-109.81 -48.51,-55.56 -96.13,-124.35 -139.35,-183 -43.22,-58.65 -82.02,-107.15 -119.06,-143.31 -37.05,-36.16 -72.32,-59.98 -108.48,-69.68 -36.16,-9.7 -73.21,-5.29 -96.14,9.7 -22.93,15 -31.74,40.57 -20.71,74.52 11.02,33.96 41.88,76.3 67.9,109.37 26.02,33.07 47.18,56.89 53.36,86.43 6.17,29.55 -2.65,64.82 -34.4,84.66 -31.75,19.85 -86.43,24.26 -110.68,0 -24.26,-24.25 -18.08,-77.16 -20.72,-123.47 -2.65,-46.3 -14.12,-85.99 -29.99,-119.51 -15.88,-33.51 -36.16,-60.85 -66.15,-61.73 -29.99,-0.88 -69.67,24.69 -88.63,89.07 -18.97,64.39 -17.2,167.58 -17.2,269.88 0,102.31 -1.77,203.74 -18.08,269.22 -16.32,65.48 -47.19,95.03 -72.76,98.55 -25.58,3.53 -45.87,-18.95 -46.31,-73.41 -0.44,-54.46 18.97,-140.9 33.96,-223.36 14.99,-82.46 25.58,-160.96 23.38,-222.7 -2.21,-61.73 -17.21,-106.71 -45.43,-139.79 -28.22,-33.07 -69.68,-54.23 -108.48,-56.44 -38.81,-2.2 -74.97,14.56 -95.25,57.77 -20.29,43.22 -24.7,112.9 -48.51,151.26 -23.81,38.36 -67.03,45.42 -108.92,29.54 -41.89,-15.87 -82.46,-54.68 -93.04,-86.43 -10.59,-31.75 8.82,-56.44 43.66,-74.97 34.83,-18.52 85.1,-30.86 119.94,-52.03 34.83,-21.17 54.24,-51.15 61.74,-73.2 7.49,-22.05 3.08,-36.16 -5.3,-50.27 -8.38,-14.11 -20.72,-28.22 -31.3,-43.22 -10.59,-14.99 -19.41,-30.86 -41.46,-32.63 -22.05,-1.76 -57.33,10.58 -82.46,25.57 -25.14,15 -40.13,32.64 -65.13,36.86 -25,4.23 -60,-4.97 -66.26,-27.02 -6.27,-22.04 16.21,-56.95 65.47,-91.16 49.25,-34.21 125.27,-67.72 187.1,-87.57 61.82,-19.84 109.45,-26.02 154.43,-56.01 44.97,-29.98 87.31,-83.77 71.44,-135.8 -15.88,-52.04 -89.97,-102.32 -171.1,-128.77 -81.14,-26.46 -169.34,-29.11 -245.62,-35.35 -76.29,-6.25 -140.68,-16.09 -155.67,-36.82 -14.99,-20.73 19.4,-52.33 60.86,-69.46 41.45,-17.13 89.95,-19.77 133.61,-24.18 43.66,-4.41 82.46,-10.59 114.66,-26.46 32.19,-15.88 57.76,-41.45 39.92,-73.22 -17.84,-31.78 -79.09,-69.74 -139.77,-104.75 -60.69,-35.01 -120.79,-67.06 -158.31,-100.4 -37.52,-33.34 -52.45,-67.96 -42.71,-97.62 9.73,-29.66 44.12,-54.36 68.61,-65.98 24.49,-11.62 39.08,-10.16 72.83,20.11 33.75,30.27 86.66,89.37 129.44,125.09 42.77,35.72 75.4,48.06 104.51,47.18 29.1,-0.88 54.67,-15 71.43,-41.9 16.76,-26.9 24.7,-66.58 16.32,-108.47 -8.38,-41.9 -33.07,-85.99 -47.18,-114.21 -14.12,-28.23 -17.64,-40.57 -41.45,-78.05z"/>
   <path class="fil3 str3" d="M9588.35 14255.35c43.21,14.11 104.94,-4.08 140.22,-33.46 35.28,-29.39 44.1,-69.96 29,-107.43 -15.11,-37.48 -54.15,-71.85 -95.6,-125.15 -41.45,-53.3 -85.32,-125.52 -108.13,-193 -22.82,-67.48 -24.59,-130.21 -8.71,-171.43 15.87,-41.23 49.39,-60.94 83.79,-70.79 34.39,-9.86 69.67,-9.86 92.6,31.37 22.93,41.22 33.52,123.66 38.81,194.37 5.29,70.71 5.29,129.68 31.75,195.33 26.46,65.64 79.37,137.96 125.81,172.36 46.44,34.39 86.41,30.87 106.39,7.94 19.98,-22.93 19.98,-65.27 19.98,-129.15 0,-63.88 0,-149.31 9.12,-192.02 9.12,-42.72 27.37,-42.72 45.31,-42.72 17.94,0 35.58,0 40.87,35.66 5.29,35.66 -1.76,106.97 -5.29,166.45 -3.53,59.47 -3.53,107.09 8.82,154.72 12.34,47.62 37.04,95.25 78.49,122.59 41.45,27.34 99.66,34.39 138.47,32.63 38.8,-1.76 58.21,-12.35 69.68,-42.33 11.46,-29.99 14.98,-79.38 27.44,-160.9 12.46,-81.52 33.85,-195.17 82.36,-251.99 48.5,-56.83 124.13,-56.83 172.52,-35.28 48.4,21.55 69.56,64.64 66.91,120.59 -2.64,55.94 -29.09,124.73 -63.6,182.94 -34.51,58.21 -77.07,105.83 -112.24,155.22 -35.16,49.39 -62.94,100.55 -76.82,142.88 -13.89,42.33 -13.89,75.85 18.63,104.07 32.52,28.22 97.56,51.15 153.89,40.57 56.34,-10.59 103.96,-54.68 144.53,-91.72 40.57,-37.05 74.09,-67.03 119.06,-80.26 44.98,-13.23 101.43,-9.71 138.47,17.63 37.04,27.34 54.68,78.5 44.09,116.42 -10.58,37.92 -49.38,62.62 -105.83,74.09 -56.44,11.46 -130.53,9.69 -186.09,9.69 -55.56,0 -92.6,1.77 -126.12,20.29 -33.51,18.52 -63.49,53.8 -74.96,78.85 -11.46,25.05 -4.41,39.87 31.75,47.28 36.16,7.41 101.43,7.41 164.04,7.41 62.62,0 122.6,0 171.1,0 48.51,0 85.55,0 103.19,28.03 17.64,28.03 15.87,84.09 -6.18,123.56 -22.04,39.46 -64.38,62.34 -126.12,62.34 -61.73,0 -142.87,-22.88 -202.84,-22.88 -59.97,0 -98.78,22.88 -89.08,36.55 9.71,13.67 67.91,18.15 119.06,32.12 51.16,13.98 95.25,37.46 110.24,68.6 15,31.15 0.89,69.95 -40.56,91.12 -41.45,21.17 -110.25,24.69 -163.28,9.7 -53.03,-14.99 -90.29,-48.51 -122.81,-57.33 -32.52,-8.81 -60.3,7.06 -60.3,33.52 0,26.46 27.78,63.5 86.75,118.18 58.98,54.68 149.17,127 219.83,185.21 70.67,58.21 121.83,102.3 144.76,153.45 22.93,51.16 17.64,109.37 -12.35,135.83 -29.98,26.46 -84.66,21.16 -134.93,-13.24 -50.27,-34.39 -96.14,-97.89 -136.82,-156.98 -40.68,-59.09 -76.19,-113.77 -117.64,-162.28 -41.45,-48.5 -88.85,-90.84 -133.71,-122.59 -44.87,-31.75 -87.21,-52.91 -119.84,-54.68 -32.63,-1.76 -55.56,15.88 -68.79,34.4 -13.23,18.52 -16.75,37.93 -1.76,71.44 14.99,33.51 48.51,81.14 73.2,128.76 24.69,47.63 40.57,95.25 25.58,130.53 -15,35.28 -60.86,58.21 -90.84,53.8 -29.99,-4.41 -44.1,-36.16 -51.15,-74.97 -7.06,-38.8 -7.06,-84.67 -15.88,-128.77 -8.82,-44.09 -26.46,-86.43 -54.98,-107.6 -28.53,-21.16 -67.94,-21.16 -87.64,18.53 -19.71,39.69 -19.71,119.06 -27.34,230.18 -7.64,111.13 -22.91,254.01 -41.13,343.96 -18.22,89.96 -39.38,127.01 -66.72,131.42 -27.34,4.41 -60.86,-23.82 -57.33,-102.31 3.53,-78.49 44.1,-207.26 59.98,-315.74 15.87,-108.47 7.05,-196.67 -22.03,-254.52 -29.08,-57.85 -78.41,-85.37 -117.08,-72.89 -38.67,12.49 -66.67,64.97 -100.52,131.6 -33.85,66.64 -73.54,147.43 -108.41,176.05 -34.88,28.63 -64.93,5.09 -76.24,-26.2 -11.31,-31.28 -3.89,-70.32 16.74,-111.43 20.62,-41.1 54.45,-84.29 95.16,-137.59 40.71,-53.3 88.32,-116.73 79.05,-158.78 -9.27,-42.05 -75.41,-62.73 -145.87,-64.61 -70.47,-1.88 -145.27,15.03 -231.25,29.74 -85.98,14.72 -183.15,27.22 -220.13,18.48 -36.99,-8.74 -13.79,-38.72 61.18,-59.89 74.96,-21.17 201.69,-33.51 278.87,-59.09 77.17,-25.58 104.79,-64.38 101.08,-92.42 -3.71,-28.05 -38.74,-45.32 -115.91,-62.96 -77.18,-17.64 -196.5,-35.64 -270.4,-69.33 -73.9,-33.7 -102.4,-83.09 -76.95,-100.37 25.44,-17.29 104.81,-2.47 161.26,4.94 56.44,7.41 89.96,7.41 120.83,-1.76 30.86,-9.18 59.09,-27.53 78.49,-54.5 19.4,-26.98 29.99,-62.58 2.65,-85.51 -27.35,-22.93 -92.61,-33.19 -154.21,-48.02 -61.61,-14.83 -119.54,-34.24 -169.25,-72.16 -49.72,-37.92 -91.22,-94.37 -106.17,-129.47 -14.95,-35.1 -3.37,-48.87 13.45,-66.77 16.82,-17.91 38.86,-39.95 70.44,-43.65 31.57,-3.71 72.68,10.94 120.57,54.42 47.89,43.48 102.57,115.8 154.41,144.71 51.84,28.91 100.85,14.42 124.21,-8.96 23.36,-23.39 21.08,-55.65 -1.04,-98.94 -22.12,-43.29 -64.09,-97.61 -85.17,-139.94 -21.08,-42.34 -21.29,-72.71 -3.38,-79.49 17.9,-6.79 53.92,9.99 84.27,41.6 30.35,31.6 55.05,78.02 98.27,92.13z"/>
   <path class="fil4 str4" d="M10972.6 14089.1c6.62,40.57 26.9,92.61 58.41,123.92 31.52,31.3 74.27,41.89 104.25,14.55 29.99,-27.34 47.21,-92.61 51.85,-179.04 4.65,-86.43 -3.28,-194.03 -5.49,-280.87 -2.2,-86.84 1.32,-152.91 18.96,-197.89 17.64,-44.98 49.39,-68.86 91.72,-68.86 42.34,0 95.25,23.88 117.3,70.63 22.05,46.74 13.24,116.34 -8.81,201.86 -22.05,85.51 -57.33,186.94 -78.5,268.96 -21.16,82.02 -28.22,144.63 -24.69,199.31 3.53,54.68 17.64,101.43 43.21,130.09 25.58,28.66 62.62,39.25 91.28,24.7 28.67,-14.56 48.95,-54.24 65.71,-92.6 16.76,-38.37 29.99,-75.41 33.52,-111.57 3.53,-36.16 -2.65,-71.44 -1.33,-98.34 1.33,-26.9 10.14,-45.42 40.57,-52.47 30.43,-7.06 82.46,-2.65 117.3,16.31 34.84,18.96 52.48,52.48 51.6,80.7 -0.88,28.22 -20.29,51.15 -52.04,72.76 -31.75,21.61 -75.84,41.89 -105.83,67.47 -29.99,25.58 -45.86,56.44 -50.27,90.4 -4.41,33.95 2.64,71 18.07,95.7 15.44,24.69 39.25,37.03 76.73,26.45 37.48,-10.58 88.64,-44.1 157.43,-99.66 68.79,-55.56 155.23,-133.18 218.29,-189.18 63.06,-56 102.74,-90.4 136.25,-108.03 33.52,-17.64 60.86,-18.53 78.5,-10.15 17.64,8.38 25.57,26.02 28.21,45.87 2.65,19.84 0.01,41.88 -27.78,68.78 -27.78,26.9 -80.69,58.65 -146.84,94.37 -66.14,35.72 -145.52,75.41 -195.35,105.4 -49.83,29.98 -70.11,50.27 -90.84,78.49 -20.73,28.22 -41.89,64.38 -64.38,97.46 -22.49,33.07 -46.3,63.05 -48.51,82.9 -2.2,19.84 17.2,29.54 38.36,28.22 21.17,-1.33 44.11,-13.67 61.75,-28.66 17.64,-15 29.98,-32.64 40.56,-45.43 10.59,-12.79 19.41,-20.72 24.26,-18.07 4.85,2.64 5.73,15.87 -7.06,34.39 -12.79,18.52 -39.24,42.34 -73.2,63.07 -33.95,20.72 -75.41,38.35 -82.47,48.5 -7.05,10.14 20.29,12.78 59.98,-2.21 39.69,-14.99 91.72,-47.63 138.46,-69.23 46.75,-21.61 88.2,-32.2 127.44,-33.96 39.25,-1.76 76.3,5.29 105.84,25.58 29.55,20.28 51.59,53.8 60.41,81.73 8.82,27.92 4.42,50.26 -10.14,61.43 -14.55,11.17 -39.24,11.17 -63.06,1.77 -23.81,-9.41 -46.74,-28.22 -76.29,-40.27 -29.54,-12.05 -65.7,-17.35 -99.22,-14.7 -33.51,2.64 -64.37,13.23 -102.3,36.6 -37.92,23.37 -82.9,59.53 -106.72,92.16 -23.81,32.63 -26.45,61.74 -18.96,99.22 7.5,37.48 25.14,83.35 52.04,111.57 26.9,28.22 63.06,38.81 97.45,54.68 34.4,15.88 67.03,37.04 115.09,53.35 48.07,16.32 111.57,27.79 167.13,50.72 55.57,22.93 103.19,57.32 123.03,89.07 19.85,31.75 11.92,60.86 0.01,82.02 -11.91,21.17 -27.78,34.4 -56.01,35.28 -28.22,0.89 -68.79,-10.58 -119.06,-52.47 -50.27,-41.89 -110.24,-114.21 -164.92,-157.87 -54.68,-43.65 -104.07,-58.65 -151.7,-58.21 -47.62,0.44 -93.49,16.32 -124.36,37.48 -30.86,21.17 -46.74,47.63 -52.03,77.17 -5.29,29.55 0,62.18 24.69,97.01 24.7,34.84 68.8,71.89 97.46,98.34 28.67,26.46 41.89,42.34 41.45,60.86 -0.44,18.52 -14.55,39.68 -36.16,45.85 -21.6,6.18 -50.71,-2.63 -76.73,-31.3 -26.01,-28.66 -48.94,-77.17 -68.35,-119.95 -19.4,-42.77 -35.27,-79.81 -54.68,-97.45 -19.4,-17.64 -42.33,-15.87 -68.35,-5.73 -26.01,10.14 -55.12,28.66 -64.82,66.58 -9.7,37.93 0,95.25 8.38,144.64 8.38,49.39 15.43,90.85 26.89,140.24 11.47,49.39 27.35,106.71 37.05,158.3 9.7,51.6 13.23,97.46 6.61,142 -6.61,44.54 -23.37,87.75 -37.04,100.79 -13.67,13.05 -24.26,-4.07 -29.11,-52.58 -4.85,-48.51 -3.96,-128.4 -11.02,-205.83 -7.05,-77.42 -22.05,-152.39 -39.69,-208.39 -17.63,-56 -37.92,-93.05 -64.38,-117.3 -26.45,-24.25 -59.09,-35.72 -80.05,-32.63 -20.96,3.09 -30.25,20.72 -39.95,43.65 -9.7,22.93 -19.82,51.16 -27.96,52.04 -8.14,0.88 -14.32,-25.57 -31.08,-53.36 -16.75,-27.78 -44.09,-56.88 -72.76,-71.44 -28.66,-14.55 -58.64,-14.55 -78.05,-9.7 -19.4,4.85 -28.22,14.56 -57.77,66.15 -29.54,51.6 -79.81,145.08 -114.21,220.04 -34.39,74.97 -52.91,131.42 -78.61,174.19 -25.69,42.77 -58.57,71.88 -89.44,79.81 -30.86,7.94 -59.73,-5.28 -77.24,-29.54 -17.52,-24.25 -23.7,-59.53 -14.44,-92.17 9.26,-32.63 33.96,-62.61 68.36,-99.21 34.39,-36.6 78.48,-79.82 118.43,-136.14 39.95,-56.32 75.76,-125.75 93.4,-174.26 17.64,-48.51 17.11,-76.09 9.35,-98.71 -7.75,-22.61 -22.75,-40.24 -43.92,-49.06 -21.16,-8.82 -48.5,-8.82 -90.84,11.02 -42.33,19.85 -99.65,59.53 -146.39,100.54 -46.75,41.01 -82.91,83.35 -100.11,80.7 -17.2,-2.64 -15.43,-50.27 26.9,-106.72 42.33,-56.44 125.24,-121.7 174.76,-166.65 49.53,-44.95 65.69,-69.57 79.36,-94.27 13.67,-24.69 24.85,-49.45 21.18,-73.49 -3.66,-24.03 -22.18,-47.34 -81.27,-49.1 -59.09,-1.77 -158.75,18.01 -249.15,29.66 -90.4,11.66 -171.54,15.19 -211.67,9.07 -40.13,-6.12 -39.24,-21.89 12.35,-38.2 51.59,-16.32 153.9,-33.19 235.04,-39.41 81.13,-6.23 141.11,-1.82 182.56,-7.06 41.45,-5.24 64.38,-20.14 45.42,-38.66 -18.96,-18.52 -79.82,-40.67 -130.09,-40.67 -50.27,0 -89.95,22.15 -121.7,23.48 -31.75,1.32 -55.57,-18.19 -68.35,-37.05 -12.79,-18.87 -14.56,-37.1 -7.5,-56.94 7.05,-19.85 22.93,-41.3 41.45,-52.91 18.52,-11.61 39.68,-13.38 59.97,-2.65 20.28,10.73 39.69,33.95 68.23,45.56 28.54,11.61 66.23,11.61 95.34,11.61 29.1,0 49.62,0 62.36,-12.32 12.74,-12.33 17.7,-36.97 -4.35,-63.57 -22.05,-26.61 -71.11,-55.17 -137.52,-76.06 -66.42,-20.9 -150.21,-34.13 -199.15,-46.92 -48.95,-12.79 -63.06,-25.13 -48.51,-37.92 14.55,-12.79 57.77,-26.02 100.1,-22.49 42.33,3.53 83.79,23.81 130.53,37.48 46.74,13.67 98.78,20.73 134.36,14.15 35.58,-6.58 54.71,-26.8 51.62,-46.2 -3.08,-19.4 -28.39,-37.99 -71.47,-54.34 -43.07,-16.35 -103.93,-30.47 -164.78,-37.96 -60.86,-7.5 -121.71,-8.38 -173.3,-24.25 -51.6,-15.88 -93.94,-46.75 -108.36,-87.02 -14.42,-40.27 -0.94,-89.95 23.76,-119.93 24.69,-29.99 60.6,-40.29 89.14,-42.35 28.53,-2.06 49.69,4.11 65.94,23.46 16.24,19.34 27.57,51.85 41.24,84.48 13.67,32.63 29.68,65.39 57.54,90.15 27.85,24.75 67.54,41.5 117.81,55.17 50.27,13.67 111.13,24.26 148.17,20.29 37.04,-3.97 50.27,-22.49 44.53,-52.29 -5.73,-29.81 -30.42,-70.9 -75.24,-118.69 -44.81,-47.79 -109.73,-102.29 -154.71,-148.77 -44.98,-46.48 -70.01,-84.96 -66.21,-117.86 3.8,-32.91 36.43,-60.25 82.73,-55.4 46.3,4.85 106.28,41.89 144.2,80.26 37.92,38.36 53.8,78.05 85.55,122.15 31.75,44.1 79.37,92.6 109.36,110.24 29.99,17.64 42.33,4.41 40.12,-21.16 -2.2,-25.58 -18.95,-63.51 -38.36,-101.43 -19.4,-37.92 -41.45,-75.85 -50.71,-106.27 -9.26,-30.43 -5.73,-53.37 22.49,-63.51 28.23,-10.14 81.14,-7.5 104.07,8.38 22.93,15.88 15.88,44.98 22.49,85.55z"/>
   <path class="fil5 str5" d="M12267.57 14133.88c23.22,-5.21 55.76,-20.11 62.77,-56.67 7.02,-36.56 -11.5,-94.77 -22.09,-158.71 -10.58,-63.94 -13.22,-133.62 5.3,-188.74 18.52,-55.12 58.2,-95.69 99.21,-110.24 41.01,-14.55 83.35,-3.09 108.48,14.11 25.14,17.2 33.08,40.13 28.23,71.44 -4.85,31.31 -22.49,70.99 -47.19,113.33 -24.69,42.33 -56.44,87.31 -78.93,121.27 -22.49,33.95 -35.72,56.88 -41.9,84.66 -6.17,27.78 -5.28,60.42 8.83,92.17 14.11,31.75 41.45,62.61 72.76,76.73 31.31,14.11 66.58,11.46 90.83,1.32 24.26,-10.14 37.49,-27.78 49.84,-57.32 12.35,-29.55 23.81,-71.01 34.83,-104.96 11.03,-33.96 21.62,-60.41 48.96,-74.52 27.34,-14.11 71.43,-15.88 94.8,0.88 23.38,16.76 26.02,52.03 9.26,86.87 -16.75,34.84 -52.91,69.23 -84.66,97.46 -31.75,28.22 -59.09,50.26 -74.97,75.84 -15.87,25.58 -20.28,54.68 -12.35,80.7 7.94,26.02 28.23,48.95 59.09,56.89 30.87,7.93 72.33,0.88 123.92,-26.46 51.59,-27.34 113.33,-74.97 169.77,-117.3 56.44,-42.33 107.6,-79.38 149.93,-105.83 42.33,-26.46 75.85,-42.34 107.6,-52.92 31.75,-10.58 61.73,-15.88 84.22,-13.67 22.49,2.2 37.49,11.91 26.02,24.26 -11.46,12.34 -49.39,27.34 -104.51,54.24 -55.12,26.89 -127.44,65.7 -183,102.3 -55.56,36.6 -94.37,70.99 -126.12,97.45 -31.75,26.46 -56.44,44.98 -75.85,67.03 -19.4,22.05 -33.51,47.62 -27.34,70.56 6.18,22.93 32.63,43.21 59.53,48.95 26.9,5.73 54.24,-3.09 76.29,-7.06 22.05,-3.97 38.81,-3.09 52.92,0.44 14.11,3.52 25.58,9.7 8.38,21.61 -17.2,11.9 -63.06,29.54 -87.32,53.8 -24.25,24.25 -26.89,55.12 -23.81,86.87 3.09,31.75 11.91,64.38 31.75,88.23 19.85,23.85 50.71,38.93 111.56,46.47 60.86,7.53 151.7,7.53 213.88,0.44 62.18,-7.1 95.69,-21.29 141.55,-26.62 45.87,-5.33 104.07,-1.81 142.87,23.77 38.81,25.58 58.22,73.2 51.16,112.94 -7.05,39.73 -40.57,71.56 -84.67,81.27 -44.09,9.7 -98.77,-2.74 -148.16,-24.83 -49.39,-22.09 -93.49,-53.85 -138.47,-73.25 -44.98,-19.4 -90.84,-26.46 -147.29,-25.13 -56.44,1.32 -123.46,11.02 -163.15,24.69 -39.69,13.67 -52.03,31.31 -55.56,52.08 -3.53,20.77 1.76,44.67 36.59,75.54 34.84,30.87 99.23,68.7 162.29,98.2 63.06,29.51 124.79,50.67 136.69,77.57 11.91,26.9 -26.01,59.53 -78.49,59.97 -52.48,0.44 -119.5,-31.31 -183.44,-61.74 -63.94,-30.42 -124.8,-59.53 -175.07,-73.64 -50.27,-14.11 -89.96,-13.22 -120.83,12.79 -30.87,26.02 -52.91,77.18 -55.56,120.83 -2.64,43.66 14.11,79.82 58.65,126.56 44.54,46.74 116.86,104.07 166.69,145.08 49.83,41.01 77.17,65.7 90.84,89.95 13.67,24.26 13.67,48.08 -0.44,76.74 -14.11,28.66 -42.34,62.18 -83.79,78.93 -41.45,16.76 -96.13,16.76 -145.08,-25.58 -48.95,-42.33 -92.16,-126.99 -129.65,-198.43 -37.48,-71.44 -69.23,-129.65 -116.38,-162.28 -47.14,-32.63 -109.67,-39.69 -146.77,-24.8 -37.09,14.89 -48.74,51.72 -60.09,113.45 -11.35,61.74 -22.4,148.38 -39.55,215.95 -17.14,67.58 -40.38,116.08 -67.88,138.57 -27.49,22.49 -59.24,18.97 -80.85,-0.88 -21.61,-19.84 -33.07,-56 -18.82,-107.01 14.26,-51 54.24,-116.86 82.36,-168.14 28.12,-51.27 44.38,-87.96 51.73,-125.59 7.35,-37.63 5.79,-76.19 -14.12,-109.97 -19.9,-33.77 -58.16,-62.76 -90.79,-53.06 -32.63,9.7 -59.64,58.1 -88.58,126.39 -28.94,68.29 -59.8,156.49 -96.41,214.69 -36.6,58.21 -78.93,86.44 -108.92,85.11 -29.99,-1.32 -47.62,-32.19 -44.98,-77.61 2.65,-45.42 25.58,-105.4 63.9,-178.95 38.33,-73.55 92.04,-160.68 125.49,-221.98 33.45,-61.29 46.63,-96.75 11.47,-80.46 -35.15,16.29 -118.64,84.33 -167.97,137.24 -49.32,52.92 -64.47,90.72 -94.14,107.99 -29.66,17.28 -73.83,14.04 -103.38,-7.57 -29.54,-21.6 -44.46,-61.58 -38.69,-104.06 5.77,-42.47 32.22,-87.45 56.77,-124.8 24.56,-37.34 47.22,-67.05 58.54,-92.86 11.33,-25.8 11.33,-47.7 -35.28,-57.54 -46.6,-9.84 -139.8,-7.62 -230.95,-1.61 -91.14,6 -180.21,15.79 -226.66,5.79 -46.44,-10.01 -50.24,-39.8 -27.76,-61.61 22.49,-21.81 71.28,-35.63 122.13,-39.73 50.85,-4.11 103.76,1.49 155.79,5.18 52.04,3.68 103.2,5.45 141.12,-8.08 37.93,-13.54 62.62,-42.38 31.75,-73.69 -30.86,-31.31 -117.3,-65.09 -212.11,-86.83 -94.81,-21.75 -197.99,-31.45 -244.82,-47.24 -46.83,-15.79 -37.31,-37.66 1.5,-50.01 38.81,-12.35 106.89,-15.17 162.1,-18.78 55.21,-3.62 97.55,-8.02 140.32,-22.57 42.77,-14.56 85.99,-39.25 83.34,-58.65 -2.65,-19.41 -51.15,-33.52 -90.84,-52.48 -39.69,-18.96 -70.55,-42.78 -71,-60.79 -0.44,-18.02 29.55,-30.24 62.46,-42.03 32.92,-11.8 68.78,-23.18 75.39,-40.88 6.62,-17.7 -16.01,-41.73 -55.76,-66.76 -39.74,-25.04 -96.6,-51.07 -149.08,-71.35 -52.47,-20.29 -100.56,-34.83 -127.25,-57.09 -26.68,-22.26 -31.98,-52.24 -4.64,-73.85 27.34,-21.61 87.32,-34.84 139.35,-22.93 52.04,11.9 96.13,48.95 133.61,82.91 37.49,33.95 68.36,64.81 105.4,92.59 37.04,27.78 80.26,52.48 129.64,72.32 49.39,19.84 104.96,34.84 150.96,35.87 46,1.03 82.44,-11.9 106.25,-36.15 23.82,-24.26 35,-59.83 23.83,-91.29 -11.16,-31.46 -44.67,-58.8 -81.72,-83.93 -37.04,-25.14 -77.61,-48.07 -88.2,-82.02 -10.58,-33.96 8.83,-78.94 31.32,-109.36 22.49,-30.43 48.06,-46.31 76.72,-52.48 28.67,-6.17 60.42,-2.65 82.91,9.7 22.49,12.35 35.72,33.51 37.92,63.94 2.21,30.43 -6.61,70.11 -11.02,109.36 -4.41,39.25 -4.41,78.05 11.91,110.68 16.33,32.62 48.98,59.06 86.02,64.86 37.04,5.79 78.48,-9.05 99.19,-29.32 20.72,-20.28 20.72,-45.99 7.57,-71.71 -13.14,-25.72 -39.44,-51.46 -53.55,-73.07 -14.11,-21.61 -16.03,-39.08 -14.35,-52.67 1.68,-13.59 6.97,-23.29 27.25,-29.02 20.29,-5.74 55.56,-7.5 74.68,19.76 19.12,27.25 22.08,83.54 30.5,113.93 8.42,30.38 22.31,34.86 45.52,29.65z"/>
   <path class="fil6 str6" d="M13195.14 14165.42c34.33,48.57 74.89,89.14 112,108.48 37.11,19.34 70.75,17.44 98.16,5.91 27.41,-11.53 48.57,-32.69 56.51,-59.15 7.94,-26.46 2.64,-58.21 -7.06,-97.9 -9.7,-39.69 -23.81,-87.31 -30.87,-141.11 -7.05,-53.8 -7.05,-113.77 14.11,-176.26 21.17,-62.49 63.51,-127.51 126.12,-143.38 62.62,-15.88 145.53,17.39 165.81,64.89 20.29,47.49 -22.05,109.23 -69.68,160.38 -47.62,51.15 -100.53,91.72 -130.52,127 -29.99,35.28 -37.04,65.26 -36.16,106.72 0.88,41.45 9.7,94.36 29.34,131.41 19.65,37.04 50.13,58.2 65.36,67.91 15.24,9.7 15.24,7.93 35.28,1.76 20.04,-6.17 60.13,-16.76 85.46,-25.58 25.33,-8.82 35.92,-15.87 38.56,-12.34 2.65,3.52 -2.65,17.64 -12.35,39.69 -9.7,22.05 -23.81,52.03 -22.93,74.96 0.88,22.93 16.76,38.81 35.28,44.1 18.52,5.29 39.68,0 55.55,-14.11 15.88,-14.11 26.47,-37.05 31.76,-59.1 5.29,-22.05 5.29,-43.21 7.93,-76.72 2.65,-33.52 7.95,-79.38 23.82,-101.43 15.88,-22.05 42.33,-20.28 65.26,-11.46 22.93,8.82 42.34,24.69 50.27,52.03 7.94,27.34 4.42,66.15 -7.93,104.07 -12.35,37.92 -33.51,74.97 -44.1,104.96 -10.58,29.98 -10.58,52.91 3.53,60.85 14.11,7.93 42.33,0.88 76.72,-15.88 34.4,-16.76 74.97,-43.21 110.25,-60.85 35.28,-17.64 65.26,-26.46 82.9,-16.76 17.64,9.7 22.94,37.93 -2.64,59.1 -25.58,21.16 -82.02,35.27 -126.12,55.56 -44.1,20.28 -75.85,46.74 -97.9,71.44 -22.05,24.69 -34.39,47.62 -40.57,82.04 -6.17,34.42 -6.17,80.33 6.17,103.29 12.35,22.95 37.05,22.95 58.21,22.95 21.17,0 38.81,0 58.21,1.86 19.41,1.86 40.57,5.58 35.28,27.61 -5.29,22.02 -37.04,62.34 -80.26,83.39 -43.21,21.05 -97.89,22.81 -139.34,35.19 -41.45,12.38 -69.68,35.36 -78.5,46.86 -8.82,11.49 1.77,11.49 41.45,25.57 39.69,14.08 108.49,42.25 154.35,84.55 45.86,42.31 68.79,98.75 60.85,136.67 -7.94,37.93 -46.74,57.34 -78.49,41.46 -31.75,-15.87 -56.45,-67.03 -84.67,-100.55 -28.22,-33.51 -59.97,-49.38 -95.25,-57.32 -35.28,-7.94 -74.08,-7.94 -94.37,-2.65 -20.28,5.29 -22.05,15.88 -9.7,44.1 12.35,28.22 38.81,74.09 75.85,121.71 37.04,47.63 84.67,97.01 111.12,141.99 26.46,44.98 31.76,85.55 20.29,118.18 -11.46,32.64 -39.69,57.33 -69.68,48.51 -29.98,-8.81 -61.73,-51.15 -80.25,-97.89 -18.52,-46.74 -23.82,-97.9 -45.63,-154.35 -21.8,-56.44 -60.11,-118.17 -90.98,-150.81 -30.87,-32.63 -54.29,-36.16 -69.53,-16.76 -15.23,19.4 -22.29,61.74 -10.58,112.89 11.71,51.15 42.19,111.13 45.71,158.75 3.53,47.63 -19.89,82.91 -38.66,84.67 -18.76,1.77 -32.87,-29.98 -43.46,-59.97 -10.58,-29.98 -17.63,-58.21 -30.86,-84.67 -13.23,-26.46 -32.63,-51.15 -56.44,-66.15 -23.81,-14.99 -52.04,-20.28 -61.74,-2.64 -9.7,17.64 -0.88,58.21 1.76,104.07 2.65,45.86 -0.88,97.02 -9.7,154.34 -8.82,57.33 -22.93,120.83 -37.92,164.92 -14.99,44.09 -30.87,68.77 -37.04,104.93 -6.17,36.16 -2.65,83.8 -6.18,123.72 -3.52,39.93 -14.11,72.15 -34.4,68.62 -20.28,-3.53 -50.26,-42.8 -49.38,-103.89 0.88,-61.08 32.63,-143.99 62.61,-226.01 29.99,-82.02 58.22,-163.16 63.51,-233.72 5.29,-70.55 -12.35,-130.52 -21.17,-179.03 -8.82,-48.5 -8.82,-85.55 -20.21,-106.72 -11.38,-21.16 -34.16,-26.45 -58.63,-11.11 -24.46,15.35 -50.63,51.33 -69.23,97.19 -18.6,45.86 -29.63,101.6 -41.33,110.95 -11.69,9.35 -24.03,-27.69 -34.26,-62.31 -10.22,-34.62 -18.31,-66.81 11.67,-119.7 29.99,-52.89 98.06,-126.47 104.1,-145.73 6.04,-19.26 -49.95,15.79 -94.66,47.92 -44.7,32.14 -78.12,61.35 -99,98.47 -20.87,37.13 -29.19,82.16 -40.05,124.96 -10.86,42.81 -24.25,83.38 -39.48,108.36 -15.22,24.99 -32.28,34.39 -60.82,33.16 -28.54,-1.23 -68.55,-13.09 -88.25,-39.84 -19.69,-26.75 -19.05,-68.38 -18.74,-94.49 0.32,-26.11 0.32,-36.7 18.84,-53.46 18.52,-16.75 55.56,-39.68 115.01,-81.65 59.45,-41.97 141.32,-102.99 151.54,-150.55 10.22,-47.56 -51.2,-81.66 -133.58,-98.71 -82.38,-17.06 -185.73,-17.06 -276.6,-22.03 -90.86,-4.97 -169.24,-14.92 -185.12,-37.89 -15.87,-22.97 30.76,-58.97 83.18,-76.97 52.43,-18 110.63,-18 175.4,-0.67 64.77,17.33 136.09,51.99 208.41,66.28 72.32,14.29 145.64,8.22 203.32,5.26 57.68,-2.97 99.73,-2.83 120.75,-17.78 21.03,-14.95 21.03,-45.01 -16.5,-68.46 -37.53,-23.46 -112.6,-40.33 -199.77,-48.66 -87.17,-8.34 -186.45,-8.16 -281.07,-11.82 -94.62,-3.66 -184.57,-11.16 -254.17,-21.66 -69.6,-10.51 -118.84,-24.01 -112.67,-35.09 6.18,-11.09 67.76,-19.75 119.72,-24.08 51.96,-4.34 94.3,-4.34 124.28,-4.34 29.99,0 47.63,0 87.31,-7.94 39.69,-7.94 101.43,-23.81 152.14,-50.8 50.72,-26.99 90.42,-65.09 84.18,-126.82 -6.24,-61.74 -58.42,-147.12 -128.42,-219.03 -70,-71.91 -157.82,-130.36 -209.67,-167.52 -51.84,-37.16 -67.72,-53.04 -58.14,-86.43 9.59,-33.39 44.62,-84.31 85.26,-86.51 40.64,-2.21 86.87,44.28 123.91,85.74 37.05,41.45 64.89,77.85 96.75,130 31.87,52.14 67.74,120.02 99.94,175.06 32.2,55.03 60.71,97.21 93,100.28 32.29,3.06 68.36,-33.01 88.19,-69.52 19.84,-36.51 23.46,-73.47 14.68,-111.35 -8.78,-37.89 -29.94,-76.69 -58.6,-106.68 -28.66,-29.99 -64.81,-51.15 -98.33,-74.08 -33.51,-22.93 -64.39,-47.63 -69.83,-72.32 -5.44,-24.7 14.57,-49.39 45.43,-61.74 30.87,-12.35 72.61,-12.35 102.29,5.29 29.69,17.64 47.33,52.92 70.19,98.85 22.87,45.92 50.97,102.5 85.3,151.07z"/>
   <path class="fil7 str7" d="M14230.99 14340.21c22.51,34.83 72.5,51.56 119.54,45.39 47.04,-6.17 91.13,-35.26 109.72,-78.83 18.59,-43.58 11.66,-101.66 1.08,-156.82 -10.58,-55.16 -24.83,-107.4 -24.01,-152.45 0.82,-45.05 16.69,-82.89 60.79,-82.89 44.1,0 116.42,37.84 153.46,86.35 37.04,48.51 38.81,107.67 21.17,152.25 -17.64,44.58 -54.69,74.56 -78.5,112.49 -23.81,37.92 -34.4,83.79 -40.57,122.6 -6.17,38.8 -7.94,70.55 18.52,86.43 26.46,15.87 81.14,15.87 129.64,0 48.51,-15.88 90.85,-47.63 119.07,-80.26 28.22,-32.64 42.34,-66.15 73.2,-90.84 30.87,-24.7 78.5,-40.58 119.95,-31.76 41.45,8.82 76.73,42.34 83.78,77.62 7.06,35.27 -14.1,72.32 -57.32,96.13 -43.22,23.81 -108.48,34.4 -163.17,47.63 -54.68,13.22 -98.77,29.1 -123.47,55.56 -24.69,26.45 -29.98,63.5 -21.16,94.86 8.82,31.35 31.75,57.03 64.38,82.62 32.63,25.59 74.97,51.09 147.29,39.14 72.32,-11.96 174.62,-61.37 271.63,-93.13 97.02,-31.77 188.74,-45.89 256.65,-33.93 67.91,11.95 112.01,49.98 134.06,83.61 22.05,33.62 22.05,62.84 -13.51,62.84 -35.55,0 -106.66,-29.22 -178.98,-43.83 -72.32,-14.62 -145.85,-14.62 -224.07,0 -78.21,14.61 -161.12,43.83 -218.45,78.62 -57.32,34.79 -89.07,75.14 -101.42,107.68 -12.34,32.54 -5.29,57.27 11.47,69.64 16.76,12.36 43.21,12.36 82.9,12.36 39.69,0 92.6,0 141.11,0 48.51,0 92.6,0 115.53,37.02 22.93,37.03 24.7,111.07 17.64,148.97 -7.05,37.91 -22.93,39.68 -49.39,46.73 -26.45,7.06 -63.5,19.4 -97.01,11.46 -33.51,-7.93 -63.5,-36.15 -105.83,-80.23 -42.33,-44.08 -97.02,-104.01 -140.24,-112.83 -43.21,-8.82 -74.96,33.47 -77.61,81.96 -2.64,48.49 23.82,103.17 46.75,141.09 22.93,37.93 42.34,59.09 71.44,74.08 29.1,15 67.91,23.82 101.42,28.23 33.51,4.41 61.74,4.41 96.13,3.53 34.4,-0.88 74.97,-2.65 104.95,47.62 29.99,50.28 49.4,152.58 18.53,192.27 -30.87,39.69 -112.01,16.75 -153.46,-13.24 -41.45,-29.98 -43.22,-67.02 -64.39,-97.89 -21.16,-30.86 -61.73,-55.56 -107.59,-65.26 -45.86,-9.7 -97.02,-4.41 -141.12,13.23 -44.09,17.64 -81.13,47.62 -97.89,93.48 -16.75,45.87 -13.23,107.6 -11.47,167.57 1.77,59.98 1.77,118.18 -8.82,158.75 -10.58,40.57 -31.74,63.5 -56.44,72.32 -24.69,8.82 -52.92,3.53 -75.85,-18.54 -22.93,-22.06 -40.56,-60.9 -37.92,-102.35 2.65,-41.45 25.58,-85.52 32.63,-129.6 7.06,-44.08 -1.76,-88.17 -19.4,-114.63 -17.64,-26.46 -44.09,-35.28 -71.98,-24.7 -27.88,10.59 -57.19,40.57 -86.76,89.06 -29.56,48.49 -59.37,115.49 -59.37,183 0,67.51 29.81,135.54 12.63,196.41 -17.18,60.87 -81.35,114.59 -123.14,80.57 -41.79,-34.01 -61.2,-155.76 -44.02,-260.71 17.18,-104.95 70.95,-193.11 88.58,-257.48 17.64,-64.36 -0.84,-104.93 -25.96,-117.28 -25.12,-12.34 -56.87,3.53 -93.03,40.57 -36.16,37.05 -76.73,95.25 -112.89,141.11 -36.16,45.86 -67.91,79.38 -101.43,80.26 -33.51,0.88 -68.78,-30.87 -62.01,-83.32 6.78,-52.44 55.61,-125.57 88.75,-177.98 33.14,-52.41 50.58,-84.1 49.98,-99.57 -0.6,-15.46 -19.26,-14.71 -75.97,20.94 -56.71,35.66 -151.47,106.21 -234.38,169.11 -82.9,62.91 -153.93,118.15 -200.89,132.16 -46.96,14.01 -69.84,-13.23 -73.37,-40.72 -3.53,-27.48 12.3,-55.22 59.24,-86.22 46.95,-30.99 125.03,-65.25 200.75,-102.02 75.73,-36.77 149.11,-76.05 184.15,-107.29 35.05,-31.23 31.77,-54.41 7.13,-66 -24.63,-11.59 -70.62,-11.59 -117.83,-11.59 -47.21,0 -95.66,0 -141.46,-9.99 -45.8,-9.98 -88.95,-29.95 -98.19,-64.63 -9.23,-34.68 15.47,-84.07 65.44,-92.61 49.97,-8.53 125.22,23.78 197.54,38.17 72.32,14.4 141.71,10.88 192.35,0.96 50.65,-9.91 82.54,-26.22 75.84,-45.38 -6.69,-19.16 -51.99,-41.19 -112.04,-57.42 -60.04,-16.22 -134.83,-26.64 -174.88,-42.16 -40.04,-15.52 -45.34,-36.12 -26.82,-55.7 18.52,-19.58 60.86,-38.14 106.72,-56.56 45.86,-18.43 95.25,-36.74 133.17,-45.89 37.93,-9.15 64.38,-9.15 79.37,-9.15 15,0 18.53,0 7.94,-8.01 -10.59,-8.02 -35.3,-24.05 -117.32,-44.82 -82.02,-20.77 -221.36,-46.27 -306.02,-72.74 -84.66,-26.48 -114.64,-53.92 -75.84,-53.92 38.81,0 146.41,27.44 219.01,34.21 72.61,6.77 110.23,-7.13 136.68,-22.61 26.46,-15.49 41.77,-32.55 51.1,-57.92 9.34,-25.37 12.7,-59.05 18.87,-97.85 6.17,-38.81 15.15,-82.74 3.76,-109.86 -11.39,-27.13 -43.14,-37.45 -82.39,-30.69 -39.25,6.75 -85.99,30.56 -124.23,23.46 -38.24,-7.1 -67.98,-45.12 -85.71,-78.33 -17.72,-33.21 -23.45,-61.61 -23.77,-104.91 -0.32,-43.31 4.76,-101.52 38.81,-130.62 34.05,-29.11 97.06,-29.11 151.28,1.98 54.23,31.08 99.65,93.26 126.26,159.26 26.61,65.99 34.4,135.82 57.18,169.49 22.79,33.67 60.58,31.18 88.65,13.69 28.07,-17.49 46.42,-49.99 45.9,-87.4 -0.52,-37.42 -19.91,-79.76 -19.91,-108.86 0,-29.1 19.39,-44.98 45.39,-50.27 26,-5.29 58.61,0 72.42,29.11 13.82,29.1 8.85,82.01 31.35,116.84z"/>
  </g>
  <path class="fil8 str8" d="M9184.27 14248.95c5.84,-2.84 12.59,-3.55 20.22,-2.13 27.42,2.84 47.05,34.81 58.74,95.91 3,16.7 5.84,82.41 8.84,197.51 2.85,141.73 4.34,272.81 4.34,393.59 0,69.27 -0.3,115.8 -0.9,139.25l-1.65 68.91 17.53 -4.26c5.85,-1.42 31.92,-3.55 78.07,-6.39l32.51 0c62.03,0 101.88,10.65 119.41,31.26 5.84,7.1 12.14,19.89 18.88,38.72 6.74,18.47 11.24,34.81 13.63,48.66 2.25,15.28 3.45,32.68 3.45,52.22 0,66.43 -11.98,114.39 -35.96,143.51 -8.84,11.02 -18.13,16.7 -28.02,16.7 -10.63,0 -23.22,-2.84 -37.75,-8.17 -25.77,-8.53 -64.73,-12.79 -116.87,-12.79 -42.1,0 -74.31,3.55 -96.49,10.66 -16.48,5.33 -30.71,8.17 -43,8.17 -14.68,0 -27.87,-9.59 -39.55,-29.13 -6.45,-9.59 -12.59,-27.71 -18.43,-53.99 -4.65,-25.23 -7.04,-47.96 -7.04,-68.92 0,-17.76 1.49,-49.73 4.34,-95.56 5.85,-90.22 8.84,-176.9 8.84,-260.38 0,-72.11 -2.39,-170.51 -7.04,-295.55 -3.45,-96.98 -5.25,-169.09 -5.25,-216.33 0,-56.84 1.5,-91.65 4.35,-104.08 10.49,-42.99 25.47,-72.12 44.8,-87.39z"/>
  <path class="fil9 str8" d="M9223.82 14286.25c-7.04,-6.75 -14.98,-10.3 -23.67,-10.3 -7.04,0 -14.08,2.84 -21.13,8.52 -12.28,12.44 -21.42,33.75 -27.26,64.3 -4.05,19.54 -6.15,40.85 -6.15,64.65 0,6.75 0.3,10.3 0.9,10.3l0.9 0c1.8,-2.84 2.55,-6.04 2.55,-10.3 0,-7.1 2.85,-17.76 8.39,-32.33 5.54,-14.56 11.23,-25.22 17.08,-32.32 7.64,-9.59 16.18,-14.57 25.47,-14.57 23.52,0 40.15,24.52 50.04,72.83l6.15 26.99 -0.75 -30.9c-1.8,-57.19 -12.74,-95.91 -32.52,-116.87z"/>
  <path class="fil8 str8" d="M9258.88 14565.46c0,5.33 0,9.59 0,12.43l0.9 -18.83 0 -2.13c-0.6,1.42 -0.9,4.27 -0.9,8.53z"/>
  <path class="fil8 str8" d="M9261.58 14648.58c0,4.26 0,6.75 0,8.17l0.75 -16.69c-0.45,1.42 -0.75,4.26 -0.75,8.52z"/>
  <path class="fil8 str8" d="M9157 15102.21c0,9.94 0.3,14.56 0.9,14.56l0 -26.99c-0.6,2.84 -0.9,7.1 -0.9,12.43z"/>
  <path class="fil8 str8" d="M9153.55 15235.42c1.8,-30.55 2.7,-55.42 2.7,-74.95l0 -10.31c-3,0 -6.29,50.09 -9.74,149.91l0 16.7 0 4.26c0.6,0 3,-28.77 7.04,-85.61z"/>
  <path class="fil9 str8" d="M9474.04 15166.86c-18.13,-5.68 -45.7,-8.17 -82.56,-8.17 -45.1,0 -83.15,3.91 -114.17,12.43l-14.98 3.91c0,5.68 -0.15,14.92 -0.75,28.06 -0.6,13.5 -0.9,23.45 -0.9,30.2l15.73 -3.91c37.46,-8.53 75.22,-12.43 113.27,-12.43 52.74,0 91.4,6.75 115.97,20.6 14.53,9.59 25.32,30.55 32.36,62.52l5.25 22.74 0 -27c0,-26.29 -3.6,-50.44 -10.94,-72.82 -7.34,-22.03 -16.78,-36.59 -28.47,-43.7 -2.4,-1.42 -12.28,-5.68 -29.81,-12.43z"/>
  <path class="fil8 str8" d="M8756.81 14309.34c28.62,-47.25 58.73,-70.69 90.34,-70.69 4.8,0 11.69,1.42 21.13,3.91 38.06,13.85 70.87,52.21 98.29,114.73 18.13,41.57 33.41,92.01 45.69,151.69 25.77,122.2 41.81,309.05 48.25,560.19 1.8,63.59 2.7,116.52 2.7,158.08 0,88.81 -6.44,148.48 -19.33,179.03 -14.09,33.04 -30.42,49.74 -49.15,49.74 -28.76,0 -49.14,-30.55 -61.57,-91.3 -3.45,-18.11 -5.25,-40.49 -5.25,-66.78l0 -56.13 0.9 -91.65 -157.17 0 0.9 91.65 0 45.83c0,31.97 -1.5,55.41 -4.34,70.69 -5.85,31.97 -14.99,57.55 -27.28,77.08 -5.84,8.17 -8.98,13.15 -9.58,14.57 -2.4,8.17 -11.69,12.43 -28.17,12.43 -4.65,0 -7.79,-0.71 -9.59,-2.13 -24.57,-12.43 -41.5,-47.25 -50.94,-104.08 -4.05,-24.87 -6.14,-84.55 -6.14,-179.04 0,-120.78 3.29,-236.58 9.73,-347.41 9.29,-148.49 25.32,-269.26 48.25,-362.33 15.13,-61.1 35.96,-113.68 62.33,-158.08z"/>
  <path class="fil9 str8" d="M8938.55 14340.6c-28.17,-47.25 -58.28,-70.69 -90.5,-70.69 -9.29,0 -19.32,1.77 -29.81,6.04 -8.24,2.84 -19.93,13.5 -35.06,32.32 -15.28,18.83 -26.97,36.24 -35.21,52.93 -40.31,80.64 -68.17,209.59 -83.31,387.2 -8.23,91.65 -12.43,163.05 -12.43,214.56 0,12.43 0.6,11.72 1.8,-2.13 0.59,-5.69 1.49,-19.54 2.69,-41.56 11.09,-190.05 32.22,-333.21 63.23,-428.76 34.46,-108.35 77.46,-162.34 129,-162.34 9.29,0 20.53,3.19 33.41,10.3 91.25,55.41 145.34,267.13 162.42,634.79l0.75 2.13c0,-5.68 0,-9.59 0,-12.43 0,-48.67 -4.05,-120.07 -12.29,-214.56 -16.93,-197.15 -48.54,-332.85 -94.69,-407.8z"/>
  <path class="fil10 str8" d="M8870.08 14571.5c-4.8,-6.75 -11.54,-10.3 -20.23,-10.3 -7.04,0 -12.28,2.13 -15.88,6.03 -17.53,19.54 -32.06,84.19 -43.9,193.6 -3.45,39.08 -5.24,60.39 -5.24,64.66 0,4.26 21.72,6.39 65.02,6.39 43.9,0 65.78,-2.13 65.78,-6.39 0,-30.55 -5.25,-78.51 -15.74,-143.52 -10.03,-58.25 -19.92,-95.2 -29.81,-110.47z"/>
  <path class="fil9 str8" d="M8772.54 14858.88c-1.65,12.43 -2.55,28.42 -2.55,47.6l0 12.79 79.86 0 35.96 0c19.93,0 32.36,-0.71 37.31,-2.14 4.94,-1.42 7.49,-6.39 7.49,-14.56 0,-1.42 -0.6,-9.24 -1.8,-23.09l-0.9 -20.6 -155.37 0z"/>
  <polygon class="fil8 str8" points="8651.48,15035.78 8651.48,15006.65 8650.58,15023.35 8651.48,15037.91 "/>
  <path class="fil8 str8" d="M9047.33 15039.69c1.19,-9.59 1.19,-18.47 0,-27 -0.6,5.68 -0.91,11.37 -0.91,16.7l0.91 14.56 0 -4.26z"/>
  <path class="fil8 str8" d="M8063.25 14338.47c5.25,-27.71 13.64,-50.09 25.02,-66.79 11.39,-16.34 23.83,-24.86 37.31,-24.86 11.69,0 22.17,5.68 31.61,16.69 18.14,19.54 39.41,60.04 64.13,121.85 24.57,61.81 76.56,204.25 156.12,427.69 29.97,84.55 46.3,126.82 49.3,126.82l0.75 -2.13 0 -22.74c0,-61.1 -0.3,-113.67 -0.75,-158.07 -0.6,-114.03 -2.7,-202.13 -6.14,-264.29 -1.81,-37.66 -2.7,-69.63 -2.7,-95.92l0 -16.69c4.04,-59.68 16.93,-100.53 38.65,-122.91 6.45,-6.75 16.03,-10.3 28.92,-10.3 25.77,0 45.69,29.84 59.78,89.52 5.25,24.86 9.89,97.33 13.93,217.4 4.2,120.06 6.15,241.2 6.15,363.39 0,78.87 -0.6,133.93 -1.65,164.48 -4.2,147.06 -9.74,240.48 -16.78,280.98 -5.84,40.14 -17.53,69.27 -35.06,87.39 -6.45,6.75 -12.89,10.3 -19.33,10.3l-12.28 0c-14.09,-1.42 -24.28,-6.04 -30.72,-14.57 -26.37,-30.55 -77.31,-152.03 -152.83,-364.1 -9.88,-27.71 -24.87,-69.27 -44.65,-123.98 -19.92,-54.7 -31.91,-88.45 -36.1,-100.88l-34.16 -95.92 -0.9 33.4c-1.2,19.53 -1.8,58.25 -1.8,116.51 0,112.61 2.7,211.72 7.94,297.68 2.4,34.81 3.45,66.07 3.45,93.78 0,45.83 -5.85,83.13 -17.53,112.25 -12.89,31.97 -28.32,47.96 -46.45,47.96 -15.28,0 -29.22,-10.3 -41.8,-31.26 -12.59,-20.6 -20.83,-47.25 -25.02,-79.22 -5.25,-42.98 -10.19,-135.69 -14.84,-278.85 -1.2,-58.26 -1.79,-109.41 -1.79,-153.81 0,-119.36 2.09,-239.43 6.14,-360.21 4.05,-120.77 8.84,-194.31 14.08,-220.59z"/>
  <path class="fil9 str8" d="M8144.01 14282.34c-6.44,-4.26 -12.89,-6.39 -19.33,-6.39 -22.17,0 -38.35,22.38 -48.24,66.78 -6.45,27.71 -11.24,96.27 -14.09,206.03l0 16.7 0 3.91c1.2,-11.02 2.4,-29.13 3.45,-54 3,-50.09 5.24,-82.06 6.59,-95.91 1.5,-13.85 4.95,-27 10.19,-39.43 11.09,-30.55 25.47,-45.83 43,-45.83 11.69,0 23.08,7.82 34.16,23.09 26.37,37.3 85.26,184.37 176.5,441.2 38.06,107.99 65.32,185.07 81.66,230.9l20.22 52.22 0 -31.26c0.6,-20.96 0,-32.69 -1.8,-35.53 -4.64,-8.17 -41.5,-109.41 -110.57,-303.72 -54.54,-152.75 -94.84,-260.03 -121.21,-321.83 -26.37,-61.46 -46.44,-97.34 -60.53,-106.93z"/>
  <path class="fil9 str8" d="M8535.51 14355.16c-4.05,-22.38 -10.64,-41.2 -19.77,-57.19 -9,-15.98 -19.48,-24.15 -31.17,-24.15 -8.09,0 -16.33,4.97 -24.57,14.56 -19.93,22.38 -29.82,60.39 -29.82,114.74l0 24.87 6.14 -24.87c11.09,-47.25 27.28,-71.05 48.25,-71.05 15.28,0 28.77,14.57 40.45,43.7 5.85,13.85 9.59,28.06 11.39,42.62 1.8,14.57 3.75,44.05 6.14,88.46l4.35 58.61c0,-2.84 0,-5.69 0,-8.53 0,-18.11 -1.2,-51.86 -3.45,-101.95 -3.59,-56.83 -6.14,-90.23 -7.94,-99.82z"/>
  <path class="fil8 str8" d="M8547.8 14613.06c0,9.95 0.3,14.56 0.9,14.56l0 -26.99c-0.6,2.84 -0.9,7.1 -0.9,12.43z"/>
  <polygon class="fil8 str8" points="8060.56,14634.02 8060.56,14604.89 8059.66,14621.58 8060.56,14636.15 "/>
  <path class="fil8 str8" d="M8550.5 14684.1c0,9.6 0.29,14.57 0.89,14.57l0 -27.35c-0.6,2.84 -0.89,7.1 -0.89,12.78z"/>
  <path class="fil8 str8" d="M8057.11 14694.41c0,9.59 0.3,14.56 0.9,14.56l0 -27c-0.6,2.49 -0.9,6.75 -0.9,12.44z"/>
  <path class="fil8 str8" d="M8167.68 15085.51c0,9.95 0.3,14.57 0.9,14.57l0 -27c-0.6,2.84 -0.9,7.1 -0.9,12.43z"/>
  <path class="fil8 str8" d="M8177.42 15279.11c-3.6,-90.23 -5.99,-135.34 -7.04,-135.34 -0.6,1.42 -0.9,2.84 -0.9,4.26 0,13.86 1.35,45.12 3.9,93.78 2.69,48.67 4.19,73.54 4.79,74.96l0 -24.87 -0.75 -12.79z"/>
  <path class="fil8 str8" d="M7548.89 14396.72c47.35,-102.66 104.13,-154.16 170.21,-154.16 28.17,0 55.88,11.36 83.45,33.39 44.5,34.81 81.06,95.2 109.68,181.16 28.76,85.97 46.59,186.5 53.64,301.95 1.19,16.34 1.64,47.6 1.64,93.42 0,45.83 -0.45,77.09 -1.64,93.78 -7.65,126.11 -28.17,234.1 -61.43,323.62 -33.42,89.51 -75.22,148.13 -125.56,175.83 -20.53,11.02 -39.86,16.7 -57.98,16.7 -50.35,0 -96.94,-31.97 -139.64,-95.91 -57.84,-87.39 -93.65,-219.18 -107.13,-395.37 -2.25,-38.72 -3.45,-77.09 -3.45,-114.38 0,-40.15 1.2,-79.93 3.45,-118.65 10.64,-142.8 35.51,-256.83 74.76,-341.38z"/>
  <path class="fil9 str8" d="M7781.43 14290.51c-17.53,-11.01 -41.2,-16.69 -71.02,-16.69 -8.24,0 -17.68,1.42 -28.17,4.26 -52.14,19.54 -95.89,72.11 -131.25,158.08 -35.36,85.96 -57.23,192.17 -65.33,318.64 -2.39,47.24 -3.59,72.11 -3.59,74.95l0.9 6.04 2.69 -29.13c10.49,-134.63 35.37,-245.46 74.62,-332.85 39.11,-87.39 88.1,-133.92 146.53,-139.61l13.19 0c39.85,0 76.11,19.54 108.92,58.26 66.68,80.64 107.88,217.4 123.76,410.29l4.35 51.86 -1.8 -39.43c-4.05,-133.21 -21.28,-246.52 -51.7,-339.24 -30.41,-93.07 -71.16,-154.88 -122.1,-185.43z"/>
  <path class="fil11 str8" d="M7757.76 14575.76c-11.69,-7.1 -26.37,-10.3 -43.9,-10.3 -8.84,0 -14.99,0.71 -18.44,1.77 -27.56,11.37 -49.29,43.34 -65.32,95.92 -16.18,52.57 -24.27,115.8 -24.27,189.33 0,88.81 11.68,161.63 35.21,218.47 9.89,23.8 19.63,39.78 28.91,47.95 15.29,13.86 32.22,20.96 50.95,20.96 23.97,0 44.19,-11.72 60.53,-35.52 22.92,-34.81 38.65,-90.94 47.49,-168.38 2.25,-28.06 3.45,-55.77 3.45,-83.48 0,-27.7 -1.2,-55.41 -3.45,-83.12 -5.24,-48.67 -14.23,-90.23 -26.81,-125.04 -12.59,-34.46 -27.42,-57.55 -44.35,-68.56z"/>
  <path class="fil9 str8" d="M7658.57 15137.73c-14.09,-15.27 -26.67,-41.21 -37.76,-78.15 -11.09,-36.59 -19.03,-76.73 -23.67,-119.71l-4.35 -41.56 0.75 41.56c1.2,54.35 7.94,105.5 20.23,154.17 12.28,48.66 27.27,83.12 44.8,104.08 18.13,19.18 38.95,29.13 62.33,29.13 10.49,0 20.82,-2.13 30.71,-6.4 26.37,-13.85 47.8,-46.53 64.58,-97.68 16.63,-51.51 26.07,-113.68 28.46,-187.21l1.8 -37.65 -5.24 43.69c-14.68,122.2 -44.5,195.02 -89.6,218.47 -9.89,4.26 -20.22,6.39 -30.71,6.39 -23.38,0 -44.2,-9.59 -62.33,-29.13z"/>
  <path class="fil8 str8" d="M7174.02 14251.08l4.35 -2.13c3.59,0 6.74,0 9.74,0 2.25,0 5.99,0.36 10.93,1.07 4.95,0.71 8.84,1.06 11.84,1.06 22.18,1.42 54.69,13.86 97.39,37.3 3.6,1.42 11.69,8.53 24.57,20.96 12.89,12.43 22.33,22.73 28.17,31.26 14.68,20.6 24.57,44.4 29.81,70.69 3.6,16.7 5.25,40.14 5.25,70.69 0,29.13 -1.65,52.22 -5.25,68.91 -7.64,35.88 -20.22,64.3 -37.75,85.26 -8.24,9.59 -15.43,14.56 -21.88,14.56 -8.84,0 -20.53,-7.81 -35.21,-23.09 -29.81,-30.55 -61.43,-45.82 -94.84,-45.82 -26.22,0 -47.94,9.95 -64.87,29.13l15.73 23.09c4.79,6.75 23.22,26.99 55.43,60.39 62.48,63.94 107.28,126.1 134.25,187.2 34.01,73.53 50.94,154.17 50.94,241.56 0,13.85 -1.2,33.39 -3.59,58.25 -9.3,85.97 -32.07,154.53 -68.02,204.97 -35.97,50.8 -79.72,76.02 -131.25,76.02 -47.95,0 -90.5,-23.45 -127.66,-70.69 -37.16,-47.25 -64.57,-111.9 -82.1,-193.6 -4.65,-22.38 -7.05,-47.25 -7.05,-74.95 0,-45.83 6.14,-82.42 18.43,-109.41 12.29,-27 27.27,-41.92 44.8,-44.76l7.04 0c22.78,0 40.91,24.51 54.39,72.82 5.84,22.38 11.39,38.36 16.63,47.96 19.93,34.81 46,52.21 78.21,52.21 11.09,0 19.33,-1.42 24.57,-4.26 20.53,-8.52 30.72,-16.69 30.72,-24.86 0,-18.12 -31.61,-59.68 -94.84,-125.05 -39.26,-38.71 -70.27,-78.5 -93.05,-118.64 -43.3,-76.38 -64.87,-168.02 -64.87,-274.59 0,-15.28 0.15,-26.64 0.74,-33.39 2.4,-39.08 9,-77.8 19.78,-116.52 10.79,-39.07 24.13,-71.04 40.01,-95.91 29.81,-47.25 69.37,-79.57 118.51,-97.69z"/>
  <path class="fil9 str8" d="M7267.06 14294.77c-18.72,-9.59 -40.9,-14.56 -66.67,-14.56 -22.32,0 -40.15,3.55 -53.64,10.3 -39.7,20.96 -72.36,56.84 -97.83,108.35 -25.48,51.15 -38.81,108.34 -40.01,170.51l0 29.12c0.6,-1.42 1.5,-5.32 2.7,-12.43 13.48,-83.12 38.95,-146.35 76.41,-189.34 33.26,-38.71 71.62,-58.25 114.92,-58.25 34.01,0 65.33,11.01 93.94,33.39 3.6,2.49 7.19,5.33 10.94,8.17 3.89,2.84 6.89,4.97 9.29,6.39l3.44 2.13c3.6,-2.84 16.48,11.73 38.66,43.7 6.44,8.17 12.29,22.02 17.53,41.56l7.04 22.73 0 -24.86c0,-47.25 -13.48,-86.68 -40.3,-118.65 -13.49,-16.69 -38.96,-36.23 -76.42,-58.26z"/>
  <path class="fil9 str8" d="M7152.9 14665.28c-12.89,-16.7 -20.23,-25.22 -21.88,-25.22 -0.6,0 -1.8,1.77 -3.59,5.32 -1.65,3.56 -3.6,7.46 -5.7,11.37 -1.95,4.26 -3.29,7.11 -3.89,8.53l9.59 20.6c13.48,29.13 40.75,63.23 81.65,102.31 90.8,88.8 145.49,191.46 164.21,307.98l5.25 35.17 0.9 -24.87c0,-66.78 -14.69,-133.21 -43.9,-199.99 -26.37,-62.17 -69.97,-123.27 -130.8,-182.94 -18.73,-19.54 -35.96,-39.08 -51.84,-58.26z"/>
  <path class="fil9 str8" d="M6985.24 15145.9c0.6,-1.42 2.85,-8.17 6.59,-20.6 3.75,-12.43 6.14,-20.25 7.04,-23.09 0.9,-2.84 3,-8.17 6.59,-16.7 3.45,-8.17 6.75,-13.85 9.6,-16.34 2.99,-2.84 6.74,-5.68 11.38,-8.52 4.79,-2.85 10.04,-4.27 15.88,-4.27 18.73,0 32.82,16.7 42.11,50.09 17.52,62.52 42.7,101.24 75.51,116.52 9.89,4.26 20.82,6.39 32.51,6.39 19.33,0 34.76,-4.97 46.45,-14.56 16.48,-12.44 24.72,-25.23 24.72,-37.66 0,-6.75 -1.8,-14.56 -5.4,-22.73 -3.44,-8.53 -8.68,-9.24 -15.72,-2.13 -15.29,12.43 -31.32,18.82 -48.25,18.82 -18.73,0 -36.11,-6.39 -51.84,-18.82 -14.09,-9.6 -25.02,-22.03 -32.96,-36.59 -7.94,-14.57 -16.18,-36.95 -25.02,-67.5 -4.05,-13.85 -8.99,-25.57 -14.84,-35.52 -8.24,-12.43 -18.73,-18.47 -31.61,-18.47 -3,0 -6.75,1.06 -11.54,3.91 -12.28,9.94 -22.17,25.93 -29.81,47.95 -7.65,22.38 -11.39,46.54 -11.39,72.82l0 27z"/>
  <path class="fil8 str8" d="M6507.74 14259.25l14.08 -16.69 78.06 0c64.43,0 110.87,8.52 139.64,25.22 73.72,44.4 121.66,132.5 143.99,264.29 4.64,29.13 7.04,64.29 7.04,106.21 0,41.56 -1.8,74.95 -5.25,99.82 -7.04,48.67 -18.72,92.36 -35.21,131.08 -5.24,12.43 -7.94,20.25 -7.94,23.09 0,2.49 2.4,12.43 7.04,29.13 12.89,46.89 23.23,104.43 30.72,172.64 14.09,126.1 21.13,198.22 21.13,216.33 0,40.5 -7.34,75.67 -21.88,106.22 -14.68,30.55 -31.16,45.82 -49.29,45.82 -5.24,0 -8.99,-0.71 -11.39,-2.13 -17.53,-9.59 -30.71,-29.13 -39.4,-58.26 -8.84,-27.71 -18.28,-95.2 -28.17,-201.77 -6.44,-68.2 -14.69,-114.03 -24.57,-137.47 -10.49,-24.87 -35.66,-37.3 -75.52,-37.3l-18.42 0 -27.27 1.78 -0.75 158.43c-0.6,106.57 -2.7,169.09 -6.3,187.2 -11.68,59.68 -31.76,89.52 -60.53,89.52 -28.61,0 -49.14,-28.42 -61.43,-85.25l-6.14 -27 0 -493.41c0,-328.95 1.5,-501.59 4.34,-518.28 7.05,-34.81 18.13,-61.1 33.42,-79.22z"/>
  <path class="fil9 str8" d="M6713.15 14282.34c-9.89,-5.68 -43.9,-9.23 -101.88,-10.66l-42.1 0c-25.77,0 -42.41,2.85 -50.05,8.53 -11.08,9.59 -20.07,24.87 -26.82,45.82 -6.59,20.61 -10.03,44.41 -10.03,70.69l0 24.87c12.88,-42.98 23.07,-69.27 30.71,-78.86 5.84,-7.1 37.16,-10.66 93.94,-10.66 59.18,0 94.55,2.85 106.23,8.53 87.2,38.72 140.99,132.5 161.52,280.98l5.24 29.13c0.6,0 0.9,-4.26 0.9,-12.43 0,-37.65 -4.65,-79.93 -14.09,-127.17 -4.64,-23.45 -14.23,-52.58 -28.91,-87.39 -14.09,-33.39 -28.62,-58.97 -43.9,-77.08 -26.97,-31.97 -53.79,-53.29 -80.76,-64.3z"/>
  <path class="fil12 str8" d="M6724.54 14590.32c-18.13,-16.69 -45.55,-24.86 -82.56,-24.86l-37.6 0 0 141.38 44.65 -4.26c31.01,-2.85 51.24,-6.75 60.68,-12.44 8.09,-4.26 17.97,-11.72 29.36,-22.73 11.39,-11.37 17.08,-19.54 17.08,-25.22 0,-3.91 -3.44,-12.44 -10.49,-24.87 -7.04,-12.43 -14.08,-21.67 -21.12,-27z"/>
  <path class="fil9 str8" d="M6767.54 14690.14c-1.65,-9.59 -3.75,-14.56 -6.14,-14.56 -2.25,0 -7.05,4.26 -13.94,12.43 -24.12,29.13 -62.03,43.7 -114.17,43.7l-42.1 0 0 58.25 43.9 0c55.59,0 94.99,-16.69 118.52,-49.73 10.48,-15.27 15.73,-27 15.73,-35.52 0,-1.42 -0.6,-6.04 -1.8,-14.57z"/>
  <path class="fil9 str8" d="M6850.09 14983.56c-7.64,-35.88 -12.88,-53.99 -15.73,-53.99 -1.8,0 -3.59,2.13 -5.24,6.39 -0.6,1.07 -1.5,3.2 -2.7,6.04 -1.79,2.84 -2.7,4.97 -2.7,6.39l0.91 3.91c1.19,2.84 2.54,6.4 4.04,10.66 1.35,3.91 2.7,7.46 3.89,10.3 18.14,51.51 33.12,141.38 44.8,270.68 4.65,49.74 7.94,74.96 9.59,74.96 0.6,0 0.9,-5.69 0.9,-16.7 0,-5.68 -0.9,-18.83 -2.55,-39.78 -0.6,-2.49 -1.34,-8.17 -2.25,-16.34 -0.89,-8.53 -1.79,-19.19 -2.69,-32.33 -0.9,-13.14 -1.8,-24.16 -3,-32.33 -7.04,-79.21 -16.18,-144.93 -27.27,-197.86z"/>
  <path class="fil8 str8" d="M6236.55 14244.69c10.49,-1.42 32.96,-2.13 67.57,-2.13 26.37,1.42 42.4,5.68 48.25,12.78 26.97,33.04 40.45,81.71 40.45,145.65 0,40.14 -6.15,76.73 -18.43,110.12 -8.84,22.38 -17.53,35.88 -25.92,40.49 -8.54,4.98 -27.42,8.89 -56.64,11.73 -69.67,5.33 -117.46,23.44 -143.08,53.99 -8.24,11.01 -15.73,24.16 -22.47,39.43 -6.75,15.28 -10.04,28.07 -10.04,37.66 0,2.84 0.6,5.32 1.79,8.17 1.05,1.42 26.82,2.13 77.16,2.13l39.56 0c23.97,0 39.25,3.55 45.7,10.3 26.82,29.13 40.3,77.79 40.3,146l0 10.3c-0.6,38.72 -7.64,74.95 -21.12,108.34 -8.1,20.61 -17.24,33.04 -27.12,37.3 -10.04,4.27 -36.56,6.4 -79.86,6.4l-75.51 0c7.04,29.13 17.82,51.86 32.51,68.56 20.97,23.44 63.67,38.72 128.1,45.82 45.7,4.26 71.92,10.3 78.96,18.83 21.12,27.71 33.41,70.69 36.86,128.95 0.6,5.68 0.89,13.85 0.89,24.86 0,62.52 -13.78,108.35 -41.19,137.48 -8.85,9.59 -28.77,14.56 -59.79,14.56 -8.69,0 -27.12,-1.42 -55.28,-4.26 -42.71,-5.33 -76.12,-16.7 -100.09,-33.04 -48.54,-31.97 -87.2,-92 -115.82,-180.1 -28.77,-88.1 -45.4,-198.93 -50.04,-332.14 -0.6,-13.85 -0.9,-35.52 -0.9,-64.65 0,-171.93 22.17,-312.6 66.68,-422.37 44.49,-106.92 110.72,-167.31 198.52,-181.16z"/>
  <path class="fil9 str8" d="M6349.67 14284.47c-7.49,-8.52 -27.42,-12.79 -59.63,-12.79 -65.03,2.85 -117.47,19.19 -157.62,49.03 -40.01,29.84 -72.67,82.41 -97.84,157.01 -25.77,79.21 -41.8,170.15 -48.25,272.81 -1.19,18.12 -1.79,37.66 -1.79,58.26l0 8.53c0.6,0 1.79,-9.24 3.44,-27.36 10.04,-141.38 36.11,-251.14 78.21,-328.58 25.77,-47.25 55.89,-81 90.35,-101.24 34.61,-19.9 79.71,-30.2 135.29,-30.2 32.22,0 50.65,2.84 55.29,8.53 5.25,5.68 10.79,14.56 16.63,26.99 5.85,12.44 9.74,24.16 11.39,35.53 1.8,11.01 3.3,16.69 4.49,16.69 1.05,0 1.65,-3.55 1.65,-10.65 0,-11.02 -0.75,-24.87 -2.54,-41.57 -4.65,-38.72 -14.39,-65.71 -29.07,-80.99z"/>
  <path class="fil9 str8" d="M6105.75 14733.84c-4.2,19.53 -6.3,35.52 -6.3,47.95 0,5.69 3.6,8.53 10.64,9.24 7.05,0.71 30.72,1.06 71.02,1.06 54.54,0 84.65,2.14 90.5,6.4 13.48,9.59 23.97,31.26 31.61,64.29 3.45,14.21 5.54,20.96 6.15,20.96 0.6,0 0.89,-2.13 0.89,-6.39 0,-26.29 -2.4,-50.44 -7.04,-72.82 -7.64,-33.04 -18.13,-54.71 -31.61,-64.3 -6.45,-4.26 -35.36,-6.39 -86.9,-6.39l-78.96 0z"/>
  <path class="fil9 str8" d="M6119.68 15079.47c-11.09,-26.28 -17.23,-32.68 -18.43,-18.82 0,7.1 2.25,19.89 6.59,38.72 4.35,18.47 8.4,31.97 11.84,40.49 10.04,23.45 24.87,42.27 44.8,56.13 19.93,15.27 59.18,24.86 117.61,29.13 40.46,2.84 63.53,7.46 69.37,14.56 12.29,12.43 21.13,32.68 26.37,60.39 2.85,15.28 4.65,18.12 5.25,8.17 0.6,-5.33 0.6,-12.43 0,-20.6 -2.4,-36.24 -10.19,-67.5 -23.67,-93.78 -9.44,-18.12 -28.17,-27 -56.19,-27 -96.04,0 -157.17,-29.13 -183.54,-87.39z"/>
  <path class="fil8 str8" d="M5602.62 14242.56c54.99,0 91.1,2.84 108.03,8.52 40.9,12.43 77.01,41.21 108.03,86.32 31.01,45.12 53.18,100.89 66.67,167.67 9.29,42.98 14.08,88.1 14.08,134.99 0,73.88 -12.28,146 -36.86,216.69 -14.08,38.72 -33.71,72.82 -58.88,101.95 -32.21,37.3 -80.75,58.96 -145.78,64.65l-45.55 3.91 0 318.64 -7.04 33.39c-11.69,55.41 -32.21,83.12 -61.43,83.12 -4.2,0 -10.34,-1.42 -18.43,-4.26 -18.28,-6.75 -31.91,-33.75 -41.35,-80.99l-5.25 -27 0.9 -499.81 0 -497.32 5.25 -23.09c2.99,-13.85 8.39,-29.13 16.18,-45.47 7.94,-16.69 15.13,-28.06 21.57,-33.39 6.45,-5.68 33.12,-8.52 79.86,-8.52z"/>
  <path class="fil9 str8" d="M5692.22 14275.95c-10.49,-2.84 -39.25,-4.27 -86,-4.27 -44.5,0 -68.48,1.43 -72.07,4.27 -12.88,7.1 -23.37,23.09 -31.61,47.95 -8.1,24.87 -12.29,54 -12.29,87.39l0 22.73 6.14 -29.12c7.05,-34.46 18.43,-57.55 34.32,-68.56 7.03,-4.27 27.42,-6.4 61.42,-6.4 66.08,0 109.08,4.26 129,12.79 39.86,16.7 73.72,48.31 101.89,95.56 28.02,47.24 47.34,104.79 57.98,172.64l5.25 37.65 -0.9 -35.52c-1.2,-44.4 -8.09,-89.16 -20.68,-134.28 -12.59,-45.11 -28.47,-82.06 -47.79,-111.18 -33.41,-50.09 -74.92,-80.64 -124.66,-91.65z"/>
  <path class="fil12 str8" d="M5714.99 14577.89c-7.64,-5.68 -26.82,-9.23 -57.83,-10.66l-44.8 -3.9 0 143.51 44.8 -4.26c37.46,-1.42 66.08,-11.73 86,-31.26 8.09,-8.17 13.48,-15.28 15.73,-20.61 1.2,-2.84 1.8,-5.68 1.8,-8.52 0,-20.61 -15.28,-42.27 -45.7,-64.3z"/>
  <path class="fil9 str8" d="M5772.98 14702.58c0,-24.87 -6.15,-29.13 -18.43,-12.44 -21.13,24.87 -54.69,38.37 -100.98,39.43l-52.6 2.14 0 58.25 44.65 0c45.1,0 77.62,-9.59 97.54,-29.13 19.93,-19.18 29.82,-38.72 29.82,-58.25z"/>
  <path class="fil8 str8" d="M14603.56 14248.95c5.84,-2.84 12.58,-3.55 20.22,-2.13 27.42,2.84 47.05,34.81 58.74,95.91 2.99,16.7 5.84,82.41 8.84,197.51 2.84,141.73 4.34,272.81 4.34,393.59 0,69.27 -0.3,115.8 -0.9,139.25l-1.65 68.91 17.53 -4.26c5.85,-1.42 31.92,-3.55 78.07,-6.39l32.51 0c62.03,0 101.88,10.65 119.41,31.26 5.84,7.1 12.14,19.89 18.88,38.72 6.74,18.47 11.24,34.81 13.63,48.66 2.25,15.28 3.45,32.68 3.45,52.22 0,66.43 -11.99,114.39 -35.96,143.51 -8.84,11.02 -18.13,16.7 -28.02,16.7 -10.64,0 -23.22,-2.84 -37.76,-8.17 -25.76,-8.53 -64.72,-12.79 -116.86,-12.79 -42.1,0 -74.32,3.55 -96.49,10.66 -16.48,5.33 -30.71,8.17 -43,8.17 -14.68,0 -27.87,-9.59 -39.55,-29.13 -6.45,-9.59 -12.59,-27.71 -18.43,-53.99 -4.65,-25.23 -7.05,-47.96 -7.05,-68.92 0,-17.76 1.5,-49.73 4.35,-95.56 5.84,-90.22 8.84,-176.9 8.84,-260.38 0,-72.11 -2.4,-170.51 -7.04,-295.55 -3.45,-96.98 -5.25,-169.09 -5.25,-216.33 0,-56.84 1.5,-91.65 4.35,-104.08 10.49,-42.99 25.47,-72.12 44.8,-87.39z"/>
  <path class="fil9 str8" d="M14643.11 14286.25c-7.04,-6.75 -14.98,-10.3 -23.67,-10.3 -7.05,0 -14.08,2.84 -21.13,8.52 -12.28,12.44 -21.42,33.75 -27.27,64.3 -4.04,19.54 -6.14,40.85 -6.14,64.65 0,6.75 0.3,10.3 0.9,10.3l0.9 0c1.8,-2.84 2.55,-6.04 2.55,-10.3 0,-7.1 2.84,-17.76 8.39,-32.33 5.54,-14.56 11.23,-25.22 17.08,-32.32 7.64,-9.59 16.18,-14.57 25.47,-14.57 23.52,0 40.15,24.52 50.04,72.83l6.14 26.99 -0.75 -30.9c-1.79,-57.19 -12.73,-95.91 -32.51,-116.87z"/>
  <path class="fil9 str8" d="M14678.17 14565.46c0,5.33 0,9.59 0,12.43l0.9 -18.83 0 -2.13c-0.6,1.42 -0.9,4.27 -0.9,8.53z"/>
  <path class="fil9 str8" d="M14680.87 14648.58c0,4.26 0,6.75 0,8.17l0.75 -16.69c-0.45,1.42 -0.75,4.26 -0.75,8.52z"/>
  <path class="fil9 str8" d="M14576.29 15102.21c0,9.94 0.3,14.56 0.9,14.56l0 -26.99c-0.6,2.84 -0.9,7.1 -0.9,12.43z"/>
  <path class="fil9 str8" d="M14572.84 15235.42c1.8,-30.55 2.7,-55.42 2.7,-74.95l0 -10.31c-3,0 -6.29,50.09 -9.74,149.91l0 16.7 0 4.26c0.6,0 3,-28.77 7.04,-85.61z"/>
  <path class="fil9 str8" d="M14893.33 15166.86c-18.13,-5.68 -45.7,-8.17 -82.56,-8.17 -45.1,0 -83.15,3.91 -114.17,12.43l-14.98 3.91c0,5.68 -0.15,14.92 -0.75,28.06 -0.6,13.5 -0.9,23.45 -0.9,30.2l15.73 -3.91c37.46,-8.53 75.22,-12.43 113.27,-12.43 52.74,0 91.4,6.75 115.97,20.6 14.53,9.59 25.32,30.55 32.36,62.52l5.24 22.74 0 -27c0,-26.29 -3.59,-50.44 -10.93,-72.82 -7.34,-22.03 -16.78,-36.59 -28.47,-43.7 -2.4,-1.42 -12.28,-5.68 -29.81,-12.43z"/>
  <path class="fil8 str8" d="M14172.5 14251.08c7.04,-5.68 50.34,-8.52 129.9,-8.52 66.08,0 105.48,1.42 118.07,4.26 12.58,2.84 23.82,13.85 33.86,33.39 16.33,30.55 24.57,72.11 24.57,124.69 0,66.78 -12.58,114.73 -37.76,143.86 -7.04,8.17 -20.22,13.15 -39.55,14.57l-30.71 2.13 0 576.53 30.71 1.78c19.92,1.42 34.01,7.82 42.1,18.83 23.52,31.97 35.21,78.5 35.21,139.6 0,47.25 -7.34,85.97 -22.02,116.52 -9.3,20.96 -19.18,33.39 -29.37,37.3 -10.19,4.26 -41.05,6.39 -92.6,6.39l-31.61 0c-81.36,0 -125.55,-3.55 -132.6,-10.3 -11.68,-11.37 -21.72,-30.2 -30.26,-57.19 -8.54,-27.36 -12.74,-58.26 -12.74,-92.72 0,-19.54 1.2,-37.65 3.45,-54.35 4.79,-33.03 15.28,-61.45 31.61,-85.25 8.84,-11.01 23.22,-17.41 43.15,-18.83l29.82 -1.78 0 -576.53 -29.82 -2.13c-19.93,-1.42 -33.41,-6.4 -40.45,-14.57 -25.17,-31.97 -37.76,-80.63 -37.76,-145.64 0,-30.55 3.45,-59.68 10.49,-87.74 7.64,-30.55 19.03,-51.87 34.31,-64.3z"/>
  <path class="fil9 str8" d="M14435.9 14286.25l-11.54 -12.43 -121.06 0c-81.36,0 -125.25,3.55 -131.7,10.65 -16.93,17.76 -27.27,49.02 -30.71,93.43 -1.8,23.8 -1.5,35.52 0.9,35.52 1.19,0 2.24,-3.55 3.44,-10.3 1.8,-11.37 5.55,-23.09 11.39,-35.52 5.84,-12.44 11.54,-21.67 16.78,-27 7.04,-5.68 50.34,-8.53 129.9,-8.53 79.56,0 122.86,2.85 129.9,8.53 11.69,11.01 21.13,31.97 28.17,62.52l4.35 18.47 0.9 -24.87c0,-51.5 -10.34,-88.09 -30.72,-110.47z"/>
  <path class="fil9 str8" d="M14248.01 15225.12l0 -52.22 -29.81 -1.78 -10.64 0c-22.18,0 -38.06,10.3 -47.35,31.26 -13.48,26.29 -20.22,59.68 -20.22,99.82l0.9 24.87c5.84,-38.72 15.73,-66.43 29.81,-83.13 5.84,-8.52 20.23,-13.14 43,-14.56l34.31 -4.26z"/>
  <path class="fil9 str8" d="M14427.06 15177.16c-9.29,-5.33 -25.17,-8.17 -47.35,-8.17 -12.88,0 -19.62,1.42 -20.22,3.91 -1.2,2.84 -1.8,12.79 -1.8,29.48l0 24.87 34.31 2.13c22.77,1.42 37.46,6.04 43.9,14.56 11.68,15.28 20.08,35.88 25.47,62.17l4.35 20.96 0.9 -24.87c0,-27.71 -3.75,-53.64 -10.95,-77.08 -7.33,-23.45 -16.93,-39.43 -28.61,-47.96z"/>
  <path class="fil8 str8" d="M13672.97 14248.95c4.65,-4.26 60.53,-6.39 167.66,-6.39 106.53,0 163.61,3.55 171.26,10.65 15.73,13.86 27.42,40.14 35.05,78.86 4.65,25.22 7.05,47.96 7.05,68.92 0,31.97 -3.9,61.45 -11.84,89.52 -7.94,27.7 -17.08,46.89 -27.72,58.25 -7.04,8.17 -26.82,13.15 -59.63,14.57l-48.25 2.13 0.76 386.84 1.79 389.33 -5.24 27c-12.29,62.52 -32.82,93.78 -61.43,93.78 -28.77,0 -48.85,-29.13 -60.53,-87.39l-7.04 -33.39 0.9 -389.33 0 -386.84 -48.4 -2.13c-32.66,-1.42 -52.59,-6.4 -59.63,-14.57 -25.77,-27.71 -38.66,-76.37 -38.66,-145.64 0,-16.7 0.9,-31.97 2.7,-45.83 5.84,-52.92 19.48,-88.8 41.2,-108.34z"/>
  <path class="fil9 str8" d="M13996.9 14273.82c-8.24,-3.91 -52.14,-6.04 -131.7,-6.04 -111.77,0 -172.9,2.84 -183.39,8.17 -11.23,7.1 -20.53,22.38 -28.16,45.82 -7.65,23.45 -11.39,49.38 -11.39,77.09l0 26.99c5.84,-38.72 15.73,-66.42 29.81,-83.12l9.74 -12.79 318.69 0 9.59 12.79c14.08,16.7 23.97,44.4 29.81,83.12l0 -26.99c0,-27.71 -4.19,-54.35 -12.73,-79.22 -8.39,-24.87 -18.58,-40.14 -30.27,-45.82z"/>
  <path class="fil8 str8" d="M13332.41 14251.08l4.35 -2.13c3.59,0 6.74,0 9.74,0 2.25,0 5.99,0.36 10.93,1.07 4.95,0.71 8.85,1.06 11.84,1.06 22.18,1.42 54.69,13.86 97.39,37.3 3.6,1.42 11.69,8.53 24.57,20.96 12.89,12.43 22.33,22.73 28.17,31.26 14.68,20.6 24.57,44.4 29.81,70.69 3.6,16.7 5.25,40.14 5.25,70.69 0,29.13 -1.65,52.22 -5.25,68.91 -7.63,35.88 -20.22,64.3 -37.75,85.26 -8.24,9.59 -15.43,14.56 -21.88,14.56 -8.84,0 -20.53,-7.81 -35.21,-23.09 -29.81,-30.55 -61.43,-45.82 -94.84,-45.82 -26.22,0 -47.94,9.95 -64.87,29.13l15.73 23.09c4.79,6.75 23.22,26.99 55.43,60.39 62.48,63.94 107.28,126.1 134.25,187.2 34.01,73.53 50.94,154.17 50.94,241.56 0,13.85 -1.2,33.39 -3.59,58.25 -9.29,85.97 -32.07,154.53 -68.02,204.97 -35.96,50.8 -79.72,76.02 -131.25,76.02 -47.95,0 -90.5,-23.45 -127.66,-70.69 -37.16,-47.25 -64.57,-111.9 -82.1,-193.6 -4.65,-22.38 -7.05,-47.25 -7.05,-74.95 0,-45.83 6.14,-82.42 18.43,-109.41 12.29,-27 27.27,-41.92 44.8,-44.76l7.04 0c22.78,0 40.91,24.51 54.39,72.82 5.84,22.38 11.39,38.36 16.63,47.96 19.93,34.81 46,52.21 78.21,52.21 11.09,0 19.33,-1.42 24.58,-4.26 20.52,-8.52 30.71,-16.69 30.71,-24.86 0,-18.12 -31.61,-59.68 -94.84,-125.05 -39.26,-38.71 -70.27,-78.5 -93.05,-118.64 -43.3,-76.38 -64.87,-168.02 -64.87,-274.59 0,-15.28 0.15,-26.64 0.75,-33.39 2.4,-39.08 8.99,-77.8 19.77,-116.52 10.79,-39.07 24.13,-71.04 40.01,-95.91 29.81,-47.25 69.37,-79.57 118.51,-97.69z"/>
  <path class="fil9 str8" d="M13425.46 14294.77c-18.73,-9.59 -40.9,-14.56 -66.68,-14.56 -22.32,0 -40.15,3.55 -53.64,10.3 -39.7,20.96 -72.36,56.84 -97.83,108.35 -25.48,51.15 -38.81,108.34 -40.01,170.51l0 29.12c0.6,-1.42 1.5,-5.32 2.7,-12.43 13.48,-83.12 38.96,-146.35 76.41,-189.34 33.27,-38.71 71.62,-58.25 114.92,-58.25 34.01,0 65.33,11.01 93.94,33.39 3.6,2.49 7.19,5.33 10.94,8.17 3.89,2.84 6.89,4.97 9.29,6.39l3.45 2.13c3.59,-2.84 16.47,11.73 38.65,43.7 6.44,8.17 12.29,22.02 17.53,41.56l7.04 22.73 0 -24.86c0,-47.25 -13.48,-86.68 -40.3,-118.65 -13.49,-16.69 -38.96,-36.23 -76.41,-58.26z"/>
  <path class="fil9 str8" d="M13311.29 14665.28c-12.89,-16.7 -20.23,-25.22 -21.88,-25.22 -0.6,0 -1.8,1.77 -3.59,5.32 -1.65,3.56 -3.6,7.46 -5.7,11.37 -1.95,4.26 -3.29,7.11 -3.89,8.53l9.59 20.6c13.48,29.13 40.75,63.23 81.65,102.31 90.8,88.8 145.49,191.46 164.21,307.98l5.25 35.17 0.9 -24.87c0,-66.78 -14.69,-133.21 -43.9,-199.99 -26.37,-62.17 -69.97,-123.27 -130.8,-182.94 -18.73,-19.54 -35.96,-39.08 -51.84,-58.26z"/>
  <path class="fil9 str8" d="M13143.63 15145.9c0.6,-1.42 2.85,-8.17 6.59,-20.6 3.75,-12.43 6.14,-20.25 7.04,-23.09 0.9,-2.84 3,-8.17 6.59,-16.7 3.45,-8.17 6.75,-13.85 9.6,-16.34 2.99,-2.84 6.74,-5.68 11.38,-8.52 4.8,-2.85 10.04,-4.27 15.88,-4.27 18.73,0 32.82,16.7 42.11,50.09 17.53,62.52 42.7,101.24 75.51,116.52 9.89,4.26 20.82,6.39 32.51,6.39 19.33,0 34.76,-4.97 46.45,-14.56 16.48,-12.44 24.72,-25.23 24.72,-37.66 0,-6.75 -1.8,-14.56 -5.4,-22.73 -3.44,-8.53 -8.68,-9.24 -15.72,-2.13 -15.29,12.43 -31.32,18.82 -48.25,18.82 -18.73,0 -36.11,-6.39 -51.84,-18.82 -14.09,-9.6 -25.02,-22.03 -32.96,-36.59 -7.94,-14.57 -16.18,-36.95 -25.02,-67.5 -4.05,-13.85 -8.99,-25.57 -14.84,-35.52 -8.24,-12.43 -18.73,-18.47 -31.61,-18.47 -3,0 -6.74,1.06 -11.54,3.91 -12.28,9.94 -22.17,25.93 -29.81,47.95 -7.64,22.38 -11.39,46.54 -11.39,72.82l0 27z"/>
  <path class="fil8 str8" d="M12897.91 14244.69c10.49,-1.42 32.96,-2.13 67.57,-2.13 26.37,1.42 42.4,5.68 48.25,12.78 26.97,33.04 40.45,81.71 40.45,145.65 0,40.14 -6.14,76.73 -18.43,110.12 -8.83,22.38 -17.53,35.88 -25.92,40.49 -8.54,4.98 -27.42,8.89 -56.63,11.73 -69.67,5.33 -117.47,23.44 -143.09,53.99 -8.24,11.01 -15.73,24.16 -22.47,39.43 -6.75,15.28 -10.04,28.07 -10.04,37.66 0,2.84 0.6,5.32 1.8,8.17 1.05,1.42 26.81,2.13 77.16,2.13l39.55 0c23.98,0 39.26,3.55 45.7,10.3 26.82,29.13 40.3,77.79 40.3,146l0 10.3c-0.6,38.72 -7.63,74.95 -21.12,108.34 -8.09,20.61 -17.23,33.04 -27.12,37.3 -10.04,4.27 -36.56,6.4 -79.86,6.4l-75.51 0c7.04,29.13 17.83,51.86 32.51,68.56 20.98,23.44 63.68,38.72 128.1,45.82 45.7,4.26 71.92,10.3 78.96,18.83 21.13,27.71 33.41,70.69 36.86,128.95 0.6,5.68 0.9,13.85 0.9,24.86 0,62.52 -13.79,108.35 -41.2,137.48 -8.84,9.59 -28.77,14.56 -59.78,14.56 -8.69,0 -27.13,-1.42 -55.29,-4.26 -42.7,-5.33 -76.11,-16.7 -100.09,-33.04 -48.54,-31.97 -87.19,-92 -115.81,-180.1 -28.77,-88.1 -45.4,-198.93 -50.05,-332.14 -0.6,-13.85 -0.89,-35.52 -0.89,-64.65 0,-171.93 22.17,-312.6 66.67,-422.37 44.5,-106.92 110.72,-167.31 198.52,-181.16z"/>
  <path class="fil9 str8" d="M13011.03 14284.47c-7.49,-8.52 -27.42,-12.79 -59.63,-12.79 -65.03,2.85 -117.47,19.19 -157.62,49.03 -40.01,29.84 -72.67,82.41 -97.84,157.01 -25.77,79.21 -41.8,170.15 -48.24,272.81 -1.2,18.12 -1.8,37.66 -1.8,58.26l0 8.53c0.6,0 1.8,-9.24 3.45,-27.36 10.03,-141.38 36.1,-251.14 78.21,-328.58 25.77,-47.25 55.88,-81 90.34,-101.24 34.61,-19.9 79.71,-30.2 135.3,-30.2 32.21,0 50.64,2.84 55.28,8.53 5.25,5.68 10.79,14.56 16.63,26.99 5.85,12.44 9.74,24.16 11.39,35.53 1.8,11.01 3.3,16.69 4.5,16.69 1.04,0 1.64,-3.55 1.64,-10.65 0,-11.02 -0.74,-24.87 -2.54,-41.57 -4.65,-38.72 -14.39,-65.71 -29.07,-80.99z"/>
  <path class="fil9 str8" d="M12767.11 14733.84c-4.2,19.53 -6.29,35.52 -6.29,47.95 0,5.69 3.6,8.53 10.64,9.24 7.04,0.71 30.71,1.06 71.01,1.06 54.54,0 84.66,2.14 90.5,6.4 13.49,9.59 23.97,31.26 31.61,64.29 3.45,14.21 5.55,20.96 6.15,20.96 0.6,0 0.9,-2.13 0.9,-6.39 0,-26.29 -2.4,-50.44 -7.05,-72.82 -7.64,-33.04 -18.12,-54.71 -31.61,-64.3 -6.44,-4.26 -35.36,-6.39 -86.9,-6.39l-78.96 0z"/>
  <path class="fil9 str8" d="M12781.05 15079.47c-11.09,-26.28 -17.24,-32.68 -18.44,-18.82 0,7.1 2.25,19.89 6.6,38.72 4.34,18.47 8.39,31.97 11.84,40.49 10.04,23.45 24.86,42.27 44.79,56.13 19.93,15.27 59.18,24.86 117.62,29.13 40.45,2.84 63.53,7.46 69.37,14.56 12.28,12.43 21.12,32.68 26.37,60.39 2.84,15.28 4.65,18.12 5.24,8.17 0.6,-5.33 0.6,-12.43 0,-20.6 -2.4,-36.24 -10.19,-67.5 -23.67,-93.78 -9.44,-18.12 -28.17,-27 -56.19,-27 -96.03,0 -157.16,-29.13 -183.53,-87.39z"/>
  <path class="fil8 str8" d="M11886.57 14263.51c6.9,-5.68 15.13,-8.17 24.57,-8.17 28.62,0 49.15,31.62 61.43,95.56 3.45,18.12 5.25,57.55 5.25,118.65 0,9.59 -0.6,86.67 -1.8,230.9 -0.6,43.33 -0.9,96.62 -0.9,160.56 0,90.23 2.1,150.26 6.14,180.81 4.2,30.55 12.59,55.06 25.47,72.82 16.48,20.96 33.11,31.26 50.05,31.26 17.08,0 32.51,-9.23 46.59,-28.06 14.09,-18.83 23.08,-41.92 27.27,-69.63 4.65,-36.23 6.89,-105.5 6.89,-208.16 0,-58.26 -0.74,-120.78 -2.54,-187.21 -0.6,-20.95 -1.2,-55.77 -1.8,-104.08 -0.6,-48.66 -0.9,-77.08 -0.9,-85.61l0 -53.99c0,-26.29 1.8,-47.96 5.24,-64.65 5.4,-26.29 13.64,-47.96 25.03,-65.37 11.53,-17.4 23.67,-25.93 36.55,-25.93 10.49,0 20.38,5.33 29.82,16.7 6.44,6.75 13.04,19.54 19.78,38.36 6.74,18.83 11.24,36.24 13.48,52.93 2.4,16.7 4.65,78.86 6.59,186.5 2.1,107.63 3.15,202.12 3.15,284.18l0 58.26c-1.2,112.25 -5.54,198.21 -13.19,257.89 -7.63,59.68 -21.42,114.03 -41.2,162.34 -41.05,101.24 -94.54,152.04 -160.76,152.04 -22.78,0 -45.25,-7.1 -67.57,-20.96 -22.18,-13.85 -43.3,-36.23 -63.23,-67.49 -19.93,-31.26 -35.96,-67.85 -48.25,-109.41 -16.93,-58.26 -28.61,-134.63 -35.06,-228.77 -1.8,-27.71 -2.69,-94.49 -2.69,-199.99 0,-134.63 1.19,-244.04 3.44,-328.94 1.8,-91.3 4.8,-146.36 8.84,-164.12 8.24,-40.5 19.63,-66.78 34.31,-79.22z"/>
  <path class="fil9 str8" d="M11965.53 14413.42c0,-34.81 -5.54,-65.01 -16.63,-90.58 -11.24,-25.58 -24.12,-38.37 -38.66,-38.37 -10.03,0 -19.62,6.75 -29.06,20.61 -13.94,19.53 -21.88,55.41 -23.68,108.34l-0.89 31.26 5.39 -27c10.49,-50.08 26.22,-74.95 47.35,-74.95l6.14 0c23.97,8.17 40.3,40.85 49.14,97.69l0.9 -27z"/>
  <path class="fil9 str8" d="M12213.05 14288.38c-2.85,-2.84 -7.64,-3.91 -13.94,-3.91 -14.68,0 -27.57,12.79 -38.65,38.37 -11.24,25.57 -16.78,56.48 -16.78,92.71l0 24.87 4.49 -22.74c2.25,-13.85 7.2,-28.41 14.39,-42.98 7.34,-14.56 14.23,-23.8 20.67,-28.06 3.6,-2.49 8.54,-3.91 14.98,-3.91 24.58,0 42.11,27.71 52.6,83.12l4.49 18.83 -1.8 -33.39c-2.99,-66.78 -16.48,-107.63 -40.45,-122.91z"/>
  <path class="fil9 str8" d="M12056.78 15168.99c-53.79,0 -83.91,-51.51 -90.35,-154.17l-3.59 -43.69 0.89 47.96c1.8,62.52 6.14,105.5 13.19,128.94 14.08,47.25 37.76,74.25 71.17,81.35l10.49 0c59.63,0 89.59,-72.11 89.59,-216.69l0 -20.6c0,-11.01 -0.6,-10.66 -1.8,2.13l-0.9 20.6c-7.04,102.66 -36.56,154.17 -88.69,154.17z"/>
  <path class="fil8 str8" d="M11385.25 14248.95c4.64,-4.26 60.53,-6.39 167.65,-6.39 106.53,0 163.62,3.55 171.26,10.65 15.73,13.86 27.42,40.14 35.06,78.86 4.64,25.22 7.04,47.96 7.04,68.92 0,31.97 -3.9,61.45 -11.84,89.52 -7.94,27.7 -17.08,46.89 -27.71,58.25 -7.05,8.17 -26.82,13.15 -59.64,14.57l-48.24 2.13 0.75 386.84 1.79 389.33 -5.24 27c-12.28,62.52 -32.81,93.78 -61.43,93.78 -28.77,0 -48.84,-29.13 -60.53,-87.39l-7.04 -33.39 0.9 -389.33 0 -386.84 -48.4 -2.13c-32.66,-1.42 -52.59,-6.4 -59.63,-14.57 -25.77,-27.71 -38.65,-76.37 -38.65,-145.64 0,-16.7 0.9,-31.97 2.69,-45.83 5.85,-52.92 19.48,-88.8 41.21,-108.34z"/>
  <path class="fil9 str8" d="M11709.18 14273.82c-8.24,-3.91 -52.14,-6.04 -131.7,-6.04 -111.78,0 -172.9,2.84 -183.39,8.17 -11.24,7.1 -20.53,22.38 -28.17,45.82 -7.64,23.45 -11.39,49.38 -11.39,77.09l0 26.99c5.84,-38.72 15.73,-66.42 29.82,-83.12l9.74 -12.79 318.68 0 9.59 12.79c14.08,16.7 23.97,44.4 29.82,83.12l0 -26.99c0,-27.71 -4.2,-54.35 -12.74,-79.22 -8.39,-24.87 -18.58,-40.14 -30.26,-45.82z"/>
  <path class="fil8 str8" d="M10674.16 14309.34c28.62,-47.25 58.74,-70.69 90.35,-70.69 4.79,0 11.69,1.42 21.12,3.91 38.06,13.85 70.87,52.21 98.29,114.73 18.13,41.57 33.41,92.01 45.7,151.69 25.77,122.2 41.8,309.05 48.24,560.19 1.8,63.59 2.7,116.52 2.7,158.08 0,88.81 -6.44,148.48 -19.33,179.03 -14.08,33.04 -30.41,49.74 -49.14,49.74 -28.77,0 -49.14,-30.55 -61.58,-91.3 -3.45,-18.11 -5.24,-40.49 -5.24,-66.78l0 -56.13 0.89 -91.65 -157.16 0 0.89 91.65 0 45.83c0,31.97 -1.49,55.41 -4.34,70.69 -5.85,31.97 -14.99,57.55 -27.27,77.08 -5.84,8.17 -8.99,13.15 -9.59,14.57 -2.39,8.17 -11.69,12.43 -28.17,12.43 -4.64,0 -7.79,-0.71 -9.59,-2.13 -24.57,-12.43 -41.5,-47.25 -50.94,-104.08 -4.04,-24.87 -6.14,-84.55 -6.14,-179.04 0,-120.78 3.3,-236.58 9.74,-347.41 9.29,-148.49 25.32,-269.26 48.24,-362.33 15.13,-61.1 35.96,-113.68 62.33,-158.08z"/>
  <path class="fil9 str8" d="M10855.9 14340.6c-28.16,-47.25 -58.28,-70.69 -90.49,-70.69 -9.29,0 -19.33,1.77 -29.82,6.04 -8.24,2.84 -19.92,13.5 -35.06,32.32 -15.28,18.83 -26.97,36.24 -35.21,52.93 -40.3,80.64 -68.17,209.59 -83.3,387.2 -8.24,91.65 -12.44,163.05 -12.44,214.56 0,12.43 0.6,11.72 1.8,-2.13 0.6,-5.69 1.5,-19.54 2.7,-41.56 11.08,-190.05 32.21,-333.21 63.22,-428.76 34.46,-108.35 77.47,-162.34 129,-162.34 9.3,0 20.53,3.19 33.42,10.3 91.24,55.41 145.33,267.13 162.41,634.79l0.75 2.13c0,-5.68 0,-9.59 0,-12.43 0,-48.67 -4.05,-120.07 -12.29,-214.56 -16.93,-197.15 -48.54,-332.85 -94.69,-407.8z"/>
  <path class="fil13 str8" d="M10787.43 14571.5c-4.79,-6.75 -11.53,-10.3 -20.22,-10.3 -7.05,0 -12.29,2.13 -15.89,6.03 -17.53,19.54 -32.06,84.19 -43.9,193.6 -3.44,39.08 -5.24,60.39 -5.24,64.66 0,4.26 21.72,6.39 65.03,6.39 43.9,0 65.77,-2.13 65.77,-6.39 0,-30.55 -5.24,-78.51 -15.73,-143.52 -10.04,-58.25 -19.93,-95.2 -29.82,-110.47z"/>
  <path class="fil9 str8" d="M10689.89 14858.88c-1.64,12.43 -2.54,28.42 -2.54,47.6l0 12.79 79.86 0 35.95 0c19.93,0 32.37,-0.71 37.31,-2.14 4.94,-1.42 7.49,-6.39 7.49,-14.56 0,-1.42 -0.6,-9.24 -1.8,-23.09l-0.89 -20.6 -155.38 0z"/>
  <polygon class="fil8 str8" points="10568.83,15035.78 10568.83,15006.65 10567.93,15023.35 10568.83,15037.91 "/>
  <path class="fil8 str8" d="M10964.68 15039.69c1.2,-9.59 1.2,-18.47 0,-27 -0.6,5.68 -0.9,11.37 -0.9,16.7l0.9 14.56 0 -4.26z"/>
  <path class="fil8 str8" d="M10056.12 14400.99c0,-85.97 16.63,-138.19 50.04,-156.3 5.85,-2.84 60.83,-4.27 165.11,-4.27l156.27 2.14 11.39 12.78c13.49,13.86 24.87,40.14 34.16,78.86 4.2,19.54 6.14,47.96 6.14,85.26 -0.6,62.52 -7.79,128.59 -21.87,197.86 -11.69,56.84 -28.02,111.19 -48.7,162.34 -20.82,51.51 -53.78,117.23 -98.88,197.86 -53.79,95.56 -80.76,148.49 -80.76,158.08 0,1.42 34.61,3.55 103.68,6.39 69.07,1.42 105.63,3.91 109.68,8.17 0.6,1.43 1.49,2.85 2.69,4.27 23.98,30.55 35.96,78.86 35.96,145.64 0,26.29 -2.54,51.51 -7.49,76.02 -4.95,24.16 -10.94,41.92 -17.98,52.93 -8.84,15.27 -19.18,24.86 -31.16,28.06 -11.99,3.55 -41.65,5.33 -89.15,5.33l-70.12 0c-101.28,-1.42 -154.92,-4.97 -160.77,-10.3 -16.93,-15.28 -29.51,-42.27 -37.75,-81.35l-7.8 -33.39 1.65 -64.3c0.6,-45.82 3.3,-84.19 7.95,-114.38 6.44,-45.82 14.38,-86.32 23.67,-120.78 9.44,-34.81 23.22,-75.66 41.35,-122.91 19.78,-50.08 48.84,-109.76 86.9,-179.03 45.1,-81.7 72.52,-134.63 82.56,-158.08l6.14 -16.69 -100.09 0c-56.18,0 -89.89,-1.43 -100.98,-4.27 -11.24,-2.84 -21.13,-13.14 -29.82,-31.26 -14.68,-27.7 -22.02,-69.27 -22.02,-124.68z"/>
  <path class="fil9 str8" d="M10430.99 14280.21c-5.84,-5.68 -60.83,-8.53 -165.11,-8.53 -84.21,0 -133.5,1.43 -147.88,4.27 -14.38,2.84 -25.32,12.43 -32.96,29.13 -11.09,23.8 -16.63,52.93 -16.63,87.38l0 27 7.94 -29.13c4.64,-20.6 11.08,-35.17 19.32,-43.69l12.29 -16.7c35.66,0 89.3,0.71 161.07,2.13 71.61,1.42 125.4,2.13 161.06,2.13l10.49 14.57c7.64,9.95 14.08,25.22 19.33,45.82l7.04 29.13 0 -24.86c0,-25.22 -3.45,-49.03 -10.49,-71.76 -7.04,-23.09 -15.58,-38.72 -25.47,-46.89z"/>
  <path class="fil9 str8" d="M10330.9 14600.63c0,-4.27 -2.69,-6.04 -7.94,-6.04 -6.44,0 -15.13,11.72 -26.37,35.16 -19.77,39.08 -42.1,79.93 -66.67,122.91 -71.32,128.95 -117.32,243.34 -137.84,343.51 -11.69,55.42 -18.43,111.54 -20.23,168.38l-0.75 45.82 3.45 -35.17c8.24,-82.05 23.82,-157.36 47.04,-225.92 23.08,-68.56 59.79,-148.13 110.13,-238.36 66.07,-120.78 99.18,-190.76 99.18,-210.29z"/>
  <path class="fil9 str8" d="M10442.38 15185.69l-10.49 -14.57c-22.77,0 -57.53,-0.71 -103.98,-2.13 -46.6,-1.42 -81.51,-2.13 -105.03,-2.13l-7.79 24.87c-5.85,19.53 -8.84,29.84 -8.84,31.26 0,2.84 36.25,4.26 108.92,4.26 73.72,0 112.37,1.42 115.82,4.26 12.29,8.17 22.48,28.42 30.71,60.39l7.05 29.13 0 -18.83c0,-54.35 -8.84,-93.07 -26.37,-116.51z"/>
  <path class="fil8 str8" d="M9675.1 14251.08c7.05,-5.68 50.35,-8.52 129.91,-8.52 66.07,0 105.48,1.42 118.06,4.26 12.59,2.84 23.83,13.85 33.86,33.39 16.33,30.55 24.58,72.11 24.58,124.69 0,66.78 -12.59,114.73 -37.76,143.86 -7.05,8.17 -20.23,13.15 -39.56,14.57l-30.71 2.13 0 576.53 30.71 1.78c19.93,1.42 34.01,7.82 42.11,18.83 23.52,31.97 35.21,78.5 35.21,139.6 0,47.25 -7.35,85.97 -22.03,116.52 -9.29,20.96 -19.18,33.39 -29.37,37.3 -10.18,4.26 -41.05,6.39 -92.59,6.39l-31.61 0c-81.36,0 -125.56,-3.55 -132.6,-10.3 -11.69,-11.37 -21.73,-30.2 -30.27,-57.19 -8.54,-27.36 -12.73,-58.26 -12.73,-92.72 0,-19.54 1.19,-37.65 3.44,-54.35 4.8,-33.03 15.28,-61.45 31.62,-85.25 8.84,-11.01 23.22,-17.41 43.15,-18.83l29.81 -1.78 0 -576.53 -29.81 -2.13c-19.93,-1.42 -33.42,-6.4 -40.46,-14.57 -25.17,-31.97 -37.75,-80.63 -37.75,-145.64 0,-30.55 3.44,-59.68 10.49,-87.74 7.64,-30.55 19.02,-51.87 34.3,-64.3z"/>
  <path class="fil9 str8" d="M9938.5 14286.25l-11.53 -12.43 -121.06 0c-81.36,0 -125.26,3.55 -131.7,10.65 -16.93,17.76 -27.27,49.02 -30.72,93.43 -1.79,23.8 -1.5,35.52 0.9,35.52 1.2,0 2.25,-3.55 3.45,-10.3 1.79,-11.37 5.54,-23.09 11.38,-35.52 5.85,-12.44 11.54,-21.67 16.78,-27 7.05,-5.68 50.35,-8.53 129.91,-8.53 79.55,0 122.85,2.85 129.9,8.53 11.68,11.01 21.12,31.97 28.16,62.52l4.35 18.47 0.9 -24.87c0,-51.5 -10.34,-88.09 -30.72,-110.47z"/>
  <path class="fil9 str8" d="M9750.62 15225.12l0 -52.22 -29.82 -1.78 -10.63 0c-22.18,0 -38.06,10.3 -47.35,31.26 -13.49,26.29 -20.23,59.68 -20.23,99.82l0.9 24.87c5.84,-38.72 15.73,-66.43 29.82,-83.13 5.84,-8.52 20.23,-13.14 43,-14.56l34.31 -4.26z"/>
  <path class="fil9 str8" d="M9929.67 15177.16c-9.3,-5.33 -25.18,-8.17 -47.35,-8.17 -12.89,0 -19.63,1.42 -20.23,3.91 -1.2,2.84 -1.79,12.79 -1.79,29.48l0 24.87 34.3 2.13c22.78,1.42 37.46,6.04 43.9,14.56 11.69,15.28 20.08,35.88 25.47,62.17l4.35 20.96 0.9 -24.87c0,-27.71 -3.75,-53.64 -10.94,-77.08 -7.34,-23.45 -16.93,-39.43 -28.61,-47.96z"/>
  <path class="fil8 str8" d="M15088.25 14396.72c47.35,-102.66 104.13,-154.16 170.21,-154.16 28.16,0 55.88,11.36 83.45,33.39 44.5,34.81 81.06,95.2 109.68,181.16 28.76,85.97 46.59,186.5 53.63,301.95 1.2,16.34 1.65,47.6 1.65,93.42 0,45.83 -0.45,77.09 -1.65,93.78 -7.64,126.11 -28.16,234.1 -61.42,323.62 -33.42,89.51 -75.22,148.13 -125.56,175.83 -20.53,11.02 -39.86,16.7 -57.99,16.7 -50.34,0 -96.93,-31.97 -139.64,-95.91 -57.83,-87.39 -93.64,-219.18 -107.12,-395.37 -2.25,-38.72 -3.45,-77.09 -3.45,-114.38 0,-40.15 1.2,-79.93 3.45,-118.65 10.63,-142.8 35.51,-256.83 74.76,-341.38zm208.86 179.04c-11.68,-7.1 -26.37,-10.3 -43.9,-10.3 -8.84,0 -14.98,0.71 -18.43,1.77 -27.57,11.37 -49.29,43.34 -65.32,95.92 -16.18,52.57 -24.27,115.8 -24.27,189.33 0,88.81 11.68,161.63 35.2,218.47 9.89,23.8 19.63,39.78 28.92,47.95 15.29,13.86 32.22,20.96 50.94,20.96 23.98,0 44.2,-11.72 60.53,-35.52 22.93,-34.81 38.66,-90.94 47.5,-168.38 2.25,-28.06 3.45,-55.77 3.45,-83.48 0,-27.7 -1.2,-55.41 -3.45,-83.12 -5.24,-48.67 -14.24,-90.23 -26.82,-125.04 -12.58,-34.46 -27.42,-57.55 -44.35,-68.56z"/>
  <path class="fil9 str8" d="M15320.78 14290.51c-17.53,-11.01 -41.2,-16.69 -71.01,-16.69 -8.24,0 -17.68,1.42 -28.17,4.26 -52.14,19.54 -95.89,72.11 -131.25,158.08 -35.36,85.96 -57.23,192.17 -65.33,318.64 -2.39,47.24 -3.59,72.11 -3.59,74.95l0.9 6.04 2.69 -29.13c10.49,-134.63 35.36,-245.46 74.62,-332.85 39.1,-87.39 88.1,-133.92 146.53,-139.61l13.19 0c39.85,0 76.11,19.54 108.92,58.26 66.67,80.64 107.88,217.4 123.76,410.29l4.34 51.86 -1.79 -39.43c-4.05,-133.21 -21.28,-246.52 -51.7,-339.24 -30.41,-93.07 -71.16,-154.88 -122.11,-185.43z"/>
  <path class="fil14 str8" d="M15297.11 14575.76c-11.68,-7.1 -26.37,-10.3 -43.9,-10.3 -8.84,0 -14.98,0.71 -18.43,1.77 -27.57,11.37 -49.29,43.34 -65.32,95.92 -16.18,52.57 -24.27,115.8 -24.27,189.33 0,88.81 11.68,161.63 35.2,218.47 9.89,23.8 19.63,39.78 28.92,47.95 15.29,13.86 32.22,20.96 50.94,20.96 23.98,0 44.2,-11.72 60.53,-35.52 22.93,-34.81 38.66,-90.94 47.5,-168.38 2.25,-28.06 3.45,-55.77 3.45,-83.48 0,-27.7 -1.2,-55.41 -3.45,-83.12 -5.24,-48.67 -14.24,-90.23 -26.82,-125.04 -12.58,-34.46 -27.42,-57.55 -44.35,-68.56z"/>
  <path class="fil9 str8" d="M15197.93 15137.73c-14.09,-15.27 -26.67,-41.21 -37.76,-78.15 -11.09,-36.59 -19.03,-76.73 -23.68,-119.71l-4.34 -41.56 0.75 41.56c1.2,54.35 7.94,105.5 20.23,154.17 12.28,48.66 27.26,83.12 44.8,104.08 18.13,19.18 38.95,29.13 62.32,29.13 10.49,0 20.83,-2.13 30.72,-6.4 26.37,-13.85 47.79,-46.53 64.58,-97.68 16.63,-51.51 26.07,-113.68 28.46,-187.21l1.8 -37.65 -5.24 43.69c-14.69,122.2 -44.5,195.02 -89.6,218.47 -9.89,4.26 -20.23,6.39 -30.72,6.39 -23.37,0 -44.19,-9.59 -62.32,-29.13z"/>
 </g>
</svg>
