<?xml version="1.0" encoding="UTF-8"?>
<!DOCTYPE svg PUBLIC "-//W3C//DTD SVG 1.1//EN" "http://www.w3.org/Graphics/SVG/1.1/DTD/svg11.dtd">
<!-- Creator: CorelDRAW 2019 (64-Bit) -->
<svg xmlns="http://www.w3.org/2000/svg" xml:space="preserve" width="4.52627cm" height="4.50578cm" version="1.1" style="shape-rendering:geometricPrecision; text-rendering:geometricPrecision; image-rendering:optimizeQuality; fill-rule:evenodd; clip-rule:evenodd"
viewBox="0 0 1306.97 1301.05"
 xmlns:xlink="http://www.w3.org/1999/xlink">
 <defs>
  <style type="text/css">
   <![CDATA[
    .str4 {stroke:white;stroke-width:1.53;stroke-miterlimit:22.9256}
    .str3 {stroke:white;stroke-width:1.53;stroke-miterlimit:22.9256}
    .str1 {stroke:white;stroke-width:1.53;stroke-miterlimit:22.9256}
    .str2 {stroke:white;stroke-width:1.53;stroke-miterlimit:22.9256}
    .str0 {stroke:white;stroke-width:1.53;stroke-miterlimit:22.9256}
    .str5 {stroke:white;stroke-width:1.53;stroke-miterlimit:22.9256}
    .fil2 {fill:none}
    .fil1 {fill:#2B2A29}
    .fil4 {fill:white}
    .fil3 {fill:url(#id0)}
    .fil0 {fill:url(#id1)}
   ]]>
  </style>
  <linearGradient id="id0" gradientUnits="userSpaceOnUse" x1="1049.19" y1="133.77" x2="257.78" y2="1167.28">
   <stop offset="0" style="stop-opacity:1; stop-color:#8750B2"/>
   <stop offset="0.403922" style="stop-opacity:1; stop-color:#C3A759"/>
   <stop offset="0.6" style="stop-opacity:1; stop-color:red"/>
   <stop offset="0.721569" style="stop-opacity:1; stop-color:#F72C0E"/>
   <stop offset="1" style="stop-opacity:1; stop-color:yellow"/>
  </linearGradient>
  <linearGradient id="id1" gradientUnits="userSpaceOnUse" x1="1049.19" y1="133.77" x2="257.78" y2="1167.28">
   <stop offset="0" style="stop-opacity:1; stop-color:#914DC1"/>
   <stop offset="0.282353" style="stop-opacity:1; stop-color:#C58B61"/>
   <stop offset="0.419608" style="stop-opacity:1; stop-color:#B52064"/>
   <stop offset="0.568627" style="stop-opacity:1; stop-color:#F60611"/>
   <stop offset="0.741176" style="stop-opacity:1; stop-color:#F72C0E"/>
   <stop offset="1" style="stop-opacity:1; stop-color:#F9CA00"/>
  </linearGradient>
 </defs>
 <g id="Capa_x0020_1">
  <metadata id="CorelCorpID_0Corel-Layer"/>
  <path class="fil0 str0" d="M338.89 0.77l629.2 0c185.97,0 338.12,152.16 338.12,338.12l0 623.28c0,185.97 -152.16,338.12 -338.12,338.12l-629.2 0c-185.97,0 -338.12,-152.16 -338.12,-338.12l0 -623.28c0,-185.97 152.16,-338.12 338.12,-338.12zm66.52 136.06l506.79 0c149.98,0 272.69,122.71 272.69,272.69l0 502.67c0,149.98 -122.71,272.69 -272.69,272.69l-506.79 0c-149.98,0 -272.69,-122.71 -272.69,-272.69l0 -502.67c0,-149.98 122.71,-272.69 272.69,-272.69zm37.49 71.95l433.04 0c129.2,0 234.91,105.71 234.91,234.91l0 433.03c0,129.2 -105.71,234.91 -234.91,234.91l-433.04 0c-129.2,0 -234.91,-105.71 -234.91,-234.91l0 -433.03c0,-129.2 105.71,-234.91 234.91,-234.91zm219.67 208.16c-150.91,0 -273.25,122.34 -273.25,273.25 0,150.91 122.34,273.25 273.25,273.25 150.91,0 273.25,-122.34 273.25,-273.25 0,-150.91 -122.34,-273.25 -273.25,-273.25zm0 70.46c-112,0 -202.79,90.8 -202.79,202.8 0,112 90.8,202.79 202.79,202.79 112,0 202.8,-90.8 202.8,-202.79 0,-112 -90.8,-202.8 -202.8,-202.8zm287.84 -166.1c27.04,0 48.97,21.92 48.97,48.97 0,27.04 -21.92,48.97 -48.97,48.97 -27.04,0 -48.97,-21.92 -48.97,-48.97 0,-27.04 21.92,-48.97 48.97,-48.97z"/>
  <path class="fil1 str1" d="M405.41 136.83l506.79 0c149.98,0 272.69,122.71 272.69,272.69l0 502.67c0,149.98 -122.71,272.69 -272.69,272.69l-506.79 0c-149.98,0 -272.69,-122.71 -272.69,-272.69l0 -502.67c0,-149.98 122.71,-272.69 272.69,-272.69zm37.49 71.95l433.04 0c129.2,0 234.91,105.71 234.91,234.91l0 433.03c0,129.2 -105.71,234.91 -234.91,234.91l-433.04 0c-129.2,0 -234.91,-105.71 -234.91,-234.91l0 -433.03c0,-129.2 105.71,-234.91 234.91,-234.91z"/>
  <path class="fil2 str2" d="M442.9 208.77l433.04 0c129.2,0 234.91,105.71 234.91,234.91l0 433.03c0,129.2 -105.71,234.91 -234.91,234.91l-433.04 0c-129.2,0 -234.91,-105.71 -234.91,-234.91l0 -433.03c0,-129.2 105.71,-234.91 234.91,-234.91zm219.67 208.16c-150.91,0 -273.25,122.34 -273.25,273.25 0,150.91 122.34,273.25 273.25,273.25 150.91,0 273.25,-122.34 273.25,-273.25 0,-150.91 -122.34,-273.25 -273.25,-273.25zm287.84 -95.64c27.04,0 48.97,21.92 48.97,48.97 0,27.04 -21.92,48.97 -48.97,48.97 -27.04,0 -48.97,-21.92 -48.97,-48.97 0,-27.04 21.92,-48.97 48.97,-48.97z"/>
  <circle class="fil1 str3" cx="950.41" cy="370.26" r="48.97"/>
  <path class="fil1 str4" d="M662.57 416.93c-150.91,0 -273.25,122.34 -273.25,273.25 0,150.91 122.34,273.25 273.25,273.25 150.91,0 273.25,-122.34 273.25,-273.25 0,-150.91 -122.34,-273.25 -273.25,-273.25zm0 70.46c-112,0 -202.79,90.8 -202.79,202.8 0,112 90.8,202.79 202.79,202.79 112,0 202.8,-90.8 202.8,-202.79 0,-112 -90.8,-202.8 -202.8,-202.8z"/>
  <circle class="fil2 str5" cx="662.57" cy="690.19" r="202.79"/>
  <path class="fil3 str0" d="M338.89 0.77l629.2 0c185.97,0 338.12,152.16 338.12,338.12l0 623.28c0,185.97 -152.16,338.12 -338.12,338.12l-629.2 0c-185.97,0 -338.12,-152.16 -338.12,-338.12l0 -623.28c0,-185.97 152.16,-338.12 338.12,-338.12zm66.52 136.06l506.79 0c149.98,0 272.69,122.71 272.69,272.69l0 502.67c0,149.98 -122.71,272.69 -272.69,272.69l-506.79 0c-149.98,0 -272.69,-122.71 -272.69,-272.69l0 -502.67c0,-149.98 122.71,-272.69 272.69,-272.69zm37.49 71.95l433.04 0c129.2,0 234.91,105.71 234.91,234.91l0 433.03c0,129.2 -105.71,234.91 -234.91,234.91l-433.04 0c-129.2,0 -234.91,-105.71 -234.91,-234.91l0 -433.03c0,-129.2 105.71,-234.91 234.91,-234.91zm219.67 208.16c-150.91,0 -273.25,122.34 -273.25,273.25 0,150.91 122.34,273.25 273.25,273.25 150.91,0 273.25,-122.34 273.25,-273.25 0,-150.91 -122.34,-273.25 -273.25,-273.25zm0 70.46c-112,0 -202.79,90.8 -202.79,202.8 0,112 90.8,202.79 202.79,202.79 112,0 202.8,-90.8 202.8,-202.79 0,-112 -90.8,-202.8 -202.8,-202.8zm287.84 -166.1c27.04,0 48.97,21.92 48.97,48.97 0,27.04 -21.92,48.97 -48.97,48.97 -27.04,0 -48.97,-21.92 -48.97,-48.97 0,-27.04 21.92,-48.97 48.97,-48.97z"/>
  <path class="fil4 str1" d="M405.41 136.83l506.79 0c149.98,0 272.69,122.71 272.69,272.69l0 502.67c0,149.98 -122.71,272.69 -272.69,272.69l-506.79 0c-149.98,0 -272.69,-122.71 -272.69,-272.69l0 -502.67c0,-149.98 122.71,-272.69 272.69,-272.69zm37.49 71.95l433.04 0c129.2,0 234.91,105.71 234.91,234.91l0 433.03c0,129.2 -105.71,234.91 -234.91,234.91l-433.04 0c-129.2,0 -234.91,-105.71 -234.91,-234.91l0 -433.03c0,-129.2 105.71,-234.91 234.91,-234.91z"/>
  <path class="fil2 str2" d="M442.9 208.77l433.04 0c129.2,0 234.91,105.71 234.91,234.91l0 433.03c0,129.2 -105.71,234.91 -234.91,234.91l-433.04 0c-129.2,0 -234.91,-105.71 -234.91,-234.91l0 -433.03c0,-129.2 105.71,-234.91 234.91,-234.91zm219.67 208.16c-150.91,0 -273.25,122.34 -273.25,273.25 0,150.91 122.34,273.25 273.25,273.25 150.91,0 273.25,-122.34 273.25,-273.25 0,-150.91 -122.34,-273.25 -273.25,-273.25zm287.84 -95.64c27.04,0 48.97,21.92 48.97,48.97 0,27.04 -21.92,48.97 -48.97,48.97 -27.04,0 -48.97,-21.92 -48.97,-48.97 0,-27.04 21.92,-48.97 48.97,-48.97z"/>
  <circle class="fil4 str3" cx="950.41" cy="370.26" r="48.97"/>
  <path class="fil4 str4" d="M662.57 416.93c-150.91,0 -273.25,122.34 -273.25,273.25 0,150.91 122.34,273.25 273.25,273.25 150.91,0 273.25,-122.34 273.25,-273.25 0,-150.91 -122.34,-273.25 -273.25,-273.25zm0 70.46c-112,0 -202.79,90.8 -202.79,202.8 0,112 90.8,202.79 202.79,202.79 112,0 202.8,-90.8 202.8,-202.79 0,-112 -90.8,-202.8 -202.8,-202.8z"/>
  <circle class="fil2 str5" cx="662.57" cy="690.19" r="202.79"/>
 </g>
</svg>
