<?xml version="1.0" encoding="UTF-8"?>
<!DOCTYPE svg PUBLIC "-//W3C//DTD SVG 1.1//EN" "http://www.w3.org/Graphics/SVG/1.1/DTD/svg11.dtd">
<!-- Creator: CorelDRAW 2019 (64-Bit) -->
<svg xmlns="http://www.w3.org/2000/svg" xml:space="preserve" width="6.18344cm" height="2.16868cm" version="1.1" style="shape-rendering:geometricPrecision; text-rendering:geometricPrecision; image-rendering:optimizeQuality; fill-rule:evenodd; clip-rule:evenodd"
viewBox="0 0 6581.54 2308.3"
 xmlns:xlink="http://www.w3.org/1999/xlink">
 <defs>
  <style type="text/css">
   <![CDATA[
    .str4 {stroke:#FEFEFE;stroke-width:21.29;stroke-miterlimit:22.9256}
    .str0 {stroke:black;stroke-width:9.12;stroke-miterlimit:22.9256}
    .str1 {stroke:white;stroke-width:9.12;stroke-miterlimit:22.9256;stroke-dasharray:45.608753 45.608753}
    .str2 {stroke:white;stroke-width:9.12;stroke-miterlimit:22.9256;stroke-dasharray:45.608753 27.365252}
    .str3 {stroke:white;stroke-width:9.12;stroke-miterlimit:22.9256;stroke-dasharray:45.608753 45.608753}
    .fil2 {fill:none}
    .fil4 {fill:#FEFEFE}
    .fil5 {fill:#2B2A29}
    .fil0 {fill:black}
    .fil3 {fill:white}
    .fil6 {fill:black;fill-rule:nonzero}
    .fil1 {fill:white;fill-rule:nonzero}
   ]]>
  </style>
 </defs>
 <g id="Capa_x0020_1">
  <metadata id="CorelCorpID_0Corel-Layer"/>
  <g id="_2083850196512">
   <g>
    <path class="fil0 str0" d="M2055.46 408.91l2035.3 -0.05 -1.71 954.48c-209.98,449.33 -547.78,757.06 -998.1,940.08 -469.87,-164.61 -909.54,-562.04 -1016.84,-950.73l-18.65 -943.79z"/>
    <g>
     <path class="fil0" d="M2137.3 485.1l1871.61 -0.05 -1.58 877.72c-193.1,413.19 -503.73,696.17 -917.83,864.47 -432.08,-151.37 -836.38,-516.83 -935.05,-874.26l-17.16 -867.88z"/>
     <path id="1" class="fil1" d="M2182.91 480.54l0 9.13 -45.61 0 0 -9.13 45.61 0zm91.22 0l0 9.13 -45.61 0 0 -9.13 45.61 0zm91.22 0l0 9.13 -45.61 0 0 -9.13 45.61 0zm91.22 0l0 9.13 -45.61 0 0 -9.13 45.61 0zm91.22 0l0 9.13 -45.61 0 0 -9.13 45.61 0zm91.22 0l0 9.13 -45.61 0 0 -9.13 45.61 0zm91.22 0l0 9.13 -45.61 0 0 -9.13 45.61 0zm91.22 0l0 9.13 -45.61 0 0 -9.13 45.61 0zm91.22 0l0 9.13 -45.61 0 0 -9.13 45.61 0zm91.22 0l0 9.13 -45.61 0 0 -9.13 45.61 0zm91.22 0l0 9.13 -45.61 0 0 -9.13 45.61 0zm91.22 0l0 9.13 -45.61 0 0 -9.13 45.61 0zm91.22 0l0 9.13 -45.61 0 0 -9.13 45.61 0zm91.22 0l0 9.13 -45.61 0 0 -9.13 45.61 0zm91.22 0l0 9.13 -45.61 0 0 -9.13 45.61 0zm91.23 0l0 9.13 -45.62 0 0 -9.13 45.62 0zm91.24 0l0 9.13 -45.62 0 0 -9.13 45.62 0zm91.24 0l0 9.13 -45.62 0 0 -9.13 45.62 0zm91.24 0l0 9.13 -45.62 0 0 -9.13 45.62 0zm91.24 -0.02l0 9.13 -45.62 0.01 0 -9.13 45.62 -0.01zm91.24 -0.02l0 9.13 -45.62 0.01 0 -9.13 45.62 -0.01zm5.95 94.25l-9.13 -0.02 0.07 -45.61 9.13 0.02 -0.07 45.61zm-0.15 91.22l-9.13 -0.02 0.07 -45.61 9.13 0.02 -0.07 45.61zm-0.15 91.22l-9.13 -0.02 0.07 -45.61 9.13 0.02 -0.07 45.61zm-0.16 91.22l-9.13 -0.02 0.09 -45.61 9.13 0.02 -0.09 45.61zm-0.17 91.22l-9.13 -0.02 0.09 -45.61 9.13 0.02 -0.09 45.61zm-0.17 91.22l-9.13 -0.02 0.09 -45.61 9.13 0.02 -0.09 45.61zm-0.17 91.22l-9.13 -0.02 0.09 -45.61 9.13 0.02 -0.09 45.61zm-0.17 91.24l-9.13 -0.02 0.09 -45.62 9.13 0.02 -0.09 45.62zm-0.17 91.24l-9.13 -0.02 0.09 -45.62 9.13 0.02 -0.09 45.62zm-9.25 58.23l0.03 -12.63 9.13 0.02 -0.03 12.63 -0.44 1.92 -8.7 -1.94zm9.13 0.02l0 0.99 -0.44 0.93 0.44 -1.92zm-14.72 31.63l-8.26 -3.85 14.28 -29.72 8.26 3.85 -14.28 29.72zm-42.06 81.17l-8.09 -4.24 18.68 -34.74 2.76 -5.4 8.17 4.04 -2.84 5.59 -18.68 34.74zm-46.26 78.99l-7.77 -4.79 3.29 -5.2 20.23 -33.74 7.88 4.6 -20.34 33.93 -3.29 5.2zm-50.27 76.35l-7.54 -5.15 9.07 -12.94 16.44 -24.71 7.66 4.96 -16.57 24.91 -9.07 12.94zm-54.32 73.56l-7.28 -5.51 16.2 -20.87 11.33 -15.35 7.41 5.32 -11.45 15.54 -16.2 20.87zm-58.25 70.47l-7 -5.85 24.59 -28.67 4.9 -5.99 7.13 5.68 -5.02 6.16 -24.59 28.67zm-62.32 67.05l-6.56 -6.34 7.16 -7.21 24.29 -25.67 6.71 6.19 -24.44 25.82 -7.16 7.21zm-65.94 63.35l-6.24 -6.66 16.66 -15.18 16.59 -15.88 6.39 6.51 -16.74 16.03 -16.66 15.18zm-69.34 59.59l-5.9 -6.96 26.95 -22.27 7.96 -6.91 6.07 6.81 -8.13 7.06 -26.95 22.27zm-72.71 55.6l-5.39 -7.37 6.28 -4.47 30.26 -22.64 5.56 7.24 -30.43 22.77 -6.28 4.47zm-75.56 51.48l-5.02 -7.62 16.4 -10.55 21.54 -14.57 5.19 7.49 -21.71 14.7 -16.4 10.55zm-78.13 47.47l-4.66 -7.83 26.57 -15.42 12.61 -7.72 4.85 7.73 -12.8 7.82 -26.57 15.42zm-80.5 43.51l-4.13 -8.13 0.46 -0.22 35.98 -18.8 3.77 -2.06 4.49 7.94 -3.94 2.17 -36.17 18.88 -0.46 0.22zm-82.49 39.37l-3.79 -8.3 8.79 -3.9 32.51 -15.22 3.96 8.22 -32.68 15.31 -8.79 3.9zm-71.04 29.15l3.02 -8.6 -3.23 0.07 25.73 -10.77 3.6 8.39 -25.9 10.84 -3.23 0.07zm3.23 -0.07l-1.6 0.65 -1.63 -0.57 3.23 -0.07zm-19.78 -5.99l3.02 -8.6 16.55 6.07 -3.02 8.6 -16.55 -6.07zm-84.99 -33.76l3.49 -8.43 20.69 8.91 21.32 8.5 -3.26 8.52 -21.55 -8.59 -20.69 -8.91zm-82.95 -38.52l3.94 -8.24 23.85 11.8 17.14 7.94 -3.73 8.32 -17.35 -8.03 -23.85 -11.8zm-80.75 -42.92l4.36 -8.03 26.29 14.72 13.59 7.16 -4.15 8.13 -13.81 -7.27 -26.29 -14.72zm-78.39 -47.07l4.75 -7.79 28.27 17.73 10.43 6.19 -4.56 7.9 -10.62 -6.3 -28.27 -17.73zm-75.89 -51.01l5.13 -7.54 30.02 20.96 7.41 4.91 -4.94 7.66 -7.6 -5.03 -30.02 -20.96zm-73.2 -54.81l5.49 -7.28 31.77 24.59 4.3 3.16 -5.32 7.41 -4.47 -3.29 -31.77 -24.59zm-70.32 -58.62l6.02 -6.85 0.86 0.78 32.72 28.03 0.87 0.72 -5.66 7.15 -1.06 -0.87 -32.89 -28.17 -0.86 -0.78zm-66.92 -62.33l6.37 -6.54 4.84 4.84 28.01 26.62 -6.19 6.68 -28.18 -26.77 -4.84 -4.84zm-63.26 -66.06l6.71 -6.17 9.28 10.37 21.69 22.94 -6.54 6.37 -21.86 -23.13 -9.28 -10.37zm-59.09 -69.8l7.05 -5.79 14.07 17.7 14.75 17.48 -6.88 5.98 -14.92 -17.67 -14.07 -17.7zm-54.29 -73.61l7.39 -5.34 18.98 27.22 7.35 9.85 -7.22 5.58 -7.53 -10.08 -18.98 -27.22zm-48.55 -77.75l7.9 -4.56 3.58 6.46 19.62 32.62 -7.73 4.83 -19.79 -32.9 -3.58 -6.46zm-41.4 -81.64l8.22 -3.94 9.7 21.34 9.91 19.64 -8.07 4.26 -10.06 -19.96 -9.7 -21.34zm-32.97 -85.62l8.66 -2.85 1.8 5.96 11.81 33.34 1.36 3.35 -8.39 3.6 -1.51 -3.71 -11.94 -33.72 -1.8 -5.96zm-9.78 -91.32l9.11 -0.17 0.89 45.6 -9.11 0.17 -0.89 -45.6zm-1.79 -91.2l9.11 -0.17 0.89 45.6 -9.11 0.17 -0.89 -45.6zm-1.79 -91.2l9.11 -0.17 0.89 45.6 -9.11 0.17 -0.89 -45.6zm-1.8 -91.2l9.11 -0.17 0.9 45.6 -9.11 0.17 -0.9 -45.6zm-1.81 -91.2l9.11 -0.17 0.9 45.6 -9.11 0.17 -0.9 -45.6zm-1.81 -91.21l9.11 -0.17 0.9 45.61 -9.11 0.17 -0.9 -45.61zm-1.81 -91.22l9.11 -0.17 0.9 45.61 -9.11 0.17 -0.9 -45.61zm-1.81 -91.22l9.11 -0.17 0.9 45.61 -9.11 0.17 -0.9 -45.61zm-1.81 -91.22l9.11 -0.17 0.9 45.61 -9.11 0.17 -0.9 -45.61zm7.6 -75.99l0.61 30.21 -9.11 0.17 -0.61 -30.21 4.56 -4.65 4.56 4.48zm-9.11 0.17l-0.1 -4.65 4.65 0 -4.56 4.65z"/>
    </g>
    <path class="fil0 str1" d="M2219.41 561.53l1707.4 -0.05 -1.44 800.71c-176.14,376.94 -459.53,635.1 -837.3,788.63 -394.17,-138.09 -763,-471.49 -853.02,-797.56l-15.65 -791.73z"/>
    <path class="fil2 str2" d="M2227.24 957.39c759.64,4.87 693.26,523.42 852.17,1193.43"/>
    <path class="fil2 str3" d="M3928.47 982.8c-759.65,4.89 -680.44,489.18 -839.34,1159.18"/>
    <path class="fil0" d="M1085.22 1256.31c1.2,-7.01 9.09,-12.28 23.65,-15.78 14.56,-3.51 32.14,-5.09 52.77,-4.74 20.63,0.35 40.95,1.75 60.97,4.2 12.94,1.59 24.37,3.84 34.27,6.75l48.66 14.29c5.41,1.59 10.36,3.37 14.86,5.36 12.73,5.61 17.89,11.92 15.47,18.94 -4.85,12.63 -9.1,24.21 -12.74,34.74 -3.64,10.53 -9.41,28.06 -17.29,52.62 -7.89,24.56 -13.95,46.31 -18.2,65.26 -4.25,18.95 -9.1,40.87 -14.55,65.78 -5.47,24.91 -7.89,46.31 -7.28,64.2 0.61,17.89 2.72,34.38 6.35,49.47 2.04,8.45 5.32,15.48 9.85,21.06 3.41,-0.54 6.96,-1.28 10.67,-2.21 115.25,-28.07 211.71,-155.42 289.35,-382.06 2.43,-7.01 11.22,-11.75 26.39,-14.21 15.17,-2.46 32.75,-2.81 52.77,-1.05 20.02,1.76 39.73,4.4 59.15,7.9 12.66,2.29 23.9,4.87 33.71,7.76l48.66 14.29c5.24,1.54 10.08,3.16 14.51,4.87 1.1,0.42 2.12,0.83 3.1,1.25 0.06,-2.95 0.11,-4.98 0.11,-6.07 0,-11.23 14.86,-19.13 44.59,-23.68 29.73,-4.57 59.15,-4.92 88.27,-1.05 9.41,1.25 17.31,2.81 23.68,4.67l48.65 14.31c13.33,3.92 19.99,9.2 19.99,15.84 0,2.11 -1.21,9.12 -3.64,21.05 -19.42,112.03 -68.17,293.25 -33.41,250.51l15.53 -19.08c4.08,-10.13 8.38,-21.16 12.91,-33.12 10.91,-29.46 19.71,-52.44 26.38,-68.94 6.67,-16.49 16.69,-39.29 30.03,-68.41 13.35,-29.12 27,-53.16 40.95,-72.1 13.95,-18.94 30.64,-39.12 50.05,-60.51 19.41,-21.4 41.26,-39.3 65.51,-53.69 24.28,-14.38 50.36,-25.43 78.26,-33.14 19.4,-5.62 38.21,-8.42 56.4,-8.42 15,0 28.91,1.88 41.73,5.65l48.66 14.29c26.36,7.77 40.18,29.99 46.52,55.39 6.67,26.66 9.41,50.35 8.2,71.05 -1.21,20.69 -3.64,48.59 -7.28,83.67 -3.64,27.37 -5.46,44.91 -5.46,52.62 0,57.54 3.03,109.46 9.1,155.77 4.85,44.2 12.13,78.23 21.84,102.1 1.03,2.57 2.18,4.92 3.47,7.07 10.84,-2.94 23.18,-8.29 37.04,-16.1 13.35,-7.72 27.6,-18.06 42.77,-31.05 15.17,-12.99 29.73,-27.01 43.67,-42.1 13.95,-15.09 28.21,-31.41 42.77,-48.94 14.56,-17.55 27.6,-34.39 39.13,-50.53 11.53,-16.14 22.75,-32.1 33.68,-47.89l11.5 -16.79c-18.25,-88.23 -21.6,-185.46 -9.98,-291.7 -124.22,8.95 -228.63,9.72 -313.18,2.3 -60.67,-6.31 -114.05,-15.97 -160.15,-28.95 -3.12,-0.87 -6.24,-1.77 -9.39,-2.69l-48.65 -14.31c-0.7,-0.2 -1.42,-0.42 -2.13,-0.63 -0.42,-0.13 -0.83,-0.24 -1.25,-0.37 -42.38,-12.63 -87.27,-29.46 -134.64,-50.49 -12.13,-5.62 -13.66,-11.75 -4.56,-18.42 7.95,-5.82 17.06,-7.23 27.33,-4.21l48.66 14.29c1.48,0.45 2.98,0.97 4.51,1.59 40.02,17.5 77.69,32.06 113.01,43.65 37.04,9.25 78.99,15.9 125.86,19.94 93.42,9.13 213.54,7.02 360.33,-6.31 13.35,-87.71 35.2,-168.75 65.52,-243.13 8.48,-21.05 66.73,-24.21 174.7,-9.47 2.71,0.39 5.12,0.89 7.2,1.5 16.22,4.77 32.43,9.54 48.65,14.31 9.09,2.66 12.16,7.43 9.2,14.28 -12.52,31.59 -31.45,96.85 -56.78,195.75 201.27,-23.73 340.18,-26.07 416.77,-7.06 0.15,0.03 0.32,0.07 0.47,0.12 2.2,0.54 4.33,1.12 6.43,1.7 0.65,0.18 1.31,0.35 1.95,0.53 0.31,0.09 0.63,0.17 0.94,0.26l48.65 14.31c1.92,0.56 3.78,1.14 5.6,1.72 54.6,17.55 70.97,48.07 49.13,91.58 -3.63,8.41 -12.73,11.57 -27.29,9.46 -2.63,-0.37 -4.95,-0.86 -6.94,-1.45l-48.66 -14.29c-9.05,-2.66 -11.59,-7.44 -7.61,-14.34 12.06,-25.59 7.44,-44.42 -13.82,-56.51 -78.01,-12.61 -216.11,-6.56 -414.33,18.18l-23.65 3.15c-16.99,72.28 -26.69,117.54 -29.12,135.78 -13.35,110.16 -12.13,209.1 3.64,296.8 9.02,51.77 23.2,86.87 42.54,105.36 1.13,-0.21 2.28,-0.45 3.43,-0.72 6.08,-0.7 12.13,-2.46 18.2,-5.27 84.93,-37.88 192.29,-131.91 322.11,-282.07 5.75,-7.31 14.79,-9.42 27.1,-6.32 42.18,-58.02 106.52,-92.07 193.09,-102.08 2.44,0 5.47,-0.35 9.1,-1.05 41.38,-3.74 77.08,-1.29 107.09,7.32l0.31 0.1c0.28,0.07 0.55,0.15 0.83,0.23l48.66 14.29c25.79,7.58 47.34,19.77 64.66,36.56 2.59,2.47 5.07,5.05 7.44,7.72 4.18,-9.31 8.54,-19.46 13.05,-30.44 4.85,-11.22 7.89,-18.94 9.1,-23.15 2.43,-3.51 4.25,-7.37 5.46,-11.58 3.64,-9.12 16.69,-14.91 39.13,-17.36 20.3,-2.22 39.35,-0.71 57.16,4.51l48.66 14.31c1.88,0.55 3.76,1.15 5.62,1.79 19.41,6.66 27.3,16.32 23.66,28.94 -6.07,23.16 -11.54,46.67 -16.38,70.53 -4.85,23.85 -9.71,54.38 -14.56,91.57 -4.85,37.19 -6.67,70.87 -5.46,101.03 1.21,30.18 6.67,59.13 16.38,86.83 9.7,27.72 24.87,47.55 45.49,59.48 10.92,5.61 12.13,11.75 3.64,18.41 -7.41,5.81 -16.19,7.23 -26.36,4.24 -16.22,-4.77 -32.43,-9.54 -48.65,-14.31 -1.5,-0.44 -3.02,-0.97 -4.58,-1.6 -31.54,-14.04 -60.05,-37.02 -85.52,-68.94 -25.48,-31.93 -44.29,-69.99 -56.42,-114.2 -1.43,-5.3 -2.72,-10.64 -3.92,-16.02 -31.22,49.21 -64.04,89.14 -98.47,119.77 -32.76,29.47 -68.56,50.88 -107.37,64.2 -29.11,9.82 -57.02,14.04 -83.7,12.63 -13.05,-0.9 -25.31,-3.04 -36.79,-6.42l-48.66 -14.29c-15.2,-4.47 -29.03,-11.1 -41.47,-19.89 -24.27,-17.54 -42.46,-43.51 -54.6,-77.89 -1.21,-4.2 -3.02,-8.77 -5.45,-13.68l0 -1.05c-5.25,-20.14 -8.05,-40.04 -8.44,-59.71 -86.07,86.11 -161.06,143.41 -224.98,171.89 -49.74,21.76 -93.42,27.37 -131.03,16.85 -1.43,-0.39 -2.84,-0.8 -4.25,-1.21 -16.22,-4.76 -32.43,-9.53 -48.65,-14.29 -21.28,-6.25 -39.88,-14.97 -55.82,-26.16 -16.99,-11.92 -30.63,-26.66 -40.95,-44.2 -10.31,-17.54 -17.89,-32.1 -22.75,-43.68 -3.47,-8.29 -7.58,-18.83 -12.3,-31.63 -11.67,15.04 -24.41,30.7 -38.22,46.99 -16.38,19.29 -32.75,37.36 -49.13,54.2 -16.38,16.84 -33.68,32.97 -51.87,48.42 -18.2,15.43 -36.4,28.41 -54.59,38.94 -33.98,19.65 -66.74,30.53 -98.27,32.63 -20,1.33 -38.05,-0.37 -54.15,-5.1l-48.66 -14.29c-9.29,-2.72 -17.93,-6.47 -25.93,-11.22 -21.83,-12.99 -40.03,-28.94 -54.59,-47.89 -14.56,-18.95 -24.87,-39.3 -30.93,-61.05 -10.92,-42.8 -17.59,-101.39 -20.02,-175.76 -2.43,-74.38 -4.26,-117.88 -5.46,-130.51 -4.44,-24.58 -9.54,-43.29 -15.31,-56.17 -7.14,3.99 -14.94,9.59 -23.38,16.79 -14.56,11.93 -27.92,25.27 -40.04,40 -12.13,14.73 -23.05,32.27 -32.76,52.62 -9.71,20.35 -16.98,36.49 -21.83,48.42 -4.85,11.92 -11.84,30.87 -20.94,56.84 -9.1,25.96 -15.45,42.8 -19.11,50.52 -1.21,3.51 -2.72,9.29 -4.54,17.36 -1.82,8.08 -3.95,15.97 -6.38,23.68 -2.43,7.73 -5.45,16.67 -9.1,26.84 -3.63,10.18 -7.58,19.3 -11.83,27.37 -4.25,8.07 -9.4,16.67 -15.47,25.78 -6.07,9.12 -12.44,16.32 -19.11,21.59 -6.67,5.26 -14.87,10.18 -24.57,14.73 -9.72,4.57 -20.02,6.49 -30.94,5.79 -10.92,-0.7 -35.09,-6.19 -44.62,-14.03 -1.49,-0.42 12.29,-0.46 12.76,-1.15 -5.29,1.03 -10.75,1.37 -16.37,1.01 -10.91,-0.7 -23.65,-2.46 -38.21,-5.27 -0.23,-0.06 -0.48,-0.15 -0.72,-0.21 -21.73,-6.39 -41.66,-23.19 -59.77,-50.43 -16.99,-25.96 -28.51,-60.87 -34.58,-104.72 -6.07,-43.85 -8.2,-92.97 -6.37,-147.35 0.46,-13.6 0.85,-25.68 1.19,-36.23 -1.63,3.75 -3.4,7.78 -5.31,12.11 -12.73,28.77 -24.86,57.19 -36.4,85.26 -11.52,28.06 -22.75,62.27 -33.66,102.62 -10.92,40.34 -17.9,77.01 -20.94,109.98 -3.02,32.99 0.31,65.26 10.02,96.84 9.71,31.57 26.69,55.77 50.95,72.62 9.71,7.01 8.8,12.97 -2.72,17.89 -7.67,3.27 -20.12,2.37 -26.97,0.36l-43.5 -12.78c-3.44,-1.01 -6.79,-2.69 -10.04,-5.03 -73.77,-53.19 -115.53,-157.29 -125.32,-312.23 -71.4,117 -149.28,185.86 -233.66,206.53 -26.92,7.04 -51.35,7.32 -73.29,0.87l-48.66 -14.29c-8.72,-2.57 -17.04,-6.18 -24.97,-10.87 -27.91,-16.49 -48.83,-41.22 -62.79,-74.21 -13.95,-32.97 -24.86,-68.24 -32.75,-105.77 -7.9,-37.54 -12.44,-75.08 -13.65,-112.62 -1.22,-37.54 -1.83,-66.66 -1.83,-87.35 0,-20.7 0.61,-32.8 1.83,-36.32zm3286.46 21.44c0.18,0.06 0.36,0.11 0.54,0.16 0.11,0.03 0.22,0.06 0.32,0.1l41.18 12.1c-3.04,-14.18 -6.09,-28.6 -9.13,-43.27 -15.77,-96.13 -13.66,-186.47 6.37,-271.02 20.02,-84.54 59.15,-149.63 117.39,-195.24 32.75,-25.96 62.48,-41.75 89.16,-47.35 19.69,-3.95 37.26,-3.65 52.7,0.88l48.66 14.29c9.28,2.74 17.81,6.99 25.56,12.79 15.77,11.93 27.29,30.18 34.57,54.73 23.05,77.19 10.31,187.7 -38.21,331.54 -16.99,51.22 -53.38,123.14 -109.19,215.76 1.21,37.89 5.16,73.85 11.83,107.89 6.67,34.03 15.17,65.25 25.48,93.67 10.31,28.42 23.66,52.97 40.04,73.68 16.37,20.7 34.27,35.61 53.68,44.74 12.13,5.61 13.35,11.75 3.64,18.41 -7.75,5.32 -15.88,6.74 -24.41,4.23l-48.65 -14.29c-2.15,-0.63 -4.33,-1.51 -6.54,-2.65 -67.09,-31.63 -124.95,-85.12 -173.6,-160.43 -33.12,38.4 -65.8,67.54 -98.03,87.38 -47.31,29.47 -93.42,38.59 -138.31,27.37l-48.65 -14.29 -1.39 -0.81 -5.78 -1.69c-0.17,-0.05 -0.33,-0.1 -0.5,-0.15l-0.09 -0.02c-14.87,-4.45 -29.27,-11.62 -43.2,-21.53 -30.32,-22.46 -51.56,-51.93 -63.69,-88.42 -10.91,-35.08 -9.71,-69.46 3.64,-103.14 14.55,-40 44.28,-74.73 89.16,-104.2 24.28,-16.84 49.75,-28.07 76.44,-33.68 30.73,-6.59 60.4,-5.75 89.01,2.49zm1033.41 425.51l-0.47 -0.14c-1.5,-0.44 -3.02,-0.97 -4.58,-1.6 -31.54,-14.04 -60.05,-37.02 -85.52,-68.94 -25.48,-31.93 -44.29,-69.99 -56.42,-114.2 -1.43,-5.3 -2.72,-10.64 -3.92,-16.02 -31.22,49.21 -64.04,89.14 -98.47,119.77 -32.76,29.47 -68.56,50.88 -107.37,64.2 -29.11,9.82 -57.02,14.04 -83.7,12.63 -13.05,-0.9 -25.31,-3.04 -36.79,-6.42l-48.66 -14.29c-15.2,-4.47 -29.03,-11.1 -41.47,-19.89 -24.27,-17.54 -42.47,-43.51 -54.6,-77.89 -1.21,-4.2 -3.02,-8.77 -5.46,-13.68l0 -1.05c-16.98,-65.26 -8.48,-128.06 25.48,-188.4 41.24,-71.57 110.41,-112.97 207.46,-124.2 2.43,0 5.46,-0.35 9.1,-1.05 41.39,-3.74 77.09,-1.3 107.11,7.33l0.27 0.07c0.29,0.07 0.57,0.16 0.85,0.24l48.66 14.29c25.79,7.58 47.34,19.77 64.65,36.56 2.6,2.47 5.08,5.05 7.45,7.73 4.18,-9.32 8.54,-19.47 13.05,-30.45 4.85,-11.22 7.89,-18.94 9.1,-23.15 2.43,-3.51 4.25,-7.37 5.46,-11.58 3.64,-9.12 16.68,-14.91 39.12,-17.36 20.3,-2.22 39.35,-0.71 57.17,4.51l48.65 14.31c1.89,0.55 3.77,1.15 5.63,1.79 19.41,6.66 27.3,16.32 23.65,28.94 -6.06,23.16 -11.53,46.67 -16.37,70.53 -4.85,23.85 -9.71,54.38 -14.56,91.57 -4.85,37.19 -6.67,70.87 -5.46,101.03 1.21,30.18 6.66,59.13 16.38,86.83 9.7,27.72 24.87,47.55 45.49,59.48 10.92,5.61 12.13,11.75 3.64,18.41 -7.41,5.81 -16.19,7.23 -26.36,4.24l-48.18 -14.17zm183.12 -290.8l-1.7 -0.5c-1.58,-0.46 -3.13,-0.93 -4.66,-1.37l-0.62 -0.19c-44.76,-13.35 -75.44,-25.07 -92.01,-35.15 -18.19,-11.93 -29.11,-25.62 -32.76,-41.05 -4.84,-25.26 11.84,-47.54 50.05,-66.83 38.22,-19.3 84.01,-32.27 137.4,-38.94 53.38,-6.67 100.7,-6.49 141.95,0.52 4.58,0.76 8.83,1.71 12.79,2.87l48.66 14.29c10.74,3.16 19.21,7.81 25.42,13.96 7.28,7.73 9.71,16.84 7.28,27.37 -3.64,16.84 -17.59,34.04 -41.85,51.57 -8.06,5.25 -16.74,6.5 -26.06,3.77l-48.65 -14.29c-1.91,-0.56 -3.84,-1.29 -5.8,-2.18 -11.53,-5.27 -12.44,-11.06 -2.74,-17.37 19.41,-14.03 30.33,-27.01 32.76,-38.94 0,-0.71 -0.02,-1.39 -0.07,-2.05 -6.81,0.85 -14.23,2.09 -22.23,3.71 -42.47,7.72 -75.84,21.05 -100.09,39.99 -7.28,6.32 -12.13,12.28 -14.56,17.9 -2.43,5.61 -2.43,10.87 0,15.78 4.85,9.12 16.99,17.89 36.4,26.31 7.27,2.8 20.62,8.07 40.03,15.78 74.82,31.42 129.72,57.33 164.7,77.72 35.61,-5.44 68.23,-14.36 97.84,-26.76 35.18,-14.74 69.14,-40.35 101.9,-76.84 6.07,-7.72 15.77,-9.64 29.12,-5.78 0.09,0.02 0.16,0.04 0.26,0.06l48.65 14.31c13.12,3.85 16.07,9.62 8.85,17.29 -33.98,38.59 -69.46,66.48 -106.46,83.68 -37.01,17.18 -77.96,28.59 -122.84,34.2 30.32,27.37 43.98,53.33 40.95,77.89 -3.03,24.56 -15.47,45.61 -37.31,63.15 -21.84,17.54 -53.69,30.52 -95.54,38.94 -41.85,8.43 -86.45,9.83 -133.76,4.21 -20.08,-1.94 -38.88,-5.47 -56.38,-10.62l-48.65 -14.29 -0.76 -0.22c-13.93,-4.13 -27.04,-9.29 -39.32,-15.47l-1.77 -1.02 -3.69 -1.09c-8.49,-6.31 -14.56,-14.03 -18.2,-23.16 -4.85,-16.83 1.21,-35.43 18.2,-55.77 16.99,-20.35 41.85,-38.59 74.61,-54.74 38.83,-18.94 84.32,-31.22 136.49,-36.83 2.43,-0.7 5.46,-1.05 9.1,-1.05 -12.73,-6.26 -32.84,-13.69 -60.28,-22.27 -13.55,-3.78 -28.2,-7.73 -43.94,-11.86 -19.67,-5.15 -37.59,-10.1 -53.76,-14.86l-46.95 -13.79zm-978.06 -197.57c18.52,-36.81 31.29,-65.81 38.31,-86.98 47.31,-140.34 60.05,-247.69 38.21,-322.06 -3.81,-12.79 -8.82,-23.22 -15.03,-31.3 -16.86,5.53 -30.81,16 -41.86,31.39 -13.35,18.59 -22.75,42.62 -28.21,72.09 -5.46,29.47 -9.1,59.12 -10.91,88.94 -1.83,29.82 -0.93,64.03 2.72,102.62 3.64,38.59 6.97,70.34 10.01,95.25 1.89,15.58 4.15,32.27 6.76,50.06zm389.56 422.06c10.01,-2.81 20,-7.25 30,-13.32 12.73,-7.72 26.39,-17.53 40.95,-29.46 43.67,-40 86.13,-97.19 127.39,-171.56 -4.85,-52.62 -19.41,-90.52 -43.68,-113.68 -5.39,-5.1 -11.28,-9.52 -17.66,-13.25 -30.31,-2.32 -56.74,5.11 -79.26,22.29 -26.69,20.35 -45.19,47.54 -55.51,81.56 -10.31,34.04 -17.59,69.64 -21.84,106.83 -4.25,37.19 -2.72,69.11 4.56,95.78 3.65,14.77 8.66,26.38 15.06,34.79zm649.49 1.21c18.86,-0.3 39.84,-4.61 62.96,-12.94 41.85,-15.09 76.12,-35.97 102.82,-62.63 17.65,-17.01 25.1,-32.5 22.37,-46.48 -42.61,4.37 -80.56,14.81 -113.85,31.31 -27.91,13.33 -48.53,28.41 -61.87,45.26 -13.35,16.14 -18.2,29.81 -14.56,41.04 0.46,1.58 1.17,3.07 2.13,4.44zm-1188.19 -206.07c-8.49,-19.65 -16.38,-40 -23.65,-61.05 -7.28,-10.53 -15.17,-20.35 -23.67,-29.46 -2.62,-2.77 -5.26,-5.29 -7.9,-7.56 -16.31,4.07 -32.94,16.79 -49.9,38.16 -37,46.66 -57.33,101.93 -60.96,165.78 -1.2,27.06 1.91,46.98 9.3,59.81 8.97,-2.8 18.77,-7.5 29.39,-14.11 33.96,-21.05 69.77,-54.38 107.36,-99.99 7.29,-8.42 13.96,-16.84 20.02,-25.26 1.21,-8.43 1.21,-17.19 0,-26.31zm-658.78 -9.47c-4.85,-52.62 -19.4,-90.52 -43.68,-113.68 -5.39,-5.1 -11.28,-9.52 -17.66,-13.25 -30.31,-2.32 -56.74,5.11 -79.26,22.29 -26.69,20.35 -45.19,47.54 -55.51,81.56 -10.31,34.04 -17.59,69.64 -21.84,106.83 -4.24,37.19 -2.72,69.11 4.56,95.78 3.65,14.77 8.67,26.38 15.06,34.79 10.01,-2.81 20,-7.25 30,-13.32 12.74,-7.72 26.39,-17.53 40.95,-29.46 43.67,-40 86.13,-97.19 127.39,-171.56z"/>
    <path class="fil1" d="M1085.22 1256.31c1.2,-7.01 9.09,-12.28 23.65,-15.78 14.56,-3.51 32.14,-5.09 52.77,-4.74 20.63,0.35 40.95,1.75 60.97,4.2 20.02,2.46 36.4,6.49 49.14,12.1 12.73,5.62 17.88,11.93 15.45,18.95 -4.84,12.63 -9.1,24.21 -12.73,34.74 -3.65,10.52 -9.41,28.06 -17.3,52.62 -7.89,24.56 -13.94,46.31 -18.19,65.25 -4.25,18.96 -9.1,40.87 -14.56,65.79 -5.46,24.91 -7.89,46.31 -7.28,64.2 0.61,17.89 2.74,34.38 6.37,49.46 3.64,15.09 11.23,25.61 22.75,31.58 11.53,5.96 27,6.49 46.42,1.58 115.25,-28.07 211.71,-155.42 289.35,-382.06 2.43,-7.01 11.22,-11.75 26.39,-14.21 15.17,-2.46 32.75,-2.81 52.77,-1.05 20.02,1.76 39.73,4.4 59.15,7.9 19.41,3.5 35.49,7.72 48.23,12.63 12.74,4.91 17.89,9.12 15.47,12.62 0,3.51 -6.38,19.65 -19.12,48.42 -12.73,28.77 -24.86,57.19 -36.39,85.26 -11.52,28.06 -22.75,62.27 -33.66,102.62 -10.92,40.34 -17.9,77.01 -20.94,109.98 -3.03,32.97 0.3,65.26 10.02,96.83 9.7,31.58 26.68,55.78 50.94,72.62 9.71,7.02 8.8,12.99 -2.72,17.9 -11.53,4.91 -22.14,3.85 -31.85,-3.16 -88.57,-63.85 -131.03,-201.03 -127.39,-411.53 -83.71,169.1 -177.13,266.29 -280.25,291.54 -37.62,9.82 -70.37,6.49 -98.27,-9.99 -27.91,-16.49 -48.83,-41.22 -62.79,-74.21 -13.95,-32.97 -24.86,-68.24 -32.75,-105.77 -7.9,-37.54 -12.44,-75.08 -13.65,-112.62 -1.22,-37.54 -1.83,-66.66 -1.83,-87.35 0,-20.7 0.61,-32.8 1.83,-36.32zm735.2 12.63c0,-11.23 14.86,-19.13 44.59,-23.68 29.73,-4.57 59.15,-4.92 88.27,-1.05 29.11,3.85 43.67,10.7 43.67,20.52 0,2.11 -1.21,9.12 -3.64,21.05 -40.03,230.84 -44.9,340.66 -14.56,329.43 10.92,-4.2 30.33,-43.15 58.24,-116.83 10.91,-29.46 19.71,-52.44 26.38,-68.94 6.67,-16.49 16.69,-39.29 30.03,-68.41 13.35,-29.12 27,-53.16 40.95,-72.1 13.95,-18.94 30.64,-39.12 50.05,-60.51 19.41,-21.4 41.26,-39.3 65.51,-53.69 24.28,-14.38 50.36,-25.43 78.26,-33.14 19.4,-5.62 38.21,-8.42 56.4,-8.42 19.41,0 37.01,3.15 52.78,9.47 16.99,7.71 28.81,24.91 35.49,51.57 6.67,26.66 9.41,50.35 8.2,71.04 -1.21,20.7 -3.65,48.59 -7.28,83.68 -9.26,69.51 -5.47,138.88 3.63,208.4 4.86,44.2 12.13,78.23 21.85,102.1 12.12,30.16 41.84,31.92 89.16,5.26 13.35,-7.72 27.6,-18.06 42.77,-31.05 15.17,-12.99 29.73,-27.01 43.67,-42.1 13.95,-15.09 28.21,-31.41 42.77,-48.94 14.56,-17.55 27.6,-34.39 39.13,-50.53 11.53,-16.14 22.75,-32.1 33.68,-47.89 10.92,-15.8 20.01,-29.3 27.29,-40.52 7.28,-11.23 13.35,-20.87 18.2,-28.95 4.85,-8.07 7.28,-12.1 7.28,-12.1 1.21,-2.11 3.03,-3.85 5.45,-5.26 7.29,-2.81 15.18,-3.33 23.66,-1.58 8.49,1.75 12.74,5.43 12.74,11.05 1.21,2.11 0.61,4.2 -1.81,6.31 0,0 -2.44,4.03 -7.29,12.1 -4.84,8.08 -11.22,18.07 -19.11,29.99 -7.89,11.93 -17.59,26.49 -29.12,43.68 -11.53,17.19 -23.96,34.56 -37.3,52.1 -13.36,17.54 -28.22,35.95 -44.6,55.25 -16.37,19.3 -32.75,37.37 -49.13,54.21 -16.38,16.84 -33.67,32.97 -51.86,48.42 -18.2,15.43 -36.4,28.41 -54.6,38.94 -33.96,19.65 -66.73,30.53 -98.26,32.63 -31.55,2.1 -58.24,-3.34 -80.08,-16.32 -21.83,-12.99 -40.03,-28.94 -54.59,-47.89 -14.56,-18.95 -24.87,-39.3 -30.93,-61.05 -10.92,-42.8 -17.59,-101.39 -20.02,-175.76 -2.43,-74.38 -4.26,-117.88 -5.46,-130.51 -8.48,-47.01 -19.41,-72.62 -32.76,-76.83 -13.34,-4.21 -31.54,3.5 -54.59,23.15 -14.56,11.93 -27.91,25.26 -40.03,40 -12.13,14.73 -23.05,32.27 -32.76,52.62 -9.71,20.35 -16.99,36.49 -21.84,48.42 -4.85,11.92 -11.83,30.87 -20.93,56.83 -9.1,25.96 -15.47,42.81 -19.11,50.53 -1.21,3.51 -2.72,9.29 -4.56,17.36 -1.82,8.07 -3.94,15.97 -6.37,23.68 -2.43,7.72 -5.46,16.67 -9.1,26.84 -3.64,10.18 -7.58,19.3 -11.83,27.37 -4.26,8.07 -9.4,16.66 -15.48,25.78 -6.07,9.12 -12.43,16.32 -19.1,21.59 -6.67,5.26 -14.87,10.18 -24.58,14.73 -9.71,4.56 -20.02,6.49 -30.94,5.79 -10.91,-0.7 -23.65,-2.46 -38.21,-5.27 -21.84,-6.31 -41.86,-23.15 -60.05,-50.52 -16.99,-25.96 -28.51,-60.87 -34.58,-104.72 -6.07,-43.85 -8.2,-92.97 -6.37,-147.35 1.82,-54.38 2.72,-84.37 2.72,-89.98zm1042.77 -421.01c8.48,-21.05 66.73,-24.21 174.7,-9.47 14.56,2.11 20.02,7.37 16.38,15.78 -13.34,33.68 -33.96,105.61 -61.87,215.77l7.28 0c241.43,-30.88 400.96,-33.69 478.62,-8.43 54.59,17.55 70.97,48.07 49.13,91.57 -3.64,8.42 -12.74,11.58 -27.3,9.47 -14.55,-2.11 -19.41,-7.37 -14.55,-15.78 14.55,-30.88 4.84,-51.92 -29.12,-63.15 -67.95,-21.76 -217.17,-18.24 -447.68,10.53l-23.66 3.15c-16.99,72.28 -26.68,117.53 -29.12,135.78 -13.35,110.16 -12.13,209.1 3.65,296.8 15.76,90.52 47.3,130.15 94.62,118.93 6.08,-0.7 12.13,-2.46 18.2,-5.27 84.93,-37.88 192.29,-131.91 322.11,-282.07 6.06,-7.72 15.77,-9.64 29.12,-5.78 13.34,3.85 16.98,9.64 10.91,17.36 -133.45,153.66 -245.07,250.49 -334.85,290.49l0 0c-49.74,21.76 -93.42,27.37 -131.03,16.84 -23.04,-6.31 -43.06,-15.43 -60.05,-27.37 -16.99,-11.92 -30.63,-26.66 -40.95,-44.2 -10.31,-17.54 -17.89,-32.1 -22.75,-43.68 -4.85,-11.57 -10.92,-27.54 -18.2,-47.89 -1.21,-4.91 -2.43,-8.42 -3.64,-10.52 -37.6,-112.97 -47.31,-242.79 -29.11,-389.44 -146.81,12.63 -268.13,14.74 -363.97,6.31 -60.67,-6.31 -114.05,-15.96 -160.16,-28.94 -46.1,-12.97 -95.23,-31.05 -147.4,-54.2 -12.13,-5.62 -13.66,-11.75 -4.56,-18.42 9.1,-6.66 19.71,-7.55 31.85,-2.63 49.74,21.76 95.85,38.95 138.31,51.57 42.47,12.63 92.21,21.4 149.23,26.31 93.42,9.13 213.54,7.02 360.33,-6.31 13.35,-87.71 35.2,-168.75 65.52,-243.13zm1017.28 405.21c3.64,-9.12 16.69,-14.91 39.13,-17.36 22.45,-2.46 43.37,-0.35 62.79,6.31 19.41,6.66 27.29,16.32 23.65,28.94 -6.07,23.16 -11.53,46.66 -16.37,70.53 -4.85,23.85 -9.72,54.38 -14.56,91.57 -4.85,37.19 -6.68,70.87 -5.46,101.03 1.21,30.18 6.67,59.12 16.37,86.83 9.71,27.72 24.87,47.55 45.5,59.47 10.92,5.62 12.13,11.76 3.64,18.42 -8.49,6.66 -18.81,7.55 -30.94,2.63 -31.54,-14.04 -60.05,-37.02 -85.52,-68.94 -25.48,-31.93 -44.29,-69.99 -56.42,-114.2 -8.49,-31.58 -12.74,-64.55 -12.74,-98.93l-3.63 7.37c0,0.7 -0.61,1.4 -1.82,2.11 -41.26,77.19 -85.54,136.83 -132.86,178.92 -32.76,29.47 -68.55,50.88 -107.37,64.2 -29.11,9.82 -57.02,14.04 -83.7,12.63 -30.33,-2.11 -56.41,-10.88 -78.25,-26.31 -24.27,-17.54 -42.46,-43.51 -54.6,-77.89 -1.21,-4.2 -3.02,-8.77 -5.45,-13.68l0 -1.05c-16.99,-65.26 -8.49,-128.06 25.47,-188.4 41.26,-71.57 110.41,-112.97 207.46,-124.2 2.44,0 5.47,-0.35 9.1,-1.05 77.66,-7.01 135.27,7.73 172.89,44.21 16.99,16.14 29.12,36.84 36.4,62.1 9.7,-17.54 20.62,-41.05 32.75,-70.53 4.85,-11.22 7.89,-18.94 9.1,-23.15 2.43,-3.51 4.25,-7.37 5.46,-11.58zm-78.25 169.46c-4.85,-52.62 -19.4,-90.52 -43.68,-113.68 -13.34,-12.62 -29.72,-21.05 -49.13,-25.26 -37.6,-7.01 -69.76,-0.35 -96.45,20 -26.68,20.34 -45.18,47.54 -55.5,81.56 -10.31,34.04 -17.59,69.64 -21.84,106.83 -4.25,37.19 -2.74,69.11 4.54,95.77 4.85,19.65 12.13,33.69 21.84,42.11 9.71,8.42 20.93,11.4 33.67,8.94 12.74,-2.46 25.48,-7.54 38.22,-15.26 12.74,-7.72 26.39,-17.53 40.95,-29.46 43.67,-40 86.13,-97.19 127.39,-171.56zm771.61 -138.93c38.83,-70.87 63.69,-122.8 74.61,-155.77 47.31,-140.34 60.05,-247.69 38.21,-322.06 -6.06,-20.35 -15.17,-34.74 -27.3,-43.16 -7.28,-5.61 -15.76,-7.37 -25.47,-5.26 -21.83,4.2 -39.42,15.61 -52.77,34.21 -13.35,18.58 -22.75,42.62 -28.21,72.09 -5.47,29.47 -9.1,59.12 -10.92,88.94 -1.82,29.82 -0.92,64.02 2.72,102.62 3.65,38.59 6.98,70.34 10.01,95.25 3.04,24.91 6.98,52.62 11.84,83.15 4.85,30.52 7.28,47.18 7.28,49.99zm9.1 65.26c1.21,37.88 5.15,73.85 11.83,107.89 6.67,34.03 15.17,65.25 25.48,93.67 10.3,28.42 23.66,52.97 40.03,73.68 16.38,20.7 34.28,35.61 53.69,44.74 12.13,5.61 13.35,11.75 3.64,18.41 -9.71,6.66 -20.02,7.2 -30.94,1.58 -78.86,-37.19 -144.98,-104.54 -198.36,-202.08 -1.21,0.7 -1.82,1.4 -1.82,2.11 -2.43,2.81 -4.25,4.57 -5.46,5.27 -38.83,48.42 -77.04,84.19 -114.64,107.35 -47.32,29.47 -93.42,38.59 -138.31,27.37l-1.83 -1.05c-16.98,-4.21 -33.36,-11.93 -49.13,-23.15 -30.32,-22.46 -51.56,-51.93 -63.69,-88.42 -10.91,-35.08 -9.71,-69.46 3.64,-103.14 14.55,-40 44.28,-74.73 89.16,-104.2 24.28,-16.84 49.75,-28.07 76.44,-33.68l0 0c32.75,-7.01 64.3,-5.61 94.62,4.2 13.35,4.92 26.1,11.23 38.22,18.95 -3.64,-16.84 -7.28,-34.03 -10.92,-51.57 -15.77,-96.13 -13.66,-186.47 6.37,-271.02 20.02,-84.54 59.15,-149.63 117.39,-195.24 32.75,-25.96 62.48,-41.75 89.16,-47.35 31.55,-6.32 57.64,-1.76 78.25,13.68 15.77,11.93 27.3,30.18 34.58,54.73 23.04,77.19 10.3,187.69 -38.22,331.54 -16.98,51.22 -53.38,123.14 -109.18,215.76zm-121.94 83.15c-8.49,-19.65 -16.38,-40 -23.65,-61.05 -7.28,-10.53 -15.17,-20.35 -23.67,-29.46 -33.96,-35.78 -69.44,-30.36 -106.45,16.31 -37,46.66 -57.33,101.93 -60.97,165.77 -2.43,54.73 12.74,80.35 45.5,76.84 12.12,-1.4 26.08,-7.01 41.85,-16.84 33.96,-21.05 69.77,-54.38 107.36,-99.99 7.29,-8.42 13.96,-16.84 20.02,-25.26 1.21,-8.43 1.21,-17.19 0,-26.31zm815.3 -178.93c3.64,-9.12 16.68,-14.91 39.12,-17.36 22.46,-2.46 43.38,-0.35 62.8,6.31 19.41,6.66 27.29,16.32 23.65,28.94 -6.07,23.16 -11.53,46.66 -16.38,70.53 -4.84,23.85 -9.71,54.38 -14.55,91.57 -4.85,37.19 -6.68,70.87 -5.46,101.03 1.21,30.18 6.66,59.12 16.37,86.83 9.71,27.72 24.87,47.55 45.5,59.47 10.91,5.62 12.13,11.76 3.64,18.42 -8.49,6.66 -18.81,7.55 -30.94,2.63 -31.54,-14.04 -60.05,-37.02 -85.52,-68.94 -25.48,-31.93 -44.29,-69.99 -56.42,-114.2 -8.49,-31.58 -12.74,-64.55 -12.74,-98.93l-3.64 7.37c0,0.7 -0.61,1.4 -1.81,2.11 -41.26,77.19 -85.54,136.83 -132.86,178.92 -32.76,29.47 -68.55,50.88 -107.37,64.2 -29.11,9.82 -57.02,14.04 -83.7,12.63 -30.33,-2.11 -56.42,-10.88 -78.25,-26.31 -24.27,-17.54 -42.47,-43.51 -54.6,-77.89 -1.21,-4.2 -3.02,-8.77 -5.46,-13.68l0 -1.05c-16.98,-65.26 -8.48,-128.06 25.48,-188.4 41.24,-71.57 110.41,-112.97 207.46,-124.2 2.43,0 5.46,-0.35 9.1,-1.05 77.65,-7.01 135.27,7.73 172.89,44.21 16.99,16.14 29.12,36.84 36.39,62.1 9.71,-17.54 20.63,-41.05 32.76,-70.53 4.85,-11.22 7.89,-18.94 9.1,-23.15 2.43,-3.51 4.25,-7.37 5.46,-11.58zm-78.25 169.46c-4.85,-52.62 -19.41,-90.52 -43.68,-113.68 -13.34,-12.62 -29.72,-21.05 -49.13,-25.26 -37.62,-7.01 -69.77,-0.35 -96.45,20 -26.68,20.34 -45.19,47.54 -55.5,81.56 -10.31,34.04 -17.59,69.64 -21.85,106.83 -4.24,37.19 -2.72,69.11 4.56,95.77 4.85,19.65 12.13,33.69 21.84,42.11 9.71,8.42 20.93,11.4 33.67,8.94 12.74,-2.46 25.48,-7.54 38.22,-15.26 12.73,-7.72 26.39,-17.53 40.95,-29.46 43.67,-40 86.13,-97.19 127.39,-171.56zm409.47 207.34l0 1.05c27.91,11.23 62.78,9.29 104.64,-5.79 41.85,-15.09 76.12,-35.97 102.82,-62.63 25.47,-24.56 29.73,-45.96 12.73,-64.2 -15.76,0.7 -27.9,1.76 -36.39,3.16 -43.68,4.21 -82.5,14.73 -116.48,31.58 -27.9,13.33 -48.53,28.41 -61.87,45.25 -13.35,16.15 -18.2,29.82 -14.55,41.05 1.2,4.2 4.24,7.72 9.1,10.53zm-29.12 18.95c-1.21,-0.7 -2.43,-1.4 -3.64,-2.11l0 0 -1.82 0c-8.49,-6.31 -14.56,-14.03 -18.2,-23.16 -4.85,-16.83 1.21,-35.43 18.2,-55.77 16.99,-20.35 41.85,-38.59 74.61,-54.74 38.83,-18.94 84.32,-31.22 136.49,-36.83 2.43,-0.7 5.46,-1.05 9.1,-1.05 -24.27,-11.93 -75.22,-28.07 -152.87,-48.42 -77.65,-20.34 -127.99,-37.54 -151.05,-51.57 -18.19,-11.93 -29.11,-25.62 -32.76,-41.05 -4.84,-25.26 11.84,-47.54 50.05,-66.83 38.22,-19.3 84.01,-32.27 137.4,-38.94 53.38,-6.67 100.7,-6.49 141.95,0.52 16.99,2.81 29.73,8.42 38.22,16.84 7.28,7.72 9.7,16.84 7.28,27.37 -3.65,16.84 -17.59,34.04 -41.86,51.57 -9.7,6.32 -20.33,6.84 -31.85,1.59 -11.53,-5.27 -12.44,-11.06 -2.74,-17.37 19.41,-14.03 30.33,-27.01 32.76,-38.94 0,-4.92 -1.21,-8.78 -3.64,-11.58 -1.21,-2.11 -4.85,-3.86 -10.92,-5.27 -13.35,-2.11 -32.14,-0.7 -56.41,4.21 -42.47,7.72 -75.83,21.05 -100.08,39.99 -7.29,6.32 -12.13,12.28 -14.57,17.89 -2.43,5.62 -2.43,10.88 0,15.8 4.86,9.12 16.99,17.89 36.4,26.31 7.27,2.8 20.63,8.07 40.04,15.78 88.56,37.19 149.22,66.66 181.98,88.41 3.64,2.11 7.28,4.21 10.92,6.32 43.67,-4.92 83.1,-14.74 118.3,-29.47 35.18,-14.74 69.14,-40.35 101.9,-76.84 6.07,-7.72 15.77,-9.64 29.12,-5.78 13.35,3.85 16.37,9.64 9.09,17.36 -33.96,38.59 -69.45,66.48 -106.46,83.68 -37,17.18 -77.94,28.59 -122.84,34.2 30.33,27.37 43.98,53.33 40.95,77.89 -3.02,24.56 -15.45,45.6 -37.31,63.15 -21.83,17.53 -53.69,30.52 -95.54,38.94 -41.85,8.42 -86.44,9.82 -133.76,4.21 -36.39,-3.51 -68.54,-12.28 -96.44,-26.31z"/>
    <g>
     <path class="fil3 str4" d="M662.49 300.34c-5.07,24.15 -9.74,56.3 -11.68,82.2 227.47,-61.37 721.97,-117.72 648.18,250.32 -46.73,208.64 -155.4,390.52 -563.71,584.86 -132.19,64.04 134.36,16.67 163.35,6.9 107.08,-36.05 200.31,-85.29 285.95,-154.76 556.03,-385.67 272.98,-992.18 -522.09,-769.52z"/>
     <path class="fil4" d="M168.4 1020.44c11.31,3.09 75.09,16.24 77.65,-0.67 2.8,-38.69 -395.24,-265.01 345.57,-615.97 3.08,-36.31 4.37,-59.34 9.69,-87.32 -520.94,204.28 -780.86,605.68 -432.91,703.96z"/>
     <path class="fil2" d="M651.27 398.7l-12.89 121.53c26.18,-12.36 67.76,-96.92 72.65,-137.69l-59.77 16.16z"/>
     <path class="fil5" d="M1350.68 933.65c-0.11,0.07 -2.61,2.2 -3.82,3.52 -4.51,5.22 -10.46,11.4 -15.22,16.57 -26.05,31.89 -110.28,98.58 -147.05,124.11 -52.5,42.59 -213.48,172.79 -485.67,177.27 0.59,1.97 4.29,4.64 9.45,6.02 335.81,89.91 645.77,-325.57 642.31,-327.5z"/>
     <path class="fil0" d="M9.71 856.31c-60.8,161.84 182.01,197.54 230.99,169.39l-0.01 0c-16.04,7.09 -62.77,-2.65 -72.29,-5.25 -107.61,-30.4 -157.02,-89.8 -158.6,-163.38l-0.09 -0.76z"/>
    </g>
    <path class="fil0" d="M711.28 380.87c0,0 -72.89,178.06 -72.89,178.06l12.89 -162.96c19.91,-6.46 40.07,-11.04 60,-15.1zm-529.89 314.68c2.25,-5.27 90.04,-97.44 199.23,-166.78 81.06,-51.46 158.48,-94.19 209.84,-114.18 -4.5,95.29 4.95,219.68 -14.87,300.13 -74.47,302.78 -246.16,999.17 -246.16,999.17 -24.32,80.03 -51.82,147.36 -66.17,217.66 -12.56,61.64 -16.76,143.47 -8.83,195.56 1.1,7.17 2.42,13.78 3.99,19.7l16.6 -16.82c35.16,-49 69.39,-109.99 90.72,-167.19 17.67,-47.38 20.88,-144.11 41.43,-234.5 0,0 149.73,-721.34 238.46,-1002.36 46.19,-146.18 104.2,-206.53 154.8,-360.14 392.86,-51.25 508.61,55.02 469.1,334.46l-3.07 20.13 3.4 -9.56c120.31,-354.02 -164.01,-451.05 -619.06,-328.29 3.91,-57.2 35.97,-244.8 89.09,-230.53 21.34,9.63 6.58,83.18 -2.14,118.47 18.87,-4.37 50.95,-10.26 79.01,-15.01 12.75,-66.9 14.05,-106.93 4.9,-171.41 -55.19,-215.81 -184.06,28.65 -220.54,232.01l0.28 -0.12 0 0.01 0 0.01 -0.01 0.02 0 0.01 0 0.03 -0.01 0.05 0 0.01 -0.01 0.07 0 0.02 -0.03 0.09 -0.01 0.04c-4.53,26.12 -5.73,41.11 -9.71,83.94l0 0.03 0 0.11 0 0.02 0 0.07 0 0.02 0 0.06 0 0.01 0 0.03 0 0.01c-115.06,51.41 -323.93,161.26 -410.23,294.92z"/>
   </g>
   <g id="_2083850196064">
    <path class="fil6" d="M6570.09 1510.76l-36.99 6.87c1.58,-7.41 2.33,-13.58 2.33,-18.59 0,-32.05 -19.34,-48.02 -57.98,-48.02 -30.53,0 -45.76,10.97 -45.76,33 0,16.47 17.08,30.61 51.18,42.4 65.8,22.65 98.67,56.2 98.67,100.58 0,26.01 -9.26,46.86 -27.72,62.65 -18.52,15.71 -43.09,23.6 -73.76,23.6 -67.93,0 -101.89,-26.27 -101.89,-78.9 0,-4.25 0.42,-9.54 1.17,-15.85l38.36 -8.44c-3.02,11.67 -4.53,21.76 -4.53,30.32 0,34.03 19.49,51.05 58.53,51.05 31.22,0 46.85,-12.28 46.85,-36.76 0,-18.25 -18.66,-34.32 -56.05,-48.11 -54,-19.82 -81.03,-51.53 -81.03,-95.09 0,-24.7 8.98,-44.53 27.04,-59.63 18.04,-15.09 41.71,-22.64 71.08,-22.64 60.32,0 90.5,27.16 90.5,81.57z"/>
    <polygon class="fil6" points="6261.12,1433.71 6261.12,1680.72 6373.92,1680.72 6373.92,1708.3 6181.66,1708.3 6181.66,1433.71 "/>
    <polygon class="fil1" points="6252.29,1421.34 6252.29,1668.35 6365.09,1668.35 6365.09,1695.93 6172.84,1695.93 6172.84,1421.34 "/>
    <path class="fil1" d="M6561.26 1498.39l-36.99 6.87c1.58,-7.41 2.33,-13.58 2.33,-18.59 0,-32.05 -19.35,-48.02 -57.98,-48.02 -30.54,0 -45.77,10.97 -45.77,33 0,16.47 17.09,30.6 51.19,42.4 65.8,22.65 98.67,56.2 98.67,100.58 0,26.01 -9.26,46.86 -27.73,62.65 -18.52,15.71 -43.08,23.6 -73.75,23.6 -67.93,0 -101.89,-26.27 -101.89,-78.9 0,-4.25 0.42,-9.54 1.17,-15.85l38.35 -8.44c-3.02,11.67 -4.52,21.76 -4.52,30.32 0,34.03 19.49,51.05 58.53,51.05 31.21,0 46.85,-12.28 46.85,-36.77 0,-18.24 -18.66,-34.31 -56.05,-48.1 -54,-19.83 -81.03,-51.53 -81.03,-95.09 0,-24.7 8.98,-44.53 27.04,-59.63 18.04,-15.09 41.71,-22.64 71.08,-22.64 60.31,0 90.5,27.16 90.5,81.57z"/>
   </g>
  </g>
 </g>
</svg>
