<?xml version="1.0" encoding="UTF-8"?>
<!DOCTYPE svg PUBLIC "-//W3C//DTD SVG 1.1//EN" "http://www.w3.org/Graphics/SVG/1.1/DTD/svg11.dtd">
<!-- Creator: CorelDRAW 2019 (64-Bit) -->
<svg xmlns="http://www.w3.org/2000/svg" xml:space="preserve" width="5.75207cm" height="5.73821cm" version="1.1" style="shape-rendering:geometricPrecision; text-rendering:geometricPrecision; image-rendering:optimizeQuality; fill-rule:evenodd; clip-rule:evenodd"
viewBox="0 0 2131.47 2126.33"
 xmlns:xlink="http://www.w3.org/1999/xlink">
 <defs>
  <style type="text/css">
   <![CDATA[
    .str1 {stroke:white;stroke-width:7.41;stroke-miterlimit:22.9256}
    .str0 {stroke:#00A3ED;stroke-width:2.98;stroke-miterlimit:22.9256}
    .fil0 {fill:#00A3ED}
    .fil1 {fill:white}
   ]]>
  </style>
 </defs>
 <g id="Capa_x0020_1">
  <metadata id="CorelCorpID_0Corel-Layer"/>
  <path class="fil0 str0" d="M327.49 1.49l1476.49 0c179.3,0 326,146.7 326,326l0 1471.35c0,179.3 -146.7,326 -326,326l-1476.49 0c-179.3,0 -326,-146.7 -326,-326l0 -1471.35c0,-179.3 146.7,-326 326,-326zm717.24 771.43c2.5,-28.11 7.19,-70.59 18.79,-107.36 11.6,-36.77 30.13,-67.82 53.93,-96.08 23.8,-28.27 52.89,-53.76 85.08,-73.21 32.19,-19.45 67.49,-32.85 98.86,-40.52 31.38,-7.68 58.83,-9.64 87.59,-6.54 28.76,3.11 58.83,11.27 85.95,22.71 27.12,11.44 51.31,26.15 67.16,37.91 15.85,11.77 23.37,20.59 27.78,25.33 4.41,4.74 5.72,5.39 11.44,6.05 5.72,0.65 15.85,1.3 30.72,-0.33 14.87,-1.63 34.48,-5.56 53.27,-11.6 18.79,-6.05 36.77,-14.22 53.92,-23.37 17.16,-9.15 33.5,-19.28 42.81,-25 9.32,-5.72 11.61,-7.03 11.61,-2.78 0,4.25 -2.29,14.05 -7.68,27.28 -5.39,13.24 -13.89,29.9 -25.33,46.25 -11.44,16.34 -25.82,32.35 -39.05,46.08 -13.24,13.73 -25.33,25.16 -33.99,31.86 -8.66,6.7 -13.89,8.66 -15.36,9.65 -1.47,0.98 0.82,0.98 9.48,1.63 8.66,0.65 23.69,1.96 49.18,-3.76 25.49,-5.72 61.44,-18.46 79.91,-24.84 18.46,-6.37 19.45,-6.37 17.81,-3.11 -1.63,3.27 -5.88,9.8 -17.32,24.68 -11.44,14.87 -30.07,38.07 -50.82,59.32 -20.75,21.24 -43.63,40.52 -55.88,51.15 -12.25,10.62 -13.88,12.58 -14.7,14.05 -0.82,1.47 -0.82,2.45 -2.94,29.41 -2.12,26.96 -6.37,79.9 -13.24,130.23 -6.86,50.33 -16.34,98.05 -30.88,143.96 -14.54,45.92 -34.15,90.04 -56.7,133.83 -22.55,43.79 -48.04,87.26 -74.68,124.84 -26.63,37.59 -54.41,69.28 -81.7,97.88 -27.29,28.6 -54.09,54.09 -87.1,79.74 -33.01,25.65 -72.23,51.47 -119.94,76.47 -47.71,25 -103.92,49.19 -152.94,65.2 -49.02,16.02 -90.86,23.86 -138.73,29.57 -47.88,5.72 -101.8,9.32 -152.3,8.99 -50.49,-0.33 -97.55,-4.57 -150.17,-15.2 -52.62,-10.62 -110.79,-27.61 -158.5,-46.24 -47.72,-18.63 -84.98,-38.89 -104.26,-49.68 -19.28,-10.78 -20.59,-12.09 -21.9,-13.07 -1.31,-0.98 -2.62,-1.63 -0.33,-1.96 2.29,-0.33 8.17,-0.33 26.47,-0.49 18.3,-0.16 49.02,-0.49 82.2,-4.08 33.17,-3.59 68.79,-10.46 108.01,-21.41 39.22,-10.95 82.03,-25.98 116.67,-41.83 34.64,-15.85 61.11,-32.51 78.27,-42.97 17.16,-10.46 25,-14.7 28.92,-16.83 3.92,-2.12 3.92,-2.12 -6.21,-4.74 -10.13,-2.61 -30.39,-7.84 -56.05,-15.85 -25.65,-8.01 -56.7,-18.79 -83.17,-33.66 -26.47,-14.87 -48.37,-33.83 -68.47,-55.4 -20.1,-21.57 -38.4,-45.75 -49.34,-63.05 -10.95,-17.3 -14.55,-27.72 -16.35,-32.93 -1.8,-5.21 -1.8,-5.21 -0.49,-5.21 1.31,0 3.92,0 18.3,0 14.38,0 40.52,0 59.81,-2.8 19.28,-2.8 31.7,-8.39 38.56,-12.34 6.86,-3.94 8.17,-6.23 5.07,-7.37 -3.11,-1.15 -10.62,-1.15 -26.8,-7.19 -16.18,-6.05 -41.02,-18.14 -67.65,-34.64 -26.64,-16.5 -55.06,-37.42 -77.94,-71.73 -22.88,-34.32 -40.2,-82.03 -49.68,-115.37 -9.48,-33.34 -11.11,-52.29 -11.93,-63.57 -0.82,-11.28 -0.82,-14.87 1.14,-15.03 1.96,-0.16 5.88,3.11 15.69,8.66 9.8,5.55 25.49,13.4 42,18.62 16.5,5.23 33.82,7.84 44.61,8.5 10.78,0.65 15.03,-0.65 18.14,-2.12 3.1,-1.47 5.07,-3.11 4.74,-5.39 -0.33,-2.29 -2.94,-5.23 -10.29,-10.46 -7.36,-5.23 -19.45,-12.75 -33.18,-26.8 -13.73,-14.06 -29.08,-34.65 -42.48,-62.75 -13.4,-28.11 -24.83,-63.73 -29.74,-103.6 -4.9,-39.87 -3.27,-83.99 2.78,-116.67 6.04,-32.68 16.5,-53.92 22.39,-66.5 5.88,-12.58 7.19,-16.51 8.5,-17.49 1.31,-0.98 2.61,0.98 11.6,12.58 8.99,11.6 25.65,32.84 54.91,59.48 29.25,26.64 71.08,58.67 110.62,86.28 39.54,27.61 76.8,50.81 113.89,70.75 37.09,19.94 74.02,36.6 112.42,49.84 38.4,13.24 78.27,23.04 115.37,30.07 37.09,7.03 71.41,11.27 88.73,13.4 17.32,2.12 17.65,2.12 17.81,1.47 0.16,-0.66 0.16,-1.96 0.33,-9.48 0.16,-7.52 0.49,-21.25 3,-49.35z"/>
  <path class="fil1 str1" d="M1044.73 772.92c2.5,-28.11 7.19,-70.59 18.79,-107.36 11.6,-36.77 30.13,-67.82 53.93,-96.08 23.8,-28.27 52.89,-53.76 85.08,-73.21 32.19,-19.45 67.49,-32.85 98.86,-40.52 31.38,-7.68 58.83,-9.64 87.59,-6.54 28.76,3.11 58.83,11.27 85.95,22.71 27.12,11.44 51.31,26.15 67.16,37.91 15.85,11.77 23.37,20.59 27.78,25.33 4.41,4.74 5.72,5.39 11.44,6.05 5.72,0.65 15.85,1.3 30.72,-0.33 14.87,-1.63 34.48,-5.56 53.27,-11.6 18.79,-6.05 36.77,-14.22 53.92,-23.37 17.16,-9.15 33.5,-19.28 42.81,-25 9.32,-5.72 11.61,-7.03 11.61,-2.78 0,4.25 -2.29,14.05 -7.68,27.28 -5.39,13.24 -13.89,29.9 -25.33,46.25 -11.44,16.34 -25.82,32.35 -39.05,46.08 -13.24,13.73 -25.33,25.16 -33.99,31.86 -8.66,6.7 -13.89,8.66 -15.36,9.65 -1.47,0.98 0.82,0.98 9.48,1.63 8.66,0.65 23.69,1.96 49.18,-3.76 25.49,-5.72 61.44,-18.46 79.91,-24.84 18.46,-6.37 19.45,-6.37 17.81,-3.11 -1.63,3.27 -5.88,9.8 -17.32,24.68 -11.44,14.87 -30.07,38.07 -50.82,59.32 -20.75,21.24 -43.63,40.52 -55.88,51.15 -12.25,10.62 -13.88,12.58 -14.7,14.05 -0.82,1.47 -0.82,2.45 -2.94,29.41 -2.12,26.96 -6.37,79.9 -13.24,130.23 -6.86,50.33 -16.34,98.05 -30.88,143.96 -14.54,45.92 -34.15,90.04 -56.7,133.83 -22.55,43.79 -48.04,87.26 -74.68,124.84 -26.63,37.59 -54.41,69.28 -81.7,97.88 -27.29,28.6 -54.09,54.09 -87.1,79.74 -33.01,25.65 -72.23,51.47 -119.94,76.47 -47.71,25 -103.92,49.19 -152.94,65.2 -49.02,16.02 -90.86,23.86 -138.73,29.57 -47.88,5.72 -101.8,9.32 -152.3,8.99 -50.49,-0.33 -97.55,-4.57 -150.17,-15.2 -52.62,-10.62 -110.79,-27.61 -158.5,-46.24 -47.72,-18.63 -84.98,-38.89 -104.26,-49.68 -19.28,-10.78 -20.59,-12.09 -21.9,-13.07 -1.31,-0.98 -2.62,-1.63 -0.33,-1.96 2.29,-0.33 8.17,-0.33 26.47,-0.49 18.3,-0.16 49.02,-0.49 82.2,-4.08 33.17,-3.59 68.79,-10.46 108.01,-21.41 39.22,-10.95 82.03,-25.98 116.67,-41.83 34.64,-15.85 61.11,-32.51 78.27,-42.97 17.16,-10.46 25,-14.7 28.92,-16.83 3.92,-2.12 3.92,-2.12 -6.21,-4.74 -10.13,-2.61 -30.39,-7.84 -56.05,-15.85 -25.65,-8.01 -56.7,-18.79 -83.17,-33.66 -26.47,-14.87 -48.37,-33.83 -68.47,-55.4 -20.1,-21.57 -38.4,-45.75 -49.34,-63.05 -10.95,-17.3 -14.55,-27.72 -16.35,-32.93 -1.8,-5.21 -1.8,-5.21 -0.49,-5.21 1.31,0 3.92,0 18.3,0 14.38,0 40.52,0 59.81,-2.8 19.28,-2.8 31.7,-8.39 38.56,-12.34 6.86,-3.94 8.17,-6.23 5.07,-7.37 -3.11,-1.15 -10.62,-1.15 -26.8,-7.19 -16.18,-6.05 -41.02,-18.14 -67.65,-34.64 -26.64,-16.5 -55.06,-37.42 -77.94,-71.73 -22.88,-34.32 -40.2,-82.03 -49.68,-115.37 -9.48,-33.34 -11.11,-52.29 -11.93,-63.57 -0.82,-11.28 -0.82,-14.87 1.14,-15.03 1.96,-0.16 5.88,3.11 15.69,8.66 9.8,5.55 25.49,13.4 42,18.62 16.5,5.23 33.82,7.84 44.61,8.5 10.78,0.65 15.03,-0.65 18.14,-2.12 3.1,-1.47 5.07,-3.11 4.74,-5.39 -0.33,-2.29 -2.94,-5.23 -10.29,-10.46 -7.36,-5.23 -19.45,-12.75 -33.18,-26.8 -13.73,-14.06 -29.08,-34.65 -42.48,-62.75 -13.4,-28.11 -24.83,-63.73 -29.74,-103.6 -4.9,-39.87 -3.27,-83.99 2.78,-116.67 6.04,-32.68 16.5,-53.92 22.39,-66.5 5.88,-12.58 7.19,-16.51 8.5,-17.49 1.31,-0.98 2.61,0.98 11.6,12.58 8.99,11.6 25.65,32.84 54.91,59.48 29.25,26.64 71.08,58.67 110.62,86.28 39.54,27.61 76.8,50.81 113.89,70.75 37.09,19.94 74.02,36.6 112.42,49.84 38.4,13.24 78.27,23.04 115.37,30.07 37.09,7.03 71.41,11.27 88.73,13.4 17.32,2.12 17.65,2.12 17.81,1.47 0.16,-0.66 0.16,-1.96 0.33,-9.48 0.16,-7.52 0.49,-21.25 3,-49.35z"/>
 </g>
</svg>
