<?xml version="1.0" encoding="UTF-8"?>
<!DOCTYPE svg PUBLIC "-//W3C//DTD SVG 1.1//EN" "http://www.w3.org/Graphics/SVG/1.1/DTD/svg11.dtd">
<!-- Creator: CorelDRAW 2019 (64-Bit) -->
<svg xmlns="http://www.w3.org/2000/svg" xml:space="preserve" width="4.96693cm" height="4.96693cm" version="1.1" style="shape-rendering:geometricPrecision; text-rendering:geometricPrecision; image-rendering:optimizeQuality; fill-rule:evenodd; clip-rule:evenodd"
viewBox="0 0 1646.05 1646.05"
 xmlns:xlink="http://www.w3.org/1999/xlink">
 <defs>
  <style type="text/css">
   <![CDATA[
    .fil1 {fill:#FEFEFE}
    .fil0 {fill:#28D346}
   ]]>
  </style>
 </defs>
 <g id="Capa_x0020_1">
  <metadata id="CorelCorpID_0Corel-Layer"/>
  <g id="_1957066524896">
   <rect class="fil0" x="-0" y="-0" width="1646.05" height="1646.05" rx="333.15" ry="333.15"/>
   <path class="fil1" d="M553.36 1331.25l-306.51 79.47 81.28 -301.05c-50,-86.63 -78.61,-187.16 -78.61,-294.37 0,-325.77 264.09,-589.86 589.86,-589.86 325.77,0 589.86,264.09 589.86,589.86 0,325.77 -264.09,589.86 -589.86,589.86 -103.79,0 -201.29,-26.84 -286.02,-73.91zm-166.82 -58.55l51.02 -186.66c-52.29,-77.36 -82.83,-170.63 -82.83,-271.03 0,-267.61 216.94,-484.55 484.55,-484.55 267.61,0 484.55,216.94 484.55,484.55 0,267.61 -216.94,484.55 -484.55,484.55 -97.49,0 -188.23,-28.81 -264.23,-78.35l-188.51 51.49zm232.7 -729.99l40.97 0c0,0 22.94,-3.78 33.52,33.51l37.75 88.52c0,0 20.93,30.29 -10.25,64.58l-24.49 26.73c0,0 -7.31,8.37 1.12,31.4 15.74,43.03 118.53,144.62 187.67,166.28 17.23,5.4 28.22,12.62 44.6,-4.17l41.21 -50.54c0,0 13.36,-22.71 46.32,-5.79l96.87 47.65c3.74,1.84 31.23,10.26 21.38,48.1 -3.74,14.36 -5.64,23.09 -11.58,33.18 -163.29,277.4 -801.23,-296.78 -505.09,-479.46z"/>
   <path class="fil0" d="M386.54 1272.7l51.02 -186.66c-52.29,-77.36 -82.83,-170.63 -82.83,-271.03 0,-267.61 216.94,-484.55 484.55,-484.55 267.61,0 484.55,216.94 484.55,484.55 0,267.61 -216.94,484.55 -484.55,484.55 -97.49,0 -188.23,-28.81 -264.23,-78.35l-188.51 51.49zm232.7 -729.99l40.97 0c0,0 22.94,-3.78 33.52,33.51l37.75 88.52c0,0 20.93,30.29 -10.25,64.58l-24.49 26.73c0,0 -7.31,8.37 1.12,31.4 15.74,43.03 118.53,144.62 187.67,166.28 17.23,5.4 28.22,12.62 44.6,-4.17l41.21 -50.54c0,0 13.36,-22.71 46.32,-5.79l96.87 47.65c3.74,1.84 31.23,10.26 21.38,48.1 -3.74,14.36 -5.64,23.09 -11.58,33.18 -163.29,277.4 -801.23,-296.78 -505.09,-479.46z"/>
   <path class="fil1" d="M619.24 542.71l40.97 0c0,0 22.94,-3.78 33.52,33.51l37.75 88.52c0,0 20.93,30.29 -10.25,64.58l-24.49 26.73c0,0 -7.31,8.37 1.12,31.4 15.74,43.03 118.53,144.62 187.67,166.28 17.23,5.4 28.22,12.62 44.6,-4.17l41.21 -50.54c0,0 13.36,-22.71 46.32,-5.79l96.87 47.65c3.74,1.84 31.23,10.26 21.38,48.1 -3.74,14.36 -5.64,23.09 -11.58,33.18 -163.29,277.4 -801.23,-296.78 -505.09,-479.46z"/>
  </g>
 </g>
</svg>
